<svg xmlns="http://www.w3.org/2000/svg" width="64" height="64" viewBox="0 0 64 64"><path fill="#faefde" d="M22.58,14.185c-0.071,0.402-0.116,0.813-0.136,1.231c-0.265-0.173-0.535-0.251-0.786-0.184 c-0.786,0.211-1.082,1.656-0.661,3.228c0.271,1.01,0.771,1.821,1.303,2.216c0.432,0.321,0.815,0.706,1,1.211 c1.518,4.135,4.842,7.981,8.699,7.981s7.181-3.847,8.699-7.981c0.185-0.505,0.569-0.89,1-1.211c0.532-0.395,1.032-1.205,1.303-2.216 c0.421-1.572,0.126-3.018-0.661-3.228c-0.251-0.067-0.52,0.011-0.786,0.184c-0.02-0.434-0.061-0.822-0.129-1.206"></path><path fill="#d6dff2" d="M40.945,7.962L40.088,4.25c-0.39-1.689-2.125-2.697-3.785-2.199l-2.004,0.601 c-1.499,0.45-3.098,0.45-4.597,0l-2.004-0.601c-1.66-0.498-3.396,0.51-3.785,2.199l-0.857,3.712C19.968,8.705,18,9.825,18,11.079 c0,2.238,6.268,4.053,14,4.053s14-1.814,14-4.053C46,9.825,44.032,8.705,40.945,7.962z"></path><path fill="#becde8" d="M59,57H5c-1.105,0-2-0.895-2-2V27c0-1.105,0.895-2,2-2h54c1.105,0,2,0.895,2,2v28 C61,56.105,60.105,57,59,57z"></path><path fill="#a8b7d1" d="M35.278,43h-6.555c-0.99,0-1.831,0.724-1.978,1.703L24,63h16l-2.745-18.297 C37.109,43.724,36.268,43,35.278,43z"></path><path fill="#cbd9ed" d="M58,37H6c-1.657,0-3-1.343-3-3v-7c0-1.105,0.895-2,2-2h54c1.105,0,2,0.895,2,2v7 C61,35.657,59.657,37,58,37z"></path><path fill="#c2cde7" d="M40.002,8c-3.385,0.846-5.924,1.692-16.924,0c0,0-5.077,1.692-5.077,3.385s7.534,3.815,13.922,3.6 c6.387-0.215,13.157-1.908,13.157-3.6S40.002,8,40.002,8z"></path><path fill="#8b8e98" d="M22,14c8,2,20.465-0.109,20.465-0.109L38,21h-4l-2-3l-2,3h-4L22,14z"></path><path fill="#8d6c9f" d="M36.825,9.85c0.05,0,0.1-0.004,0.15-0.011c0.555-0.084,1.108-0.182,1.659-0.293 c0.542-0.11,0.891-0.638,0.781-1.18c-0.11-0.541-0.641-0.884-1.179-0.781c-0.518,0.105-1.038,0.197-1.559,0.275 c-0.546,0.083-0.922,0.592-0.84,1.139C35.913,9.494,36.339,9.85,36.825,9.85z"></path><path fill="#8d6c9f" d="M59,24H40.88c0.29-0.58,0.54-1.18,0.76-1.77c0.09-0.25,0.3-0.48,0.66-0.75 c0.74-0.55,1.35-1.56,1.67-2.76c0.24-0.91,0.29-1.83,0.13-2.59c-0.14-0.688-0.46-1.215-0.894-1.546 C45.5,13.763,47,12.604,47,11.079c0-1.663-1.801-3.019-5.218-3.937l-0.72-3.117c-0.248-1.073-0.936-2.006-1.888-2.559 c-0.952-0.554-2.104-0.688-3.16-0.374l-2.004,0.602c-1.315,0.396-2.707,0.396-4.022,0l-2.005-0.602 c-1.055-0.318-2.207-0.18-3.159,0.374c-0.952,0.553-1.64,1.485-1.888,2.559l-0.72,3.117C18.801,8.061,17,9.416,17,11.079 c0,1.524,1.5,2.684,3.794,3.505c-0.433,0.33-0.753,0.858-0.894,1.546c-0.16,0.76-0.11,1.68,0.13,2.59c0.32,1.2,0.93,2.21,1.67,2.76 c0.36,0.27,0.57,0.5,0.66,0.75c0.22,0.59,0.47,1.19,0.76,1.77H5c-1.65,0-3,1.35-3,3v28c0,1.65,1.35,3,3,3h18.74l-0.6,4H20 c-0.552,0-1,0.447-1,1s0.448,1,1,1h2.84h18.32H44c0.552,0,1-0.447,1-1s-0.448-1-1-1h-3.14l-0.6-4H59c1.65,0,3-1.35,3-3V27 C62,25.35,60.65,24,59,24z M19,11.079c0-0.355,1.017-1.32,4.091-2.091c2.91,0.806,5.888,1.223,8.893,1.223 c0.828,0,1.659-0.031,2.49-0.093c0.551-0.041,0.964-0.521,0.923-1.071s-0.525-0.975-1.071-0.923 c-3.397,0.252-6.782-0.051-10.076-0.89l0.637-2.759c0.125-0.544,0.46-0.998,0.943-1.279c0.311-0.181,0.654-0.272,1.001-0.272 c0.193,0,0.387,0.028,0.578,0.086l2.004,0.602c1.692,0.508,3.48,0.508,5.173,0l2.003-0.602c0.536-0.162,1.097-0.095,1.581,0.187 c0.483,0.281,0.818,0.735,0.943,1.279l0.996,4.314l0.602,0.146C43.952,9.714,45,10.716,45,11.079c0,0.913-4.423,3.053-13,3.053 S19,11.992,19,11.079z M40.348,15.358l-1.796,3.592c-0.333,0.664-1,1.076-1.742,1.076h-1.69c-0.178,0-0.344-0.103-0.424-0.262 l-0.484-0.969c-0.421-0.844-1.27-1.368-2.213-1.368s-1.792,0.524-2.213,1.368l-0.484,0.969c-0.081,0.161-0.243,0.262-0.424,0.262 H27.19c-0.742,0-1.41-0.412-1.742-1.076l-1.796-3.592c2.523,0.519,5.475,0.774,8.348,0.774S37.825,15.877,40.348,15.358z M24.24,21.54c-0.23-0.62-0.67-1.16-1.34-1.67c-0.28-0.2-0.69-0.77-0.94-1.67c-0.12-0.45-0.16-0.84-0.16-1.15 c0-0.359,0.048-0.614,0.087-0.751l1.773,3.545c0.673,1.346,2.026,2.182,3.53,2.182h1.688c0.943,0,1.791-0.523,2.213-1.367 l0.484-0.969c0.118-0.237,0.336-0.263,0.424-0.263s0.306,0.025,0.424,0.263l0.484,0.969c0.422,0.844,1.27,1.367,2.213,1.367h1.69 c1.504,0,2.857-0.836,3.531-2.182l1.75-3.5c0.109,0.32,0.183,0.976-0.051,1.855c-0.25,0.9-0.66,1.47-0.94,1.67 c-0.67,0.51-1.11,1.05-1.34,1.67c-0.3,0.82-0.7,1.66-1.17,2.46H25.41C24.94,23.2,24.54,22.36,24.24,21.54z M38.84,62H25.16l0.6-4 l0.3-2l1.67-11.15c0.08-0.48,0.5-0.85,0.99-0.85h6.56c0.49,0,0.91,0.37,0.99,0.85L37.94,56l0.3,2L38.84,62z M60,55 c0,0.55-0.45,1-1,1H39.96l-1.72-11.45C38.03,43.1,36.75,42,35.28,42h-6.56c-1.47,0-2.75,1.1-2.96,2.55L24.04,56H5 c-0.55,0-1-0.45-1-1V27c0-0.55,0.45-1,1-1h19.31h2.51h10.36h2.51H59c0.55,0,1,0.45,1,1V55z"></path><path fill="#8d6c9f" d="M12 35.055c-.552 0-1 .447-1 1v2c0 .553.448 1 1 1s1-.447 1-1v-2C13 35.502 12.552 35.055 12 35.055zM7 35.055c-.552 0-1 .447-1 1v2c0 .553.448 1 1 1s1-.447 1-1v-2C8 35.502 7.552 35.055 7 35.055zM27 35.055c-.552 0-1 .447-1 1v2c0 .553.448 1 1 1s1-.447 1-1v-2C28 35.502 27.552 35.055 27 35.055zM32 35.055c-.552 0-1 .447-1 1v2c0 .553.448 1 1 1s1-.447 1-1v-2C33 35.502 32.552 35.055 32 35.055zM37 35.055c-.552 0-1 .447-1 1v2c0 .553.448 1 1 1s1-.447 1-1v-2C38 35.502 37.552 35.055 37 35.055zM42 35.055c-.552 0-1 .447-1 1v2c0 .553.448 1 1 1s1-.447 1-1v-2C43 35.502 42.552 35.055 42 35.055zM47 35.055c-.552 0-1 .447-1 1v2c0 .553.448 1 1 1s1-.447 1-1v-2C48 35.502 47.552 35.055 47 35.055zM52 35.055c-.552 0-1 .447-1 1v2c0 .553.448 1 1 1s1-.447 1-1v-2C53 35.502 52.552 35.055 52 35.055zM57 35.055c-.552 0-1 .447-1 1v2c0 .553.448 1 1 1s1-.447 1-1v-2C58 35.502 57.552 35.055 57 35.055zM17 35.055c-.552 0-1 .447-1 1v2c0 .553.448 1 1 1s1-.447 1-1v-2C18 35.502 17.552 35.055 17 35.055zM22 35.055c-.552 0-1 .447-1 1v2c0 .553.448 1 1 1s1-.447 1-1v-2C23 35.502 22.552 35.055 22 35.055z"></path></svg>