<svg xmlns="http://www.w3.org/2000/svg" width="80" height="80" viewBox="0 0 80 80"><path fill="#6d9ddb" d="M55,16.5c-2.5,0-4.5-2-4.5-4.5c0-1.9,2.9-6.8,4.5-9.1c1.6,2.3,4.5,7.2,4.5,9.1 C59.5,14.5,57.5,16.5,55,16.5z"></path><path fill="#4e7ab5" d="M55,3.8c1.8,2.8,4,6.7,4,8.2c0,2.2-1.8,4-4,4s-4-1.8-4-4C51,10.5,53.2,6.6,55,3.8 M55,2 c0,0-5,7.2-5,10s2.2,5,5,5s5-2.2,5-5S55,2,55,2L55,2z"></path><path fill="#6d9ddb" d="M71,30.5c-3.6,0-6.5-2.9-6.5-6.5c0-3.1,5-10.9,6.5-13.1c1.5,2.2,6.5,10,6.5,13.1 C77.5,27.6,74.6,30.5,71,30.5z"></path><path fill="#4e7ab5" d="M71,11.8c2.2,3.4,6,9.7,6,12.2c0,3.3-2.7,6-6,6s-6-2.7-6-6C65,21.4,68.8,15.2,71,11.8 M71,10 c0,0-7,10.1-7,14s3.1,7,7,7s7-3.1,7-7S71,10,71,10L71,10z"></path><path fill="#f5ce85" d="M18,76.5c-8.5,0-15.5-7-15.5-15.5V46.8c0-2.8,1.1-5.4,3.1-7.4l21.4-21.4c1.1-1.1,2.5-1.6,4-1.6 s2.9,0.6,4,1.6c2.2,2.2,2.2,5.7,0,7.9L24.4,36.5h42.1c2.8,0,5,2.2,5,5c0,1.6-0.8,3.2-2.1,4.1l-1.3,0.9h4.4c2.8,0,5,2.2,5,5 s-2.2,5-5,5h-4.4l1.3,0.9c1.3,0.9,2.1,2.5,2.1,4.1c0,2.8-2.2,5-5,5h-4.4l1.3,0.9c1.3,0.9,2.1,2.5,2.1,4.1c0,2.8-2.2,5-5,5H18z"></path><path fill="#967a44" d="M30.9,17c1.4,0,2.6,0.5,3.6,1.5s1.5,2.2,1.5,3.6s-0.5,2.6-1.5,3.6l-9.6,9.6L23.2,37h2.4h11.5H44 h22.5c2.5,0,4.5,2,4.5,4.5c0,1.5-0.7,2.8-1.9,3.7L66.5,47h3.2h2.8c2.5,0,4.5,2,4.5,4.5S75,56,72.5,56h-2.8h-3.2l2.6,1.8 c1.2,0.8,1.9,2.2,1.9,3.7c0,2.5-2,4.5-4.5,4.5h-2.8h-3.2l2.6,1.8c1.2,0.8,1.9,2.2,1.9,3.7c0,2.5-2,4.5-4.5,4.5H44h-7.3H18 C9.7,76,3,69.3,3,61V46.8c0-2.6,1-5.1,2.9-7l21.3-21.3C28.2,17.5,29.5,17,30.9,17 M30.9,16c-1.6,0-3.1,0.6-4.3,1.8L5.2,39.1 c-2,2-3.2,4.7-3.2,7.7V61c0,8.8,7.2,16,16,16h18.7H44h16.5c3,0,5.5-2.5,5.5-5.5c0-1.9-0.9-3.5-2.3-4.5h2.8c3,0,5.5-2.5,5.5-5.5 c0-1.9-0.9-3.5-2.3-4.5h2.8c3,0,5.5-2.5,5.5-5.5S75.5,46,72.5,46h-2.8c1.4-1,2.3-2.6,2.3-4.5c0-3-2.5-5.5-5.5-5.5H44h-6.8H25.6 l9.6-9.6c2.4-2.4,2.4-6.3,0-8.6C34,16.6,32.5,16,30.9,16L30.9,16z"></path><path fill="#967a44" d="M42 46H68V47H42zM42 56H68V57H42zM42 66H62V67H42z"></path></svg>