<svg xmlns="http://www.w3.org/2000/svg" width="64" height="64" viewBox="0 0 64 64"><path fill="#faefde" d="M55 29L31 9 7 29 7 57 55 57z"></path><path fill="#efd8be" d="M31 11L7 31v1.73c0 1.696 1.978 2.622 3.28 1.536L30.36 17.533c.371-.309.91-.309 1.28 0L51.72 34.266C53.022 35.352 55 34.426 55 32.73V31L31 11zM55 57H7v-2c0-1.657 1.343-3 3-3h42c1.657 0 3 1.343 3 3V57z"></path><path fill="#ed7899" d="M31,13.25L58,35c1.18,0.907,1-1.363,1-2.851v-1.724c0-0.557-0.259-1.082-0.7-1.422L31,7L3,29.542 v2.301C3,33.456,3.721,35.984,5,35L31,13.25z"></path><path fill="#72caaf" d="M18,46h26c0,0-4-8-13-8S18,46,18,46z"></path><path fill="#faefde" d="M31,40.462L31,40.462c-3.379,0-6.118-2.739-6.118-6.118v-3.059c0-3.379,2.739-6.118,6.118-6.118h0 c3.379,0,6.118,2.739,6.118,6.118v3.059C37.118,37.723,34.379,40.462,31,40.462z"></path><path fill="#8d6c9f" d="M56.73,35.43c0.368,0.303,0.813,0.458,1.265,0.458c0.29,0,0.583-0.064,0.859-0.195 C59.561,35.358,60,34.666,60,33.885v-2.939c0-0.9-0.399-1.745-1.096-2.317l-26-21.357c-1.104-0.908-2.705-0.908-3.809,0l-26,21.357 C2.399,29.2,2,30.045,2,30.945v2.939c0,0.781,0.439,1.474,1.145,1.808c0.707,0.335,1.521,0.233,2.125-0.263L6,34.83V56H3 c-0.552,0-1,0.447-1,1s0.448,1,1,1h3h50h3c0.552,0,1-0.447,1-1s-0.448-1-1-1h-3V34.83L56.73,35.43z M4,33.885v-2.939 c0-0.3,0.133-0.581,0.365-0.772l26-21.357C30.549,8.664,30.774,8.589,31,8.589c0.225,0,0.451,0.075,0.635,0.227l26,21.357 C57.867,30.364,58,30.646,58,30.945v2.939L32.27,12.749l0-0.001c-0.735-0.602-1.802-0.603-2.539,0.001L4,33.885z M54,56H8V33.187 l23-18.892l0-0.001l23,18.893V56z"></path><path fill="#8d6c9f" d="M41 50c-.552 0-1 .447-1 1v2c0 .553.448 1 1 1s1-.447 1-1v-2C42 50.447 41.552 50 41 50zM36 50c-.552 0-1 .447-1 1v2c0 .553.448 1 1 1s1-.447 1-1v-2C37 50.447 36.552 50 36 50zM31 50c-.552 0-1 .447-1 1v2c0 .553.448 1 1 1s1-.447 1-1v-2C32 50.447 31.552 50 31 50zM46 54c.552 0 1-.447 1-1v-2c0-.553-.448-1-1-1s-1 .447-1 1v2C45 53.553 45.448 54 46 54zM51 54c.552 0 1-.447 1-1v-2c0-.553-.448-1-1-1s-1 .447-1 1v2C50 53.553 50.448 54 51 54zM11 50c-.552 0-1 .447-1 1v2c0 .553.448 1 1 1s1-.447 1-1v-2C12 50.447 11.552 50 11 50zM16 50c-.552 0-1 .447-1 1v2c0 .553.448 1 1 1s1-.447 1-1v-2C17 50.447 16.552 50 16 50zM21 50c-.552 0-1 .447-1 1v2c0 .553.448 1 1 1s1-.447 1-1v-2C22 50.447 21.552 50 21 50zM26 50c-.552 0-1 .447-1 1v2c0 .553.448 1 1 1s1-.447 1-1v-2C27 50.447 26.552 50 26 50zM23.88 31.29v3.05c0 1.37.39 2.65 1.08 3.74-3.33 1.2-6.16 3.76-7.86 7.24-.24.5-.03 1.1.46 1.34.5.24 1.1.03 1.34-.46 1.58-3.26 4.3-5.57 7.46-6.48 1.25 1.09 2.87 1.74 4.64 1.74s3.39-.65 4.64-1.74c3.16.91 5.88 3.22 7.46 6.48.17.35.53.56.9.56.15 0 .3-.03.44-.1.49-.24.7-.84.46-1.34-1.7-3.48-4.53-6.04-7.86-7.24.69-1.09 1.08-2.37 1.08-3.74v-3.05c0-3.93-3.2-7.12-7.12-7.12S23.88 27.36 23.88 31.29zM36.12 31.29v3.05c0 1.21-.42 2.31-1.11 3.18-.68.86-1.63 1.49-2.72 1.77-.41.11-.84.17-1.29.17s-.88-.06-1.29-.17c-1.09-.28-2.04-.91-2.72-1.77-.69-.87-1.11-1.97-1.11-3.18v-3.05c0-2.83 2.3-5.12 5.12-5.12S36.12 28.46 36.12 31.29z"></path></svg>