<svg xmlns="http://www.w3.org/2000/svg" data-name="Layer 1" width="64" height="64" viewBox="0 0 64 64"><path fill="#85cbf8" d="M13 13H51V61H13z"></path><path fill="#7bbeeb" d="M36 13H51V61H36z"></path><path fill="#9fddff" d="M13 13H24V61H13z"></path><rect width="42" height="4" x="11" y="9" fill="#f9dd8f" rx="2" ry="2"></rect><path fill="#ed7899" d="M13 55H51V61H13z"></path><path fill="#faefde" d="M29 53H35V61H29z"></path><path fill="#8d6c9f" d="M55,60H52V13.82A3,3,0,0,0,51,8H34V4.06a1,1,0,0,0-2,0V8H30V1.06a1,1,0,0,0-2,0V8H13a3,3,0,0,0-1,5.82V60H9a1,1,0,0,0,0,2H55a1,1,0,0,0,0-2ZM34,60H30V54h4Zm0-8H30a2,2,0,0,0-2,2v0H14V18H40a1,1,0,0,0,0-2H14V14H50V54H36v0A2,2,0,0,0,34,52ZM13,10H51a1,1,0,0,1,0,2H13a1,1,0,0,1,0-2Zm1,46H28v4H14Zm22,4V56H50v4Z"></path><path fill="#8d6c9f" d="M43 18h4a1 1 0 0 0 0-2H43a1 1 0 0 0 0 2zM21 28H19a1 1 0 0 0 0 2h2a1 1 0 0 0 0-2zM21 20H19a1 1 0 0 0 0 2h2a1 1 0 0 0 0-2zM21 24H19a1 1 0 0 0 0 2h2a1 1 0 0 0 0-2zM29 28H27a1 1 0 0 0 0 2h2a1 1 0 0 0 0-2zM29 20H27a1 1 0 0 0 0 2h2a1 1 0 0 0 0-2zM29 24H27a1 1 0 0 0 0 2h2a1 1 0 0 0 0-2zM35 30h2a1 1 0 0 0 0-2H35a1 1 0 0 0 0 2zM35 22h2a1 1 0 0 0 0-2H35a1 1 0 0 0 0 2zM35 26h2a1 1 0 0 0 0-2H35a1 1 0 0 0 0 2zM43 30h2a1 1 0 0 0 0-2H43a1 1 0 0 0 0 2zM43 22h2a1 1 0 0 0 0-2H43a1 1 0 0 0 0 2zM43 26h2a1 1 0 0 0 0-2H43a1 1 0 0 0 0 2zM21 40H19a1 1 0 0 0 0 2h2a1 1 0 0 0 0-2zM21 32H19a1 1 0 0 0 0 2h2a1 1 0 0 0 0-2zM21 36H19a1 1 0 0 0 0 2h2a1 1 0 0 0 0-2zM29 40H27a1 1 0 0 0 0 2h2a1 1 0 0 0 0-2zM29 32H27a1 1 0 0 0 0 2h2a1 1 0 0 0 0-2zM29 36H27a1 1 0 0 0 0 2h2a1 1 0 0 0 0-2zM35 42h2a1 1 0 0 0 0-2H35a1 1 0 0 0 0 2zM35 34h2a1 1 0 0 0 0-2H35a1 1 0 0 0 0 2zM35 38h2a1 1 0 0 0 0-2H35a1 1 0 0 0 0 2zM43 42h2a1 1 0 0 0 0-2H43a1 1 0 0 0 0 2zM43 34h2a1 1 0 0 0 0-2H43a1 1 0 0 0 0 2zM43 38h2a1 1 0 0 0 0-2H43a1 1 0 0 0 0 2zM21 44H19a1 1 0 0 0 0 2h2a1 1 0 0 0 0-2zM21 48H19a1 1 0 0 0 0 2h2a1 1 0 0 0 0-2zM29 44H27a1 1 0 0 0 0 2h2a1 1 0 0 0 0-2zM29 48H27a1 1 0 0 0 0 2h2a1 1 0 0 0 0-2zM35 46h2a1 1 0 0 0 0-2H35a1 1 0 0 0 0 2zM38 49a1 1 0 0 0-1-1H35a1 1 0 0 0 0 2h2A1 1 0 0 0 38 49zM43 46h2a1 1 0 0 0 0-2H43a1 1 0 0 0 0 2zM43 50h2a1 1 0 0 0 0-2H43a1 1 0 0 0 0 2z"></path></svg>