<svg xmlns="http://www.w3.org/2000/svg" data-name="Layer 1" width="64" height="64" viewBox="0 0 64 64"><path fill="#ced8ed" d="M45 23H51V29H45z"></path><path fill="#c2cde7" d="M45 28H59V63H45z"></path><rect width="15" height="4" x="3" y="33" fill="#f9dd8f" rx="2" ry="2"></rect><path fill="#85cbf8" d="M17 11H45V63H17z"></path><path fill="#cda1a7" d="M5 37H17V63H5z"></path><path fill="#9fddff" d="M17 11H23V63H17z"></path><path fill="#7bbeeb" d="M31 11H45V63H31z"></path><path fill="#b5c4e0" d="M45 57H59V63H45z"></path><path fill="#bbdef9" d="M9 57H13V63H9z"></path><path fill="#fff" d="M30,28h2a2,2,0,0,1,2,2,1,1,0,0,0,2,0,4,4,0,0,0-4-4V25a1,1,0,0,0-2,0v1a4,4,0,0,0-4,4v1a4,4,0,0,0,4,4h2a2,2,0,0,1,2,2v1a2,2,0,0,1-2,2V37a1,1,0,0,0-2,0v3a2,2,0,0,1-2-2,1,1,0,0,0-2,0,4,4,0,0,0,4,4v1a1,1,0,0,0,2,0V42a4,4,0,0,0,4-4V37a4,4,0,0,0-4-4V30a1,1,0,0,0-2,0v3a2,2,0,0,1-2-2V30A2,2,0,0,1,30,28Z"></path><path fill="#8d6c9f" d="M51 46h2a1 1 0 0 0 0-2H51a1 1 0 0 0 0 2zM53 48H51a1 1 0 0 0 0 2h2a1 1 0 0 0 0-2zM53 52H51a1 1 0 0 0 0 2h2a1 1 0 0 0 0-2zM53 56H51a1 1 0 0 0 0 2h2a1 1 0 0 0 0-2zM10 42h2a1 1 0 0 0 0-2H10a1 1 0 0 0 0 2zM10 46h2a1 1 0 0 0 0-2H10a1 1 0 0 0 0 2zM10 50h2a1 1 0 0 0 0-2H10a1 1 0 0 0 0 2zM10 54h2a1 1 0 0 0 0-2H10a1 1 0 0 0 0 2zM51 36h2a1 1 0 0 0 0-2H51a1 1 0 0 0 0 2zM51 32h2a1 1 0 0 0 0-2H51a1 1 0 0 0 0 2zM23 54a1 1 0 0 0-1 1v2a1 1 0 0 0 2 0V55A1 1 0 0 0 23 54zM23 44a1 1 0 0 0-1 1v6a1 1 0 0 0 2 0V45A1 1 0 0 0 23 44zM31 48a1 1 0 0 0-1 1v8a1 1 0 0 0 2 0V49A1 1 0 0 0 31 48zM39 44a1 1 0 0 0-1 1V57a1 1 0 0 0 2 0V45A1 1 0 0 0 39 44zM23 16a1 1 0 0 0-1 1v6a1 1 0 0 0 2 0V17A1 1 0 0 0 23 16zM39 16a1 1 0 0 0-1 1v6a1 1 0 0 0 2 0V17A1 1 0 0 0 39 16zM31 20a1 1 0 0 0 1-1V17a1 1 0 0 0-2 0v2A1 1 0 0 0 31 20z"></path><path fill="#8d6c9f" d="M63,62H60V28h1a1,1,0,0,0,0-2H52V24a2,2,0,0,0-2-2H46V12h1a1,1,0,0,0,0-2H34V6.06a1,1,0,0,0-2,0V10H30V1.06a1,1,0,0,0-2,0V10H15a1,1,0,0,0,0,2h1V32H5a3,3,0,0,0-1,5.82V62H1a1,1,0,0,0,0,2H63a1,1,0,0,0,0-2ZM5,34H16v2H5a1,1,0,0,1,0-2Zm1,4H16V62H14V58a2,2,0,0,0-2-2H10a2,2,0,0,0-2,2v4H6Zm4,20h2v4H10Zm8,4V12H44V62Zm28,0V24h4v4h8V40H48a1,1,0,0,0,0,2H58V62Z"></path></svg>