<svg xmlns="http://www.w3.org/2000/svg" width="64" height="64" viewBox="0 0 64 64"><path fill="#72caaf" d="M55.87,14.636h-7.575l-0.836-4.053C46.79,7.337,43.851,5,40.437,5H23.562 c-3.413,0-6.351,2.336-7.021,5.582l-0.836,4.054H8.126C4.19,14.636,1,17.716,1,21.516v29.608C1,54.921,4.189,58,8.123,58h47.754 C59.811,58,63,54.921,63,51.123V21.52C63,17.718,59.808,14.636,55.87,14.636z"></path><path fill="#8d6c9f" stroke="#8d6c9f" stroke-linecap="round" stroke-miterlimit="10" stroke-width="2" d="M48 35L48 37M53 35L53 37"></path><path fill="#ffeb9b" stroke="#8d6c9f" stroke-linecap="round" stroke-miterlimit="10" stroke-width="2" d="M58 35L58 37"></path><path fill="#8d6c9f" stroke="#8d6c9f" stroke-linecap="round" stroke-miterlimit="10" stroke-width="2" d="M6 35L6 37M11 35L11 37"></path><path fill="#ffeb9b" stroke="#8d6c9f" stroke-linecap="round" stroke-miterlimit="10" stroke-width="2" d="M16 35L16 37"></path><path fill="#acb7d0" d="M32 26A10 10 0 1 0 32 46A10 10 0 1 0 32 26Z"></path><path fill="#8d6c9f" d="M32,28c4.411,0,8,3.589,8,8s-3.589,8-8,8s-8-3.589-8-8S27.589,28,32,28 M32,26 c-5.523,0-10,4.477-10,10s4.477,10,10,10s10-4.477,10-10S37.523,26,32,26L32,26z"></path><path fill="#8d6c9f" d="M32,24c6.617,0,12,5.383,12,12s-5.383,12-12,12s-12-5.383-12-12S25.383,24,32,24 M32,22 c-7.732,0-14,6.268-14,14s6.268,14,14,14s14-6.268,14-14S39.732,22,32,22L32,22z"></path><path fill="#5dbc9d" d="M56.272,53H7.728C5.853,53.001,4.094,53.932,3,55.5c1.094,1.568,2.853,2.499,4.728,2.5h48.544 c1.875-0.001,3.635-0.932,4.728-2.5C59.906,53.932,58.147,53.001,56.272,53z"></path><path fill="#97e0bb" d="M48,16H16l1.389-6.946C17.744,7.278,19.303,6,21.114,6h21.771c1.811,0,3.37,1.278,3.725,3.054L48,16 z"></path><path fill="#8d6c9f" d="M40.437,6c2.45,0,4.579,1.76,5.06,4.184l0.836,4.206c0.186,0.936,1.007,1.61,1.962,1.61h7.562 C58.693,16,61,18.307,61,21.143v30.734C61,54.702,58.702,57,55.877,57H8.136C5.304,57,3,54.696,3,51.864V21.126 C3,18.299,5.299,16,8.126,16h7.579c0.954,0,1.776-0.674,1.962-1.61l0.836-4.207C18.984,7.759,21.112,6,23.562,6H40.437 M40.437,4 H23.562c-3.413,0-6.351,2.424-7.021,5.793L15.705,14H8.126C4.19,14,1,17.19,1,21.126v30.738C1,55.805,4.195,59,8.136,59h47.741 C59.811,59,63,55.811,63,51.877V21.143C63,17.198,59.802,14,55.857,14h-7.562l-0.836-4.206C46.79,6.425,43.851,4,40.437,4 L40.437,4z"></path></svg>