<svg xmlns="http://www.w3.org/2000/svg" width="80" height="80" viewBox="0 0 80 80"><path fill="#66798f" d="M50 4H70V8H50zM10 4H28V8H10zM62 70H72V76H62zM8 70H18V76H8z"></path><path fill="#fff" d="M6,6.5h68c1.9,0,3.5,1.6,3.5,3.5v60c0,1.9-1.6,3.5-3.5,3.5H6c-1.9,0-3.5-1.6-3.5-3.5V10 C2.5,8.1,4.1,6.5,6,6.5z"></path><path fill="#66798f" d="M74,7c1.7,0,3,1.3,3,3v60c0,1.7-1.3,3-3,3H6c-1.7,0-3-1.3-3-3V10c0-1.7,1.3-3,3-3H74 M74,6H6 c-2.2,0-4,1.8-4,4v60c0,2.2,1.8,4,4,4h68c2.2,0,4-1.8,4-4V10C78,7.8,76.2,6,74,6z"></path><path fill="#66798f" d="M2 19H78V20H2z"></path><path fill="#b0c1d4" d="M8.5 26H71.5V67H8.5z"></path><path fill="#66798f" d="M71,26.5v40H9v-40H71 M72,25.5H8v42h64V25.5z"></path><path fill="#f78f8f" d="M68 11.5A1.5 1.5 0 1 0 68 14.5A1.5 1.5 0 1 0 68 11.5Z"></path><path fill="#c74343" d="M68,12c0.6,0,1,0.4,1,1s-0.4,1-1,1s-1-0.4-1-1S67.4,12,68,12 M68,11c-1.1,0-2,0.9-2,2s0.9,2,2,2 s2-0.9,2-2S69.1,11,68,11z"></path><path fill="#b0c1d4" d="M12 11.5A1.5 1.5 0 1 0 12 14.5A1.5 1.5 0 1 0 12 11.5Z"></path><path fill="#66798f" d="M12,12c0.6,0,1,0.4,1,1s-0.4,1-1,1s-1-0.4-1-1S11.4,12,12,12 M12,11c-1.1,0-2,0.9-2,2s0.9,2,2,2 s2-0.9,2-2S13.1,11,12,11z"></path><path fill="#b0c1d4" d="M20 11.5A1.5 1.5 0 1 0 20 14.5A1.5 1.5 0 1 0 20 11.5Z"></path><path fill="#66798f" d="M20,12c0.6,0,1,0.4,1,1s-0.4,1-1,1s-1-0.4-1-1S19.4,12,20,12 M20,11c-1.1,0-2,0.9-2,2s0.9,2,2,2 s2-0.9,2-2S21.1,11,20,11z"></path><path fill="#b0c1d4" d="M28 11.5A1.5 1.5 0 1 0 28 14.5A1.5 1.5 0 1 0 28 11.5Z"></path><path fill="#66798f" d="M28,12c0.6,0,1,0.4,1,1s-0.4,1-1,1s-1-0.4-1-1S27.4,12,28,12 M28,11c-1.1,0-2,0.9-2,2s0.9,2,2,2 s2-0.9,2-2S29.1,11,28,11z"></path><path fill="#b0c1d4" d="M36 11.5A1.5 1.5 0 1 0 36 14.5A1.5 1.5 0 1 0 36 11.5Z"></path><path fill="#66798f" d="M36,12c0.6,0,1,0.4,1,1s-0.4,1-1,1s-1-0.4-1-1S35.4,12,36,12 M36,11c-1.1,0-2,0.9-2,2s0.9,2,2,2 s2-0.9,2-2S37.1,11,36,11z"></path></svg>