<svg xmlns="http://www.w3.org/2000/svg" width="80" height="80" viewBox="0 0 80 80"><path d="M 40 7.8203125 L 7 28.445312 L 7 37.804688 L 8.5292969 36.847656 L 9 36.552734 L 9 73 L 71 73 L 71 36.554688 L 73 37.804688 L 73 28.445312 L 40 7.8203125 z M 40 10.179688 L 71 29.554688 L 71 34.197266 L 40 14.820312 L 9 34.197266 L 9 29.554688 L 40 10.179688 z M 39.242188 17.652344 A 1 1 0 0 0 40 18 A 1 1 0 0 0 40.755859 17.652344 L 69 35.304688 L 69 49 L 69 71 L 11 71 L 11 49 L 11 35.302734 L 39.242188 17.652344 z M 11 49 A 1 1 0 0 0 12 50 A 1 1 0 0 0 13 49 A 1 1 0 0 0 12 48 A 1 1 0 0 0 11 49 z M 69 49 A 1 1 0 0 0 68 48 A 1 1 0 0 0 67 49 A 1 1 0 0 0 68 50 A 1 1 0 0 0 69 49 z M 40 20 A 1 1 0 0 0 39 21 A 1 1 0 0 0 40 22 A 1 1 0 0 0 41 21 A 1 1 0 0 0 40 20 z M 40 24 A 1 1 0 0 0 39 25 A 1 1 0 0 0 40 26 A 1 1 0 0 0 41 25 A 1 1 0 0 0 40 24 z M 40 28 A 1 1 0 0 0 39 29 A 1 1 0 0 0 40 30 A 1 1 0 0 0 41 29 A 1 1 0 0 0 40 28 z M 21 32 A 1.0001 1.0001 0 1 0 21 34 L 29 34 A 1.0001 1.0001 0 1 0 29 32 L 21 32 z M 40 32 A 1 1 0 0 0 39 33 A 1 1 0 0 0 40 34 A 1 1 0 0 0 41 33 A 1 1 0 0 0 40 32 z M 51 32 A 1.0001 1.0001 0 1 0 51 34 L 59 34 A 1.0001 1.0001 0 1 0 59 32 L 51 32 z M 40 36 A 1 1 0 0 0 39 37 A 1 1 0 0 0 40 38 A 1 1 0 0 0 41 37 A 1 1 0 0 0 40 36 z M 40 40 A 1 1 0 0 0 39 41 A 1 1 0 0 0 40 42 A 1 1 0 0 0 41 41 A 1 1 0 0 0 40 40 z M 40 44 A 1 1 0 0 0 39 45 A 1 1 0 0 0 40 46 A 1 1 0 0 0 41 45 A 1 1 0 0 0 40 44 z M 16 48 A 1 1 0 0 0 15 49 A 1 1 0 0 0 16 50 A 1 1 0 0 0 17 49 A 1 1 0 0 0 16 48 z M 20 48 A 1 1 0 0 0 19 49 A 1 1 0 0 0 20 50 A 1 1 0 0 0 21 49 A 1 1 0 0 0 20 48 z M 24 48 A 1 1 0 0 0 23 49 A 1 1 0 0 0 24 50 A 1 1 0 0 0 25 49 A 1 1 0 0 0 24 48 z M 28 48 A 1 1 0 0 0 27 49 A 1 1 0 0 0 28 50 A 1 1 0 0 0 29 49 A 1 1 0 0 0 28 48 z M 32 48 A 1 1 0 0 0 31 49 A 1 1 0 0 0 32 50 A 1 1 0 0 0 33 49 A 1 1 0 0 0 32 48 z M 36 48 A 1 1 0 0 0 35 49 A 1 1 0 0 0 36 50 A 1 1 0 0 0 37 49 A 1 1 0 0 0 36 48 z M 40 48 A 1 1 0 0 0 39 49 A 1 1 0 0 0 40 50 A 1 1 0 0 0 41 49 A 1 1 0 0 0 40 48 z M 44 48 A 1 1 0 0 0 43 49 A 1 1 0 0 0 44 50 A 1 1 0 0 0 45 49 A 1 1 0 0 0 44 48 z M 48 48 A 1 1 0 0 0 47 49 A 1 1 0 0 0 48 50 A 1 1 0 0 0 49 49 A 1 1 0 0 0 48 48 z M 52 48 A 1 1 0 0 0 51 49 A 1 1 0 0 0 52 50 A 1 1 0 0 0 53 49 A 1 1 0 0 0 52 48 z M 56 48 A 1 1 0 0 0 55 49 A 1 1 0 0 0 56 50 A 1 1 0 0 0 57 49 A 1 1 0 0 0 56 48 z M 60 48 A 1 1 0 0 0 59 49 A 1 1 0 0 0 60 50 A 1 1 0 0 0 61 49 A 1 1 0 0 0 60 48 z M 64 48 A 1 1 0 0 0 63 49 A 1 1 0 0 0 64 50 A 1 1 0 0 0 65 49 A 1 1 0 0 0 64 48 z M 40 52 A 1 1 0 0 0 39 53 A 1 1 0 0 0 40 54 A 1 1 0 0 0 41 53 A 1 1 0 0 0 40 52 z M 21 55 A 1.0001 1.0001 0 1 0 21 57 L 29 57 A 1.0001 1.0001 0 1 0 29 55 L 21 55 z M 51 55 A 1.0001 1.0001 0 1 0 51 57 L 59 57 A 1.0001 1.0001 0 1 0 59 55 L 51 55 z M 40 56 A 1 1 0 0 0 39 57 A 1 1 0 0 0 40 58 A 1 1 0 0 0 41 57 A 1 1 0 0 0 40 56 z M 40 60 A 1 1 0 0 0 39 61 A 1 1 0 0 0 40 62 A 1 1 0 0 0 41 61 A 1 1 0 0 0 40 60 z M 40 64 A 1 1 0 0 0 39 65 A 1 1 0 0 0 40 66 A 1 1 0 0 0 41 65 A 1 1 0 0 0 40 64 z M 40 68 A 1 1 0 0 0 39 69 A 1 1 0 0 0 40 70 A 1 1 0 0 0 41 69 A 1 1 0 0 0 40 68 z"></path></svg>