<svg xmlns="http://www.w3.org/2000/svg" width="80" height="80" viewBox="0 0 80 80"><path fill="#8bb7f0" d="M8.505,77.5c0.267-12.729,10.704-23,23.495-23h16c12.791,0,23.229,10.271,23.495,23H8.505z"></path><path fill="#4e7ab5" d="M48,55c12.347,0,22.453,9.78,22.978,22H9.022C9.547,64.78,19.653,55,32,55H48 M48,54H32 C18.745,54,8,64.745,8,78h64C72,64.745,61.255,54,48,54L48,54z"></path><path fill="#deb974" d="M40,60.5c-6.246,0-8.231-4.23-8.5-4.883V45.3h17v10.317C48.231,56.27,46.246,60.5,40,60.5z"></path><path fill="#967a44" d="M48,45.8v9.713C47.641,56.319,45.687,60,40,60c-5.695,0-7.646-3.691-8-4.486V45.8H48 M49,44.8H31 v10.911c0,0,1.92,5.289,9,5.289s9-5.289,9-5.289V44.8L49,44.8z"></path><g><path fill="#f5ce85" d="M40,50.5c-1.343,0-2.638-0.495-3.648-1.394l-0.091-0.08l-0.117-0.03 C29.288,47.238,24.5,41.071,24.5,34V15.403c0-3.93,3.196-7.126,7.125-7.126h16.75c3.929,0,7.125,3.196,7.125,7.126V34 c0,7.071-4.788,13.237-11.643,14.996l-0.117,0.03l-0.091,0.08C42.639,50.005,41.342,50.5,40,50.5z"></path><path fill="#967a44" d="M48.375,8.778c3.653,0,6.625,2.972,6.625,6.625V34c0,6.842-4.633,12.81-11.268,14.512l-0.235,0.06 l-0.181,0.161C42.398,49.55,41.22,50,40,50c-1.22,0-2.398-0.45-3.316-1.267l-0.181-0.161l-0.235-0.06 C29.633,46.81,25,40.842,25,34V15.403c0-3.653,2.972-6.625,6.625-6.625H48.375 M48.375,7.778H31.625 c-4.211,0-7.625,3.414-7.625,7.625V34c0,7.46,5.112,13.708,12.019,15.48C37.079,50.423,38.47,51,40,51s2.921-0.577,3.981-1.52 C50.888,47.708,56,41.46,56,34V15.403C56,11.192,52.586,7.778,48.375,7.778L48.375,7.778z"></path></g><g><path fill="#a6714e" d="M56,51.5c-4.159,0-7.991-2.439-9.467-3.505c1.791-0.945,5.967-3.884,5.967-10.71v-9.448 c0-4.593-4.005-8.071-4.175-8.217l-0.431-0.369l-0.312,0.475c-0.043,0.064-4.375,6.498-13.65,7.779 c-4.443,0.613-6.432,3.838-6.432,6.762v3.019c0,6.934,4.147,9.8,5.95,10.719C31.976,49.074,28.175,51.5,24,51.5 c-4.193,0-7.849-2.465-9.156-3.463c1.482-1.059,5.228-4.199,5.228-8.895c0-1.811-0.349-3.753-0.717-5.808 C18.935,30.991,18.5,28.569,18.5,26c0-7.521,2.209-13.702,6.387-17.876C28.518,4.497,33.53,2.5,39,2.5 c7.897,0,10.438,5.471,10.543,5.703l0.133,0.296L50,8.5c7.309,0,11.5,5.649,11.5,15.5c0,2.729-0.54,5.739-1.063,8.65 C59.955,35.334,59.5,37.869,59.5,40c0,4.173,3.955,5.796,5.653,6.3C63.992,47.764,60.579,51.5,56,51.5z"></path><path fill="#7a4f34" d="M39,3c7.548,0,9.987,5.188,10.086,5.405L49.349,9H50c6.991,0,11,5.467,11,15 c0,2.684-0.536,5.672-1.055,8.562C59.459,35.269,59,37.825,59,40c0,3.689,2.919,5.704,5.285,6.562C62.869,48.185,59.856,51,56,51 c-3.52,0-6.816-1.824-8.538-2.97C49.554,46.713,53,43.585,53,37.286v-9.448c0-4.82-4.172-8.445-4.35-8.597l-0.864-0.739 l-0.623,0.951c-0.041,0.063-4.225,6.303-13.3,7.557C30.558,27.465,27,29.932,27,34.267v3.019c0,6.387,3.415,9.47,5.514,10.761 C30.796,49.193,27.528,51,24,51c-3.573,0-6.757-1.87-8.319-2.969c1.763-1.391,4.89-4.48,4.89-8.889 c0-1.855-0.352-3.818-0.724-5.896C19.43,30.925,19,28.525,19,26C19,9.024,29.774,3,39,3 M39,2C28.423,2,18,9.388,18,26 c0,4.907,1.571,9.364,1.571,13.143C19.571,44.655,14,48,14,48s4.508,4,10,4c5.587,0,10.423-4.113,10.423-4.113 S28,45.836,28,37.286c0-1.226,0-1.12,0-3.019c0-2.707,1.883-5.699,6-6.267c9.631-1.33,14-8,14-8s4,3.422,4,7.837 c0,2.089,0,6.017,0,9.448c0,8.388-6.428,10.604-6.428,10.604S50.451,52,56,52c6.01,0,10-6,10-6s-6-1.07-6-6c0-4.38,2-10.705,2-16 c0-11.522-5.533-16-12-16C50,8,47.344,2,39,2L39,2z"></path></g></svg>