<svg xmlns="http://www.w3.org/2000/svg" width="40" height="40" viewBox="0 0 40 40"><path fill="#4788c7" d="M38.5,25h-31C7.224,25,7,24.776,7,24.5v0C7,24.224,7.224,24,7.5,24h31c0.276,0,0.5,0.224,0.5,0.5v0 C39,24.776,38.776,25,38.5,25z"></path><path fill="#dff0fe" d="M2.5 23.5A1 1 0 1 0 2.5 25.5A1 1 0 1 0 2.5 23.5Z"></path><path fill="#4788c7" d="M2.5 24C2.776 24 3 24.224 3 24.5S2.776 25 2.5 25 2 24.776 2 24.5 2.224 24 2.5 24M2.5 23C1.672 23 1 23.672 1 24.5S1.672 26 2.5 26 4 25.328 4 24.5 3.328 23 2.5 23L2.5 23zM38.5 34h-31C7.224 34 7 33.776 7 33.5l0 0C7 33.224 7.224 33 7.5 33h31c.276 0 .5.224.5.5l0 0C39 33.776 38.776 34 38.5 34z"></path><path fill="#dff0fe" d="M2.5 32.5A1 1 0 1 0 2.5 34.5A1 1 0 1 0 2.5 32.5Z"></path><path fill="#4788c7" d="M2.5 33C2.776 33 3 33.224 3 33.5S2.776 34 2.5 34 2 33.776 2 33.5 2.224 33 2.5 33M2.5 32C1.672 32 1 32.672 1 33.5S1.672 35 2.5 35 4 34.328 4 33.5 3.328 32 2.5 32L2.5 32zM38.5 7h-31C7.224 7 7 6.776 7 6.5v0C7 6.224 7.224 6 7.5 6h31C38.776 6 39 6.224 39 6.5v0C39 6.776 38.776 7 38.5 7z"></path><path fill="#dff0fe" d="M2.5 5.5A1 1 0 1 0 2.5 7.5A1 1 0 1 0 2.5 5.5Z"></path><path fill="#4788c7" d="M2.5 6C2.776 6 3 6.224 3 6.5S2.776 7 2.5 7 2 6.776 2 6.5 2.224 6 2.5 6M2.5 5C1.672 5 1 5.672 1 6.5S1.672 8 2.5 8 4 7.328 4 6.5 3.328 5 2.5 5L2.5 5zM38.5 16h-31C7.224 16 7 15.776 7 15.5v0C7 15.224 7.224 15 7.5 15h31c.276 0 .5.224.5.5v0C39 15.776 38.776 16 38.5 16z"></path><g><path fill="#dff0fe" d="M2.5 14.5A1 1 0 1 0 2.5 16.5A1 1 0 1 0 2.5 14.5Z"></path><path fill="#4788c7" d="M2.5,15C2.776,15,3,15.224,3,15.5S2.776,16,2.5,16S2,15.776,2,15.5S2.224,15,2.5,15 M2.5,14 C1.672,14,1,14.672,1,15.5S1.672,17,2.5,17S4,16.328,4,15.5S3.328,14,2.5,14L2.5,14z"></path></g></svg>