<svg xmlns="http://www.w3.org/2000/svg" width="64" height="64" viewBox="0 0 64 64"><path fill="#c2cde7" d="M4 11H39V30H4zM4 34H39V52H4z"></path><path fill="#cad8ed" d="M4 11H15V52H4z"></path><path fill="#b5c4e0" d="M29 11H39V52H29zM39 38H50V52H39z"></path><path fill="#c2cde7" d="M39 11H4c-1.105 0-2-.895-2-2l0 0c0-1.105.895-2 2-2h35c1.105 0 2 .895 2 2l0 0C41 10.105 40.105 11 39 11zM39 56H4c-1.105 0-2-.895-2-2l0 0c0-1.105.895-2 2-2h35c1.105 0 2 .895 2 2l0 0C41 55.105 40.105 56 39 56zM39 33H4c-1.105 0-2-.895-2-2l0 0c0-1.105.895-2 2-2h35c1.105 0 2 .895 2 2l0 0C41 32.105 40.105 33 39 33z"></path><path fill="#8b8e98" d="M28,33c0-4-6-11-6-11s-6,7-6,11c0,3.314,2.686,6,6,6S28,36.314,28,33z"></path><path fill="#8d6c9f" d="M9 14c-.552 0-1 .447-1 1v2c0 .553.448 1 1 1s1-.447 1-1v-2C10 14.447 9.552 14 9 14zM14 14c-.552 0-1 .447-1 1v2c0 .553.448 1 1 1s1-.447 1-1v-2C15 14.447 14.552 14 14 14zM19 14c-.552 0-1 .447-1 1v2c0 .553.448 1 1 1s1-.447 1-1v-2C20 14.447 19.552 14 19 14zM24 14c-.552 0-1 .447-1 1v2c0 .553.448 1 1 1s1-.447 1-1v-2C25 14.447 24.552 14 24 14zM29 14c-.552 0-1 .447-1 1v2c0 .553.448 1 1 1s1-.447 1-1v-2C30 14.447 29.552 14 29 14zM34 14c-.552 0-1 .447-1 1v2c0 .553.448 1 1 1s1-.447 1-1v-2C35 14.447 34.552 14 34 14z"></path><path fill="#f9e3ae" d="M44.537,29h-7.074c-0.548,0-1.034,0.31-1.207,0.77l-2.125,5.635C34.044,35.633,34,35.873,34,36.115 v1.322C34,37.748,34.285,38,34.636,38h12.727C47.715,38,48,37.748,48,37.438v-1.322c0-0.242-0.044-0.482-0.13-0.712l-2.125-5.635 C45.572,29.31,45.085,29,44.537,29z"></path><path fill="#f6d397" d="M34 35H48V38H34z"></path><path fill="#f9e3ae" d="M44.537,47h-7.074c-0.548,0-1.034,0.31-1.207,0.77l-2.125,5.635C34.044,53.633,34,53.873,34,54.115 v1.322C34,55.748,34.285,56,34.636,56h12.727C47.715,56,48,55.748,48,55.438v-1.322c0-0.242-0.044-0.482-0.13-0.712l-2.125-5.635 C45.572,47.31,45.085,47,44.537,47z"></path><path fill="#f6d397" d="M34 53H48V56H34z"></path><path fill="#f9e3ae" d="M58.537,47h-7.074c-0.548,0-1.034,0.31-1.207,0.77l-2.125,5.635C48.044,53.633,48,53.873,48,54.115 v1.322C48,55.748,48.285,56,48.636,56h12.727C61.715,56,62,55.748,62,55.438v-1.322c0-0.242-0.044-0.482-0.13-0.712l-2.125-5.635 C59.572,47.31,59.085,47,58.537,47z"></path><path fill="#f6d397" d="M48 53H62V56H48z"></path><path fill="#f9e3ae" d="M30.537,47h-7.074c-0.548,0-1.034,0.31-1.207,0.77l-2.125,5.635C20.044,53.633,20,53.873,20,54.115 v1.322C20,55.748,20.285,56,20.636,56h12.727C33.715,56,34,55.748,34,55.438v-1.322c0-0.242-0.044-0.482-0.13-0.712l-2.125-5.635 C31.572,47.31,31.085,47,30.537,47z"></path><path fill="#f6d397" d="M20 53H34V56H20z"></path><path fill="#f9e3ae" d="M51.537,38h-7.074c-0.548,0-1.034,0.31-1.207,0.77l-2.125,5.635C41.044,44.633,41,44.873,41,45.115 v1.322C41,46.748,41.285,47,41.636,47h12.727C54.715,47,55,46.748,55,46.438v-1.322c0-0.242-0.044-0.482-0.13-0.712l-2.125-5.635 C52.572,38.31,52.085,38,51.537,38z"></path><path fill="#f6d397" d="M41 44H55V47H41z"></path><path fill="#f9e3ae" d="M37.537,38h-7.074c-0.548,0-1.034,0.31-1.207,0.77l-2.125,5.635C27.044,44.633,27,44.873,27,45.115 v1.322C27,46.748,27.285,47,27.636,47h12.727C40.715,47,41,46.748,41,46.438v-1.322c0-0.242-0.044-0.482-0.13-0.712l-2.125-5.635 C38.572,38.31,38.085,38,37.537,38z"></path><path fill="#f6d397" d="M27 44H41V47H27z"></path><path fill="#8d6c9f" d="M62.805,53.05l-2.125-5.634C60.361,46.569,59.5,46,58.537,46H56v-0.885 c0-0.363-0.065-0.722-0.195-1.065l-2.125-5.634C53.361,37.569,52.5,37,51.537,37H49v-0.885c0-0.363-0.065-0.722-0.195-1.065 l-2.125-5.634C46.361,28.569,45.5,28,44.537,28H40V11.816c1.161-0.414,2-1.514,2-2.816c0-1.654-1.346-3-3-3H4C2.346,6,1,7.346,1,9 c0,1.302,0.839,2.402,2,2.816v16.369C1.839,28.598,1,29.698,1,31s0.839,2.402,2,2.816v17.369C1.839,51.598,1,52.698,1,54 c0,1.654,1.346,3,3,3h57.364C62.266,57,63,56.299,63,55.438v-1.322C63,53.752,62.935,53.394,62.805,53.05z M51.809,39.122 l2.125,5.634C53.978,44.873,54,44.993,54,45.115V46h-2.537h-6.926H42v-0.885c0-0.122,0.022-0.241,0.066-0.358l2.125-5.635 C44.207,39.081,44.306,39,44.463,39h2.901h4.173C51.695,39,51.793,39.081,51.809,39.122z M48,50.916L46.901,48h2.2L48,50.916z M34,50.916L32.901,48h2.2L34,50.916z M30.537,46H28v-0.885c0-0.122,0.022-0.241,0.066-0.358l2.125-5.635 C30.207,39.081,30.306,39,30.463,39h4.173h2.901c0.158,0,0.256,0.081,0.272,0.122l2.125,5.634C39.978,44.873,40,44.993,40,45.115V46 h-2.537H30.537z M23.463,46c-0.962,0-1.823,0.569-2.143,1.417L19.969,51H5V34h10.08c0.488,3.387,3.401,6,6.92,6s6.432-2.613,6.92-6 h4.672l-0.396,1.049C33.066,35.391,33,35.75,33,36.115V37h-2.537c-0.962,0-1.823,0.569-2.143,1.417l-2.124,5.632 C26.066,44.391,26,44.75,26,45.115V46H23.463z M34.346,32H28.9c-0.11-0.64-0.315-1.313-0.585-2H35.1L34.346,32z M27,33 c0,2.757-2.243,5-5,5s-5-2.243-5-5c0-2.578,3.125-7.059,5-9.424C23.875,25.939,27,30.418,27,33z M41,41.916L39.901,39h2.2L41,41.916 z M44.809,30.122l2.125,5.634C46.978,35.873,47,35.993,47,36.115V37h-2.537h-6.926H35v-0.885c0-0.122,0.022-0.241,0.066-0.358 l2.125-5.635C37.207,30.081,37.306,30,37.463,30H38h6.537C44.695,30,44.793,30.081,44.809,30.122z M37.463,28H27.382 c-1.708-3.19-4.208-6.167-4.623-6.651c-0.38-0.443-1.139-0.443-1.519,0c-0.415,0.484-2.915,3.461-4.623,6.651H5V12h33v16H37.463z M4,8h35c0.551,0,1,0.449,1,1s-0.449,1-1,1H4c-0.551,0-1-0.449-1-1S3.449,8,4,8z M4,30h11.684c-0.27,0.687-0.475,1.36-0.585,2H4 c-0.551,0-1-0.449-1-1S3.449,30,4,30z M3,54c0-0.551,0.449-1,1-1h15.215l-0.018,0.049C19.066,53.391,19,53.75,19,54.115V55H4 C3.449,55,3,54.551,3,54z M21,54.115c0-0.122,0.022-0.241,0.066-0.358l2.125-5.635C23.207,48.081,23.306,48,23.463,48h4.173h2.901 c0.158,0,0.256,0.081,0.272,0.122l2.125,5.634C32.978,53.873,33,53.993,33,54.115V55H21V54.115z M35,55v-0.885 c0-0.122,0.022-0.241,0.066-0.358l2.125-5.635C37.207,48.081,37.306,48,37.463,48h2.901h1.272h2.901 c0.158,0,0.256,0.081,0.272,0.122l2.125,5.634C46.978,53.873,47,53.993,47,54.115V55h-8H35z M61,55H49v-0.885 c0-0.122,0.022-0.241,0.066-0.358l2.125-5.635C51.207,48.081,51.306,48,51.463,48h2.901h4.173c0.158,0,0.256,0.081,0.272,0.122 l2.125,5.634C60.978,53.873,61,53.993,61,54.115V55z"></path></svg>