<svg xmlns="http://www.w3.org/2000/svg" width="48" height="48" viewBox="0 0 48 48"><path fill="#1e88e5" d="M34,17c0,5.523-4.478,3.002-10,3.002c-5.523,0-10,2.521-10-3.002S24,7,24,7S34,11.477,34,17z"></path><path fill="#90caf9" d="M5 27H43V42H5z"></path><path fill="#bbdefb" d="M15 20H33V42H15z"></path><path fill="#42a5f5" d="M18,32c0-3.313,6-6,6-6s6,2.688,6,6s-2.687,6-6,6S18,35.313,18,32z"></path><path fill="#42a5f5" d="M18 32H30V42H18z"></path><path fill="#0d47a1" d="M21,35c0-1.656,3-3,3-3s3,1.344,3,3c0,1.656-1.344,3-3,3C22.343,38,21,36.656,21,35z"></path><path fill="#0d47a1" d="M21 35H27V42H21zM35 35c0-1.656 3-3 3-3s3 1.344 3 3c0 1.656-1.344 3-3 3C36.343 38 35 36.656 35 35z"></path><path fill="#0d47a1" d="M35 35H41V42H35zM7 35c0-1.656 3-3 3-3s3 1.344 3 3c0 1.656-1.344 3-3 3C8.343 38 7 36.656 7 35z"></path><path fill="#0d47a1" d="M7 35H13V42H7z"></path><path fill="#1e88e5" d="M6 9.002C6 7.344 9 6 9 6s3 1.344 3 3.002c0 1.656-1.344 3-3 3C7.343 12.002 6 10.658 6 9.002zM36 9.002C36 7.344 39 6 39 6s3 1.344 3 3.002c0 1.656-1.344 3-3 3C37.343 12.002 36 10.658 36 9.002z"></path><path fill="#bbdefb" d="M7 11H11V27H7zM37 11H41V27H37z"></path><path fill="#90caf9" d="M42 13v-1c0-.551-.448-1-1-1h-4c-.553 0-1 .449-1 1v1H42zM12 13.002v-1c0-.553-.448-1-1-1H7c-.553 0-1 .447-1 1v1H12z"></path><path fill="#0d47a1" d="M17 22H19V24H17zM21 22H23V24H21zM25 22H27V24H25zM29 22H31V24H29z"></path></svg>