<svg xmlns="http://www.w3.org/2000/svg" width="64" height="64" data-name="Layer 1" viewBox="0 0 64 64"><path fill="#efd8be" d="M55,33H17a2,2,0,0,1-2-2V7H14a1,1,0,0,1-1-1V2a1,1,0,0,1,1-1H58a1,1,0,0,1,1,1V6a1,1,0,0,1-1,1H57V31A2,2,0,0,1,55,33Z"></path><rect width="4" height="14" x="34" y="5.94" fill="#cda1a7" rx="2" ry="2" transform="rotate(-90 36 12.94)"></rect><path fill="#cda1a7" d="M15 7H57V11H15zM19 28H53a4 4 0 0 1 4 4v1a0 0 0 0 1 0 0H15a0 0 0 0 1 0 0V32A4 4 0 0 1 19 28z"></path><path fill="#faefde" d="M14,1H58a1,1,0,0,1,1,1V2a5,5,0,0,1-5,5H18a5,5,0,0,1-5-5V2a1,1,0,0,1,1-1Z"></path><path fill="#8d6c9f" d="M58,0H14a2,2,0,0,0-2,2V6a2,2,0,0,0,2,2V31a3,3,0,0,0,3,3H55a3,3,0,0,0,3-3V8a2,2,0,0,0,2-2V2A2,2,0,0,0,58,0Zm0,6H55a1,1,0,0,0,0,2h1V26a1,1,0,0,0-1,1v2a1,1,0,0,0,1,1v1a1,1,0,0,1-1,1H17a1,1,0,0,1-1-1V30a1,1,0,0,0,1-1V27a1,1,0,0,0-1-1V8H43a1,1,0,0,0,0-2H14V2H58Z"></path><path fill="#8d6c9f" d="M21 26a1 1 0 0 0-1 1v2a1 1 0 0 0 2 0V27A1 1 0 0 0 21 26zM26 26a1 1 0 0 0-1 1v2a1 1 0 0 0 2 0V27A1 1 0 0 0 26 26zM31 26a1 1 0 0 0-1 1v2a1 1 0 0 0 2 0V27A1 1 0 0 0 31 26zM36 26a1 1 0 0 0-1 1v2a1 1 0 0 0 2 0V27A1 1 0 0 0 36 26zM41 26a1 1 0 0 0-1 1v2a1 1 0 0 0 2 0V27A1 1 0 0 0 41 26zM46 30a1 1 0 0 0 1-1V27a1 1 0 0 0-2 0v2A1 1 0 0 0 46 30zM51 26a1 1 0 0 0-1 1v2a1 1 0 0 0 2 0V27A1 1 0 0 0 51 26zM47 8h4a1 1 0 0 0 0-2H47a1 1 0 0 0 0 2zM41 10H31a3 3 0 0 0 0 6H41a3 3 0 0 0 0-6zm0 4H31a1 1 0 0 1 0-2H41a1 1 0 0 1 0 2z"></path><path fill="#faefde" d="M27,50l5,2a10,10,0,0,0,7.81-.16l2.95-1.33A2,2,0,0,0,44,48.71V48.3a4,4,0,0,0-4.29-4l-2.19.16a6,6,0,0,1-3-.56L25,39.41a12,12,0,0,0-6.26-1.09L2.81,39.83a2,2,0,0,0-1.81,2V56.59a2,2,0,0,0,2.37,2l11.28-2.11a8,8,0,0,1,4.58.49l13.32,5.61a8,8,0,0,0,6.79-.27L61,51a3.68,3.68,0,0,0,2-3.27h0a3.68,3.68,0,0,0-4.6-3.56L44,47.93"></path><path fill="#fff7f0" d="M59.33,44.07a3.71,3.71,0,0,0-.93.12L44,47.93h0a4,4,0,0,0-4.27-3.62l-2.19.16a6,6,0,0,1-3-.56L25,39.41a12,12,0,0,0-6.26-1.1L2.81,39.83a2,2,0,0,0-1.81,2V44l17.73-1.69A12,12,0,0,1,25,43.41l9.54,4.5a6,6,0,0,0,3,.56l2.19-.16a3.69,3.69,0,0,1,.88,0,3.89,3.89,0,0,1,2.78,1.81v0a2.57,2.57,0,0,0,2.81,1.19L62.92,47A3.67,3.67,0,0,0,59.33,44.07Z"></path><path fill="#efd8be" d="M48.47,57.53a3.41,3.41,0,0,0-4.66-1.58l-4.48,2.32a8,8,0,0,1-6.79.27L19.23,52.93a8,8,0,0,0-4.58-.49L3.37,54.56a2,2,0,0,1-2.37-2v4a2,2,0,0,0,2.37,2l11.28-2.12a8,8,0,0,1,4.58.49l13.31,5.61a8,8,0,0,0,6.79-.27l9.14-4.74Z"></path><path fill="#8d6c9f" d="M62.18,44.05a4.65,4.65,0,0,0-4-.83L44.74,46.7a5,5,0,0,0-5.1-3.39l-2.19.16A5,5,0,0,1,35,43l-9.54-4.5a13,13,0,0,0-6.78-1.19L2.72,38.83a3,3,0,0,0-2.72,3V56.59a3,3,0,0,0,3.55,2.95l11.28-2.11a7,7,0,0,1,4,.43l13.31,5.61a9,9,0,0,0,7.64-.3L61.47,51.92a4.69,4.69,0,0,0,.71-7.86Zm-59,13.52a1,1,0,0,1-1.18-1V41.82a1,1,0,0,1,.91-1l3.3-.31V57Zm57.37-7.43L38.87,61.39a7,7,0,0,1-5.94.24L19.62,56a9,9,0,0,0-5.15-.55L8.21,56.63V40.32l10.62-1a11,11,0,0,1,5.74,1l9.54,4.5a7.06,7.06,0,0,0,3.49.65l2.19-.16a3,3,0,0,1,3.22,3v.41a1,1,0,0,1-.59.91l-3,1.33a9.05,9.05,0,0,1-7,.15l-5-2a1,1,0,1,0-.74,1.86l5,2a11.05,11.05,0,0,0,8.6-.18l3-1.33A3,3,0,0,0,45,48.71l13.65-3.54a2.68,2.68,0,0,1,1.91,5Z"></path></svg>