<svg xmlns="http://www.w3.org/2000/svg" width="80" height="80" viewBox="0 0 80 80"><path fill="#a6714e" d="M48.5 77.5L48.5 76.3 54.5 72.3 54.5 36.5 61.5 36.5 61.5 72.3 67.5 76.3 67.5 77.5z"></path><path fill="#7a4f34" d="M61,37v35v0.5l0.4,0.3l5.6,3.7V77H49v-0.5l5.6-3.7l0.4-0.3V72V37H61 M62,36h-8v36l-6,4v2h20v-2l-6-4 V36L62,36z"></path><path fill="#967a44" d="M29 78c-.4 0-.7-.2-.9-.6l-4-8c-.2-.5 0-1.1.4-1.3.5-.2 1.1 0 1.3.4l4 8c.2.5 0 1.1-.4 1.3C29.3 78 29.2 78 29 78zM5 78c-.1 0-.3 0-.4-.1-.5-.2-.7-.8-.4-1.3l4-8c.2-.5.8-.7 1.3-.4.5.2.7.8.4 1.3l-4 8C5.7 77.8 5.4 78 5 78z"></path><path fill="#bae0bd" d="M51.5,67.5c-7.7,0-13.6-2-15.2-2.6l5-12.8l-0.8,0.1c-1.6,0.2-3.2,0.2-4.8,0.2c-0.9,0-1.6,0-2.1-0.1 L37,35.3l-0.8,0.3c-1.6,0.6-2.9,1-3.6,1.2l-2-15.4l-0.6,0.4c-0.5,0.3-1,0.5-1.3,0.6L20.8,2.7L41,7.6c-0.2,0.8-0.7,2.6-1.8,4.7 l-0.3,0.5L54.5,19c-0.4,0.8-1.3,2.8-3,5.1l-0.3,0.4l20,12.7c-0.8,0.8-2.6,2.8-5.5,5l-0.4,0.3l12.2,13.7 c-0.8,1.5-5.3,8.8-19.6,10.8C55.8,67.3,53.6,67.5,51.5,67.5L51.5,67.5z"></path><path fill="#5e9c76" d="M21.6,3.4l18.7,4.5c-0.3,0.9-0.8,2.4-1.7,4.1l-0.5,1l1,0.4l14.6,5.9c-0.5,1-1.4,2.6-2.7,4.5 l-0.6,0.9l0.9,0.6l19.1,12.1c-0.9,1-2.6,2.6-5.1,4.5l-0.8,0.7l0.7,0.8l11.6,13c-1.1,1.9-5.7,8.3-19,10.3c-2,0.3-4.1,0.4-6.2,0.4 c-7,0-12.5-1.6-14.6-2.4l4.5-11.5l0.6-1.5l-1.6,0.2c-1.6,0.2-3.2,0.2-4.7,0.2c-0.6,0-1.1,0-1.5,0l3.1-15.7l0.3-1.8l-1.7,0.6 c-1.2,0.5-2.3,0.8-3,1L31.1,22l-0.2-1.5l-1.3,0.7c-0.3,0.2-0.5,0.3-0.7,0.4L21.6,3.4 M20,2l8.4,21c0,0,0.7-0.3,1.8-0.9l2,15.2 c0,0,1.7-0.4,4.2-1.3L33,52.9c0,0,1,0.1,2.7,0.1c1.3,0,2.9-0.1,4.8-0.2l-4.9,12.5c0,0,6.6,2.8,15.9,2.8c2,0,4.2-0.1,6.4-0.5 C74.2,65.2,78,56.1,78,56.1L66,42.6c3.9-3,6-5.5,6-5.5L51.9,24.4c2.3-3.2,3.3-5.7,3.3-5.7l-15.6-6.3c1.6-3,2-5.3,2-5.3L20,2L20,2z"></path><g><path fill="#f5ce85" d="M2.5 66.5H31.5V71.5H2.5z"></path><path fill="#967a44" d="M31,67v4H3v-4H31 M32,66H2v6h30V66L32,66z"></path></g></svg>