<svg xmlns="http://www.w3.org/2000/svg" width="80" height="80" viewBox="0 0 80 80"><path fill="#735f63" d="M16.5 4.5H63.5V75.5H16.5z"></path><path fill="#4d3e40" d="M63,5v70H17V5H63 M64,4H16v72h48V4L64,4z"></path><path fill="#4f4144" d="M40 5H50V75H40z"></path><path fill="#ffc49c" d="M35.7 79.5L16.5 75.6 16.5 4.4 35.8 0.5 39.5 0.5 39.5 79.5z"></path><path fill="#a16a4a" d="M39,1v78h-3.2L17,75.2V4.8L35.8,1H39 M40,0h-4.3L16,4v72l19.7,4H40V0L40,0z"></path><path fill="#ffd7bd" d="M36 1H39V79H36z"></path><path fill="#a16a4a" d="M33 38A1 2 0 1 0 33 42A1 2 0 1 0 33 38Z"></path><g><path fill="#f78f8f" d="M74.5 56.1l-1.8-.8c4.5-9.7 4.5-20.8 0-30.5l1.8-.8C79.2 34.1 79.2 45.9 74.5 56.1zM5.5 56.1c-4.8-10.2-4.8-21.9 0-32.1l1.8.8c-4.5 9.7-4.5 20.8 0 30.5L5.5 56.1z"></path></g><g><path fill="#f78f8f" d="M69 53.5l-1.8-.8c3.8-8.1 3.8-17.3 0-25.4l1.8-.8C73 35.1 73 44.9 69 53.5zM11 53.5c-4-8.6-4-18.5 0-27.1l1.8.8C9 35.4 9 44.6 12.8 52.7L11 53.5z"></path></g></svg>