<svg xmlns="http://www.w3.org/2000/svg" width="48" height="48" viewBox="0 0 48 48"><path fill="#DD2C00" d="M25.2,30.4L48,25.8l-0.4-2L0,33.5l0.4,2l22.2-4.5l-3.5,9.7c-0.1,0.3-0.1,0.6,0.1,0.9c0.2,0.3,0.5,0.4,0.8,0.4h8c0.3,0,0.6-0.2,0.8-0.4c0.2-0.3,0.2-0.6,0.1-0.9L25.2,30.4z M22.5,37l1.5-4.1l1.5,4.1H22.5z"></path><path fill="#FFB74D" d="M38.5,9c1.9,0,3.5,1.6,3.5,3.5S40.4,16,38.5,16c-1.9,0-3.5-1.6-3.5-3.5S36.6,9,38.5,9 M5.5,16C3.6,16,2,17.6,2,19.5S3.6,23,5.5,23C7.4,23,9,21.4,9,19.5S7.4,16,5.5,16"></path><path fill="#2196F3" d="M43.4,25.8c-0.1,0.4-0.5,0.8-0.9,0.9l-3.4,1.2l1.2,2.5c0.4,0.7,0.1,1.6-0.7,2c-0.2,0.1-0.4,0.2-0.7,0.2c-0.5,0-1.1-0.3-1.3-0.8l-2-4c-0.2-0.4-0.2-0.8,0-1.2s0.5-0.7,0.9-0.9l1.7-0.6c0-0.1-0.1-0.2-0.1-0.3l-1-4c-0.4-1.6,0.6-3.2,2.2-3.6c1.6-0.4,3.2,0.6,3.6,2.2l1,4C44.1,24.2,43.9,25.1,43.4,25.8z M12.6,29.6l-1.7,0.5l-0.9-3.8c-0.4-1.6-2-2.6-3.6-2.2c-1.6,0.4-2.6,2-2.2,3.6l1,4C5.4,33.1,6.7,34,8,34c0.2,0,0.5,0,0.7-0.1c0.3-0.1,0.5-0.2,0.7-0.3l1.6-0.5l-0.5,2.6c-0.2,0.8,0.4,1.6,1.2,1.8c0.1,0,0.2,0,0.3,0c0.7,0,1.3-0.5,1.5-1.2l1-5c0.1-0.5-0.1-1-0.5-1.4C13.6,29.5,13.1,29.4,12.6,29.6z"></path><path fill="#FF3D00" d="M24 26A3 3 0 1 0 24 32A3 3 0 1 0 24 26Z"></path></svg>