<svg xmlns="http://www.w3.org/2000/svg" data-name="Layer 1" width="64" height="64" viewBox="0 0 64 64"><path fill="#ffefb8" d="M27,55V4a2,2,0,0,1,2-2h0a2,2,0,0,1,2,2V55"></path><path fill="#f6d397" d="M39,59H19l1.8-2.4A4,4,0,0,1,24,55H34a4,4,0,0,1,3.2,1.6Z"></path><path fill="#c2cde7" d="M43,63H15a2,2,0,0,1-2-2h0a2,2,0,0,1,2-2H43a2,2,0,0,1,2,2h0A2,2,0,0,1,43,63Z"></path><path fill="#f9e3ae" d="M8,43H47a2,2,0,0,0,2-2V29a2,2,0,0,0-2-2H8a2,2,0,0,0-1.6.8l-4.5,6a2,2,0,0,0,0,2.4l4.5,6A2,2,0,0,0,8,43Z"></path><path fill="#f6d397" d="M1.5,35a2,2,0,0,0,.4,1.2l4.5,6A2,2,0,0,0,8,43H47a2,2,0,0,0,2-2V35Z"></path><path fill="#81d6bb" d="M54,23H15a2,2,0,0,1-2-2V9a2,2,0,0,1,2-2H54a2,2,0,0,1,1.6.8l4.5,6a2,2,0,0,1,0,2.4l-4.5,6A2,2,0,0,1,54,23Z"></path><path fill="#72caaf" d="M60,15a2,2,0,0,1-.4,1.2l-4.5,6a2,2,0,0,1-1.6.8h-39a2,2,0,0,1-2-2V15Z"></path><path fill="#8d6c9f" d="M60.9,13.2l-4.5-6A3,3,0,0,0,54,6H32V4a3,3,0,0,0-6,0V6H15a3,3,0,0,0-3,3V21a3,3,0,0,0,3,3H26v2H8a3,3,0,0,0-2.4,1.2l-4.5,6a3,3,0,0,0,0,3.6l4.5,6A3,3,0,0,0,8,44H26V54H24a5,5,0,0,0-4,2l-1.5,2H15a3,3,0,0,0,0,6H43a3,3,0,0,0,0-6H39.5L38,56a5,5,0,0,0-4-2H32V44H47a3,3,0,0,0,3-3V29a3,3,0,0,0-3-3H32V24H54a3,3,0,0,0,2.4-1.2l4.5-6A3,3,0,0,0,60.9,13.2ZM28,4a1,1,0,0,1,2,0V6H28ZM43,60a1,1,0,0,1,0,2H15a1,1,0,0,1,0-2H43Zm-6.6-2.8.6.8H21l.6-.8A3,3,0,0,1,24,56H34A3,3,0,0,1,36.4,57.2ZM30,54H28V44h2ZM48,29V41a1,1,0,0,1-1,1H8a1,1,0,0,1-.8-.4l-4.5-6a1,1,0,0,1,0-1.2l4.5-6A1,1,0,0,1,8,28H47A1,1,0,0,1,48,29ZM30,26H28V24h2ZM59.3,15.6l-4.5,6a1,1,0,0,1-.8.4H15a1,1,0,0,1-1-1V9a1,1,0,0,1,1-1H54a1,1,0,0,1,.8.4l4.5,6A1,1,0,0,1,59.3,15.6Z"></path><path fill="#8d6c9f" d="M53 10H49a1 1 0 0 0 0 2h4a1 1 0 0 0 0-2zM45 10H17a1 1 0 0 0 0 2H45a1 1 0 0 0 0-2zM39 37a1 1 0 0 0 1-1V34a1 1 0 0 0-2 0v2A1 1 0 0 0 39 37zM44 37a1 1 0 0 0 1-1V34a1 1 0 0 0-2 0v2A1 1 0 0 0 44 37zM34 37a1 1 0 0 0 1-1V34a1 1 0 0 0-2 0v2A1 1 0 0 0 34 37zM29 37a1 1 0 0 0 1-1V34a1 1 0 0 0-2 0v2A1 1 0 0 0 29 37zM24 37a1 1 0 0 0 1-1V34a1 1 0 0 0-2 0v2A1 1 0 0 0 24 37zM19 37a1 1 0 0 0 1-1V34a1 1 0 0 0-2 0v2A1 1 0 0 0 19 37zM14 37a1 1 0 0 0 1-1V34a1 1 0 0 0-2 0v2A1 1 0 0 0 14 37zM8 36a1 1 0 0 0 2 0V34a1 1 0 0 0-2 0z"></path></svg>