<svg xmlns="http://www.w3.org/2000/svg" width="48" height="48" viewBox="0 0 48 48"><path fill="#ffb74d" d="M14.5,4C16.4,4,18,5.6,18,7.5S16.4,11,14.5,11S11,9.4,11,7.5S12.6,4,14.5,4"></path><path fill="#f9a825" d="M13,43c-1.1,0-2-0.9-2-2v-6.8L9.1,25c-0.3-1.1,0.4-2.2,1.5-2.4c1.1-0.3,3.2,0.4,3.5,1.4l0.9,9.5 c0,0.2,0.1,0.3,0.1,0.5v7C15,42.1,14.1,43,13,43z"></path><path fill="#ffb74d" d="M20,39c-1,0-1.8-0.7-2-1.7l-0.9-6L11,27.7c-1-0.6-1.3-1.8-0.7-2.7c0.5-1,1.8-2.6,2.7-2.3l7,5.3 c0.5,0.6,0.9,1.1,1,1.7l1,7c0.2,1.1-0.6,2.1-1.7,2.3C20.2,39,20.1,39,20,39z"></path><path fill="#b0bec5" d="M31.6 43.9L24.8 41 20 41 20 39 25.2 39 32.4 42.1z"></path><path fill="#b0bec5" d="M12,43h20v2H12V43z"></path><path fill="#455a64" d="M15 45H9v-2h6c.4 0 1-.2 1-1h2C18 44.2 16.2 45 15 45zM22 41h-6v-2h6c.4 0 1-.2 1-1h2C25 40.2 23.2 41 22 41zM25 43c0 2 2 2 2 2 1.5 0 5.2 0 6.5 0 3 0 5.5-2.5 5.5-5.5 0-3-2.5-5.5-5.5-5.5S25 38 25 43z"></path><path fill="#b0bec5" d="M36,39.5c0,1.4-1.1,2.5-2.5,2.5S31,40.9,31,39.5c0-1.4,1.1-2.5,2.5-2.5S36,38.1,36,39.5z"></path><path fill="#b0bec5" d="M35,41c-0.1,0-0.2,0-0.2,0c-0.5-0.1-0.9-0.7-0.7-1.2c0-0.1,2.2-8.9-2.8-15.1 C27.6,20,27.1,17.7,27,11c0-0.6,0.4-1,1-1c0,0,0,0,0,0c0.5,0,1,0.4,1,1c0,6.3,0.4,8.2,3.8,12.4c5.6,7,3.3,16.5,3.2,16.9 C35.9,40.7,35.4,41,35,41z"></path><path fill="#455a64" d="M29,15c0,0.6-0.4,1-1,1s-1-0.4-1-1v-5c0-0.6,0.4-1,1-1s1,0.4,1,1V15z"></path><path fill="#ffb74d" d="M21,19c-0.1,0-0.3,0-0.4-0.1L13.5,17c-0.8-0.2-1.2-1.6-1-2.4c0.2-0.8,1.5-1.6,2.3-1.4l6.2,2.7 l6.6-2.4c0.8-0.2,1.6,0.2,1.9,1c0.2,0.8-0.2,1.6-1,1.9l-7,2.5C21.3,19,21.1,19,21,19z"></path><path fill="#5c6bc0" d="M10.7,33h4.2L14,24c-0.3-1.1-2.4-1.7-3.5-1.4c-1.1,0.3-1.7,1.4-1.5,2.4L10.7,33z"></path><path fill="#ff754c" d="M21,15.9c0,0-6.1-2.9-7-2.9c-1.9,0-3.7,1.2-3.9,3.1l-1.1,8c-0.2,1.9,1.2,3.7,3.1,3.9 c0.1,0,0.3,0,0.4,0c1.8,0,3.2,0.2,3.4-1.8L17,18l3.6,0.9c0.1,0,0.3,0.1,0.4,0.1S21,15.9,21,15.9z"></path><path fill="#7e8ccf" d="M9.2,23L9,24.1c-0.2,1.4,0.5,2.6,1.6,3.3c0.1,0.1,0.2,0.2,0.4,0.3l6.1,3.5L20,28l-4-3L9.2,23z"></path><path fill="#e64a19" d="M16,25l1-7l-2-0.6l-0.9,7.1L16,25z"></path></svg>