<svg xmlns="http://www.w3.org/2000/svg" width="30" height="30" viewBox="0 0 30 30">    <path d="M 22.5 8 A 3.5 3.5 0 0 0 19 11.5 A 3.5 3.5 0 0 0 22.5 15 A 3.5 3.5 0 0 0 26 11.5 A 3.5 3.5 0 0 0 22.5 8 z M 11.017578 9 A 1.0001 1.0001 0 0 0 10.552734 9.1054688 L 4.5527344 12.105469 A 1.0001161 1.0001161 0 0 0 5.3496094 13.935547 L 5.3378906 13.945312 L 10.496094 12.40625 L 12.677734 15.853516 L 7.1992188 18.988281 C 8.1862187 18.932281 9.302875 18.490547 9.671875 18.310547 C 10.511875 17.901547 11.505797 17.898406 12.341797 18.316406 C 12.722797 18.501406 13.97 19 15 19 C 16.03 19 17.277875 18.502547 17.671875 18.310547 C 18.512875 17.901547 19.506797 17.898406 20.341797 18.316406 L 17.052734 14.998047 L 11.730469 9.3164062 A 1.0001 1.0001 0 0 0 11.017578 9 z M 2.9648438 19.994141 A 1.0001 1.0001 0 0 0 2.5527344 21.894531 C 2.5527344 21.894531 4.6666667 23 7 23 C 8.9465696 23 10.458804 22.333203 11 22.078125 C 11.541196 22.333203 13.05343 23 15 23 C 16.94657 23 18.458804 22.333203 19 22.078125 C 19.541196 22.333203 21.05343 23 23 23 C 25.333333 23 27.447266 21.894531 27.447266 21.894531 A 1.0001163 1.0001163 0 1 0 26.552734 20.105469 C 26.552734 20.105469 24.666667 21 23 21 C 21.333333 21 19.447266 20.105469 19.447266 20.105469 A 1.0001 1.0001 0 0 0 18.552734 20.105469 C 18.552734 20.105469 16.666667 21 15 21 C 13.333333 21 11.447266 20.105469 11.447266 20.105469 A 1.0001 1.0001 0 0 0 10.552734 20.105469 C 10.552734 20.105469 8.6666667 21 7 21 C 5.3333333 21 3.4472656 20.105469 3.4472656 20.105469 A 1.0001 1.0001 0 0 0 2.9648438 19.994141 z"></path></svg>