<svg xmlns="http://www.w3.org/2000/svg" width="64" height="64" viewBox="0 0 64 64"><path fill="#85cbf8" d="M57,13v38c0,3.31-2.69,6-6,6H13c-3.31,0-6-2.69-6-6V13c0-0.34,0.03-0.68,0.09-1 C7.56,9.16,10.03,7,13,7h38c2.97,0,5.44,2.16,5.91,5C56.97,12.32,57,12.66,57,13z"></path><path fill="#ace3ff" d="M56.91,12H7.09C7.56,9.16,10.03,7,13,7h38C53.97,7,56.44,9.16,56.91,12z"></path><path fill="#f9e3ae" d="M44 23L31.59 39 41.08 39 21.18 50.47 20 39 24.93 39 29.25 31.96 31.06 29 19 29 32 7 44 7 42.11 9.5 31.94 23z"></path><path fill="#faefde" d="M42.11,9.5L31.94,23h0c1.735,0,2.771,1.934,1.808,3.378L32,29H19L32,7h11.46L42.11,9.5z"></path><path fill="#8d6c9f" d="M51,6h-7H32H13c-3.86,0-7,3.14-7,7v38c0,3.86,3.14,7,7,7h38c3.86,0,7-3.14,7-7V13 C58,9.14,54.86,6,51,6z M41.994,8L31.143,22.398c-0.229,0.303-0.266,0.709-0.097,1.048C31.215,23.786,31.562,24,31.941,24h10.018 L30.796,38.387c-0.234,0.301-0.276,0.71-0.108,1.053S31.204,40,31.586,40h5.76l-15.331,8.837L21.108,40h3.82 c0.348,0,0.671-0.181,0.853-0.478l6.131-10c0.189-0.309,0.197-0.695,0.02-1.011C31.754,28.196,31.42,28,31.059,28H20.752L32.571,8 H41.994z M56,51c0,2.757-2.243,5-5,5H13c-2.757,0-5-2.243-5-5V14c0.552,0,1-0.448,1-1v-2c0-0.24-0.096-0.452-0.237-0.624 C9.646,8.956,11.208,8,13,8h17.248l-1.442,2.44C28.625,10.18,28.34,10,28,10c-0.552,0-1,0.448-1,1v2 c0,0.131,0.029,0.255,0.075,0.37l-8.935,15.122c-0.183,0.309-0.186,0.692-0.008,1.004C18.31,29.808,18.641,30,19,30h10.272 l-4.905,8H20c-0.283,0-0.553,0.12-0.742,0.33c-0.19,0.21-0.281,0.491-0.252,0.772l1.178,11.474 c0.035,0.337,0.237,0.634,0.539,0.788c0.144,0.073,0.299,0.11,0.456,0.11c0.173,0,0.345-0.045,0.5-0.134l19.906-11.474 c0.392-0.226,0.583-0.688,0.466-1.125C41.933,38.304,41.536,38,41.083,38h-7.456L44.79,23.613c0.234-0.301,0.276-0.71,0.108-1.053 S44.382,22,44,22H33.947l6.301-8.36C40.431,13.856,40.695,14,41,14c0.552,0,1-0.448,1-1v-1.685L44.498,8H51 c1.792,0,3.354,0.956,4.237,2.376C55.096,10.548,55,10.76,55,11v2c0,0.552,0.448,1,1,1V51z"></path><path fill="#8d6c9f" d="M13 10c-.552 0-1 .448-1 1v2c0 .552.448 1 1 1s1-.448 1-1v-2C14 10.448 13.552 10 13 10zM46 10c-.552 0-1 .448-1 1v2c0 .552.448 1 1 1s1-.448 1-1v-2C47 10.448 46.552 10 46 10zM51 10c-.552 0-1 .448-1 1v2c0 .552.448 1 1 1s1-.448 1-1v-2C52 10.448 51.552 10 51 10zM19 13v-2c0-.552-.448-1-1-1s-1 .448-1 1v2c0 .552.448 1 1 1S19 13.552 19 13zM23 14c.552 0 1-.448 1-1v-2c0-.552-.448-1-1-1s-1 .448-1 1v2C22 13.552 22.448 14 23 14z"></path></svg>