<svg xmlns="http://www.w3.org/2000/svg" width="80" height="80" viewBox="0 0 80 80"><path fill="#dbf2ff" d="M4.5 14.5H75.5V77.5H4.5z"></path><path fill="#7496c4" d="M75,15v62H5V15H75 M76,14H4v64h72V14L76,14z"></path><path fill="#b5ddf5" d="M5 71H75V77H5z"></path><path fill="#ffc49c" d="M30.5 42.5H49.5V77.5H30.5z"></path><path fill="#a16a4a" d="M49,43v34H31V43H49 M50,42H30v36h20V42L50,42z"></path><path fill="#f78f8f" d="M56.49 33.5L40 17.299 23.51 33.5 2.5 33.5 2.5 2.5 77.5 2.5 77.5 33.5z"></path><path fill="#c74343" d="M77,3v30H56.695L40.701,17.287L40,16.598l-0.701,0.689L23.305,33H3V3H77 M78,2H2v32h21.714L40,18 l16.286,16H78V2L78,2z"></path><g><path fill="#8bb7f0" d="M56.5 42.5H67.5V59.5H56.5z"></path><path fill="#4e7ab5" d="M67,43v16H57V43H67 M68,42H56v18h12V42L68,42z"></path></g><g><path fill="#8bb7f0" d="M12.5 42.5H23.5V59.5H12.5z"></path><path fill="#4e7ab5" d="M23,43v16H13V43H23 M24,42H12v18h12V42L24,42z"></path></g><path fill="#a16a4a" d="M46 60A1 1 0 1 0 46 62A1 1 0 1 0 46 60Z"></path></svg>