<?xml version="1.0" standalone="no"?>
<!DOCTYPE svg PUBLIC "-//W3C//DTD SVG 1.1//EN" "http://www.w3.org/Graphics/SVG/1.1/DTD/svg11.dtd" >
<svg xmlns="http://www.w3.org/2000/svg">
<metadata>
<json>
<![CDATA[
{
	"fontFamily": "marker-icon",
	"majorVersion": 1,
	"minorVersion": 0,
	"version": "Version 1.0",
	"fontId": "marker-icon",
	"psName": "marker-icon",
	"subFamily": "Regular",
	"fullName": "marker-icon",
	"description": "Font generated by IcoMoon."
}
]]>
</json>
</metadata>
<defs>
<font id="marker-icon" horiz-adv-x="1024">
<font-face units-per-em="1024" ascent="960" descent="-64" />
<missing-glyph horiz-adv-x="1024" />
<glyph unicode="&#x20;" horiz-adv-x="512" d="" />
<glyph unicode="&#xe900;" horiz-adv-x="1536" d="M0 960h1536v-1024h-1536v1024z" />
<glyph unicode="&#xe901;" horiz-adv-x="1536" d="M992.051 386.97c35.226 45.875 56.525 103.219 56.525 165.683 0 150.528-122.061 272.589-272.589 272.589s-272.589-122.061-272.589-272.589c0-62.259 21.094-119.603 56.32-165.478l216.269-316.006 216.064 315.802z" />
<glyph unicode="&#xe902;" horiz-adv-x="1536" d="M986.317 552.653c0-116.122-94.208-210.125-210.33-210.125s-210.33 94.208-210.33 210.125c0 116.122 94.208 210.125 210.33 210.125s210.33-94.003 210.33-210.125z" />
<glyph unicode="&#xe903;" horiz-adv-x="1536" d="M678.093 698.266h197.018v-24.781h-197.018v24.781z" />
<glyph unicode="&#xe904;" horiz-adv-x="1536" d="M678.093 665.088v-256.205h89.498v37.069h21.504v-37.069h86.016v256.205h-197.018zM725.197 635.802h15.974v-25.395h-15.974v25.395zM725.197 600.371h15.974v-25.395h-15.974v25.395zM725.197 564.941h15.974v-25.395h-15.974v25.395zM725.197 529.306h15.974v-25.395h-15.974v25.395zM725.197 493.875h15.974v-25.395h-15.974v25.395zM699.392 635.802h15.974v-25.395h-15.974v25.395zM699.392 600.371h15.974v-25.395h-15.974v25.395zM699.392 564.941h15.974v-25.395h-15.974v25.395zM699.392 529.306h15.974v-25.395h-15.974v25.395zM699.392 493.875h15.974v-25.395h-15.974v25.395zM747.52 429.568h-35.226v9.011h35.226v-9.011zM765.338 468.685h-15.974v25.395h15.974v-25.395zM765.338 504.115h-15.974v25.395h15.974v-25.395zM765.338 539.546h-15.974v25.395h15.974v-25.395zM765.338 574.976h-15.974v25.395h15.974v-25.395zM765.338 610.406h-15.974v25.395h15.974v-25.395zM811.418 635.802h15.974v-25.395h-15.974v25.395zM811.418 600.371h15.974v-25.395h-15.974v25.395zM811.418 564.941h15.974v-25.395h-15.974v25.395zM811.418 529.306h15.974v-25.395h-15.974v25.395zM811.418 493.875h15.974v-25.395h-15.974v25.395zM801.997 468.685h-15.974v25.395h15.974v-25.395zM801.997 504.115h-15.974v25.395h15.974v-25.395zM801.997 539.546h-15.974v25.395h15.974v-25.395zM801.997 574.976h-15.974v25.395h15.974v-25.395zM801.997 610.406h-15.974v25.395h15.974v-25.395zM837.837 429.568h-35.021v9.011h35.226v-9.011zM853.811 468.685h-15.974v25.395h15.974v-25.395zM853.811 504.115h-15.974v25.395h15.974v-25.395zM853.811 539.546h-15.974v25.395h15.974v-25.395zM853.811 574.976h-15.974v25.395h15.974v-25.395zM853.811 610.406h-15.974v25.395h15.974v-25.395z" />
<glyph unicode="&#xe905;" horiz-adv-x="1536" d="M0 960h1536v-1024h-1536v1024z" />
<glyph unicode="&#xe906;" horiz-adv-x="1536" d="M992.051 386.97c35.226 45.875 56.525 103.219 56.525 165.683 0 150.528-122.061 272.589-272.589 272.589s-272.589-122.061-272.589-272.589c0-62.259 21.094-119.603 56.32-165.478l216.269-316.006 216.064 315.802z" />
<glyph unicode="&#xe907;" horiz-adv-x="1536" d="M986.317 552.653c0-116.122-94.208-210.125-210.33-210.125s-210.33 94.208-210.33 210.125c0 116.122 94.208 210.125 210.33 210.125s210.33-94.003 210.33-210.125z" />
<glyph unicode="&#xe908;" horiz-adv-x="1536" d="M729.293 713.421v-286.515h36.864v57.344h31.13v-57.344h39.526v286.515h-107.52zM763.699 529.715h-18.227v44.646h18.227v-44.646zM763.699 586.854h-18.227v44.646h18.227v-44.646zM763.699 642.15h-18.227v44.646h18.227v-44.646zM792.166 529.715h-18.227v44.646h18.227v-44.646zM792.166 586.854h-18.227v44.646h18.227v-44.646zM792.166 642.15h-18.227v44.646h18.227v-44.646zM820.838 529.715h-18.227v44.646h18.227v-44.646zM820.838 586.854h-18.227v44.646h18.227v-44.646zM820.838 642.15h-18.227v44.646h18.227v-44.646z" />
<glyph unicode="&#xe909;" horiz-adv-x="1536" d="M701.235 472.781v28.058h23.142v19.456h-23.142v28.058h23.142v21.914h-23.142v28.058h23.142v20.685h-23.142v27.648h23.142v18.432h-91.955v-223.232h91.955v31.13h-23.142zM678.502 472.781h-28.058v28.058h28.058v-28.058zM678.502 520.294h-28.058v28.058h28.058v-28.058zM678.502 570.061h-28.058v28.058h28.058v-28.058zM678.502 618.803h-28.058v27.853h28.058v-27.853z" />
<glyph unicode="&#xe90a;" horiz-adv-x="1536" d="M919.347 452.506v179.405h-75.366v-16.998h57.139v-9.83h-57.139v-16.998h57.139v-9.626h-57.139v-16.998h57.139v-8.192h-57.139v-16.998h57.139v-9.216h-57.139v-16.998h57.139v-15.77h-57.139v-56.115h87.45v14.336h-12.083zM887.808 453.325h-33.997v24.986h33.997v-24.986z" />
<glyph unicode="&#xe90b;" horiz-adv-x="1536" d="M0 960h1536v-1024h-1536v1024z" />
<glyph unicode="&#xe90c;" horiz-adv-x="1536" d="M992.051 386.97c35.226 45.875 56.525 103.219 56.525 165.683 0 150.528-122.061 272.589-272.589 272.589s-272.589-122.061-272.589-272.589c0-62.259 21.094-119.603 56.32-165.478l216.269-316.006 216.064 315.802z" />
<glyph unicode="&#xe90d;" horiz-adv-x="1536" d="M986.317 552.653c0-116.122-94.208-210.125-210.33-210.125s-210.33 94.208-210.33 210.125c0 116.122 94.208 210.125 210.33 210.125s210.33-94.003 210.33-210.125z" />
<glyph unicode="&#xe90e;" horiz-adv-x="1536" d="M849.715 698.675h37.069v-71.475h-37.069v71.475z" />
<glyph unicode="&#xe90f;" horiz-adv-x="1536" d="M763.211 692.434l13.704 17.88 167.426-128.317-13.704-17.88-167.426 128.317z" />
<glyph unicode="&#xe910;" horiz-adv-x="1536" d="M608.258 583.637l168.65 126.714 13.533-18.011-168.65-126.714-13.533 18.011z" />
<glyph unicode="&#xe911;" horiz-adv-x="1536" d="M775.782 659.968l-126.771-89.907v-139.059h40.755v111.821h54.886v-111.821h157.696v139.059l-126.566 89.907zM870.81 476.877h-84.787v65.946h84.787v-65.946z" />
<glyph unicode="&#xe912;" horiz-adv-x="1536" d="M0 960h1536v-1024h-1536v1024z" />
<glyph unicode="&#xe913;" horiz-adv-x="1536" d="M992.051 386.97c35.226 45.875 56.525 103.219 56.525 165.683 0 150.528-122.061 272.589-272.589 272.589s-272.589-122.061-272.589-272.589c0-62.259 21.094-119.603 56.32-165.478l216.269-316.006 216.064 315.802z" />
<glyph unicode="&#xe914;" horiz-adv-x="1536" d="M986.317 552.653c0-116.122-94.208-210.125-210.33-210.125s-210.33 94.208-210.33 210.125c0 116.122 94.208 210.125 210.33 210.125s210.33-94.003 210.33-210.125z" />
<glyph unicode="&#xe915;" horiz-adv-x="1536" d="M877.568 616.141l-8.192-10.035-99.942 72.294 8.397 10.24z" />
<glyph unicode="&#xe916;" horiz-adv-x="1536" d="M777.83 688.64l7.987-10.24-100.557-71.475-7.987 10.035z" />
<glyph unicode="&#xe917;" horiz-adv-x="1536" d="M852.173 545.894v60.416l-74.752 49.766-74.752-49.766v-55.91l-43.622-35.226v-75.162h97.69v58.163h43.418v-58.163h94.208v75.162l-42.189 30.72zM736.051 474.624h-49.562v23.347h49.562v-23.347zM766.976 563.712h-50.176v35.84h50.176v-35.84zM783.155 599.552h50.176v-35.84h-50.176v35.84zM873.062 474.624h-49.562v23.347h49.562v-23.347z" />
<glyph unicode="&#xe918;" horiz-adv-x="1536" d="M864.87 570.061v-16.589c0 0 49.766-38.707 50.995-37.683s7.782 11.469 7.782 11.469l-58.778 42.803z" />
<glyph unicode="&#xe919;" horiz-adv-x="1536" d="M689.971 570.061v-16.589c0 0-49.766-38.707-50.995-37.683s-7.782 11.469-7.782 11.469l58.778 42.803z" />
<glyph unicode="&#xe91a;" horiz-adv-x="1536" d="M0 960h1536v-1024h-1536v1024z" />
<glyph unicode="&#xe91b;" horiz-adv-x="1536" d="M992.051 386.97c35.226 45.875 56.525 103.219 56.525 165.683 0 150.528-122.061 272.589-272.589 272.589s-272.589-122.061-272.589-272.589c0-62.259 21.094-119.603 56.32-165.478l216.269-316.006 216.064 315.802z" />
<glyph unicode="&#xe91c;" horiz-adv-x="1536" d="M986.317 552.653c0-116.122-94.208-210.125-210.33-210.125s-210.33 94.208-210.33 210.125c0 116.122 94.208 210.125 210.33 210.125s210.33-94.003 210.33-210.125z" />
<glyph unicode="&#xe91d;" horiz-adv-x="1536" d="M889.037 624.947l-9.421-11.674-114.688 83.354 9.421 11.674z" />
<glyph unicode="&#xe91e;" horiz-adv-x="1536" d="M774.349 708.301l9.216-11.878-115.507-82.125-9.216 11.674z" />
<glyph unicode="&#xe91f;" horiz-adv-x="1536" d="M666.829 445.542h215.245v-24.781h-215.245v24.781z" />
<glyph unicode="&#xe920;" horiz-adv-x="1536" d="M773.939 675.123l-86.63-61.85v-184.115h173.261v184.115l-86.63 61.85zM765.338 445.747h-55.91v81.51h55.91v-81.51zM765.338 547.328h-55.91v49.971h55.91v-49.971zM783.565 597.709h55.91v-49.971h-55.91v49.971zM840.090 477.491h-55.91v49.971h55.91v-49.971z" />
</font>
</defs>
</svg>
