<svg xmlns="http://www.w3.org/2000/svg" data-name="Layer 1" width="64" height="64" viewBox="0 0 64 64"><path fill="#ace3ff" d="M30.3,61H20.54a1.54,1.54,0,0,1-1.65-1.89c.48-3.13,1-6.25,1.48-9.38q1.25-7.92,2.49-15.84c.66-4.14,1.33-8.29,2-12.43.48-3.06,22.31-5.75,25.33-3.74A10.07,10.07,0,0,1,54.54,24,17.18,17.18,0,0,1,54,32.32a26.32,26.32,0,0,1-1.52,4.3c-2.69,5.81-5.18,5.62-6,6.55-3.27.55-7.13,1.61-10.41,1.69a3.73,3.73,0,0,0-.81.08,3.4,3.4,0,0,0-2.7,2.65c-.45,2.65-.49,2.34-.92,5S30.76,58.16,30.3,61Z"></path><path fill="#85cbf8" d="M19.3,54H8.54A1.54,1.54,0,0,1,6.9,52.12c.48-3.13,1-6.25,1.48-9.38q1.25-7.92,2.49-15.84c.66-4.14,1.33-8.29,2-12.43.48-3.06,1-6.1,1.42-9.16A2.72,2.72,0,0,1,16.92,3c6.42,0,12.85-.12,19.27,0,3.48.09,7,.63,10,2.65A10.07,10.07,0,0,1,50.54,12,17.18,17.18,0,0,1,50,20.32a26.32,26.32,0,0,1-1.52,4.3c-2.69,5.81-7.43,8.82-13.6,9.88-3.27.55-6.56.28-9.84.36a3.73,3.73,0,0,0-.81.08,3.06,3.06,0,0,0-2.35,2.7c-.45,2.65-.85,5.29-1.27,7.95S19.76,51.16,19.3,54Z"></path><path fill="#7bbeeb" d="M22,38l3.16-20,2.09-1.2s21.61-.27,23.22,1.51c0,0-1.44,10.17-9.9,14.43s-15,1.71-15,1.71l-1.87.67Z"></path><path fill="#8d6c9f" d="M19.3,55H8.54a2.68,2.68,0,0,1-2.08-.89A2.63,2.63,0,0,1,5.91,52q.48-3.11,1-6.23L10.48,23q.69-4.33,1.37-8.66c.48-3.06,1-6.1,1.42-9.16A3.71,3.71,0,0,1,16.92,2l5.67,0c4.47,0,9.08,0,13.63.07,3,.08,7,.48,10.51,2.81a11,11,0,0,1,4.78,6.88A18.24,18.24,0,0,1,51,20.57,27.5,27.5,0,0,1,49.42,25c-2.67,5.76-7.49,9.27-14.34,10.44a40.12,40.12,0,0,1-7.06.37c-1,0-1.95,0-2.92,0H25a2.45,2.45,0,0,0-.46,0,2.08,2.08,0,0,0-1.63,1.91c-.3,1.79-.58,3.59-.87,5.39l-.4,2.55c-.43,2.77-.88,5.56-1.34,8.41A1,1,0,0,1,19.3,55ZM28.25,4,22.6,4,16.92,4a1.72,1.72,0,0,0-1.67,1.42c-.47,3.06-.94,6.1-1.42,9.16q-.68,4.33-1.38,8.67L8.86,46q-.49,3.11-1,6.22a.73.73,0,0,0,.09.55.74.74,0,0,0,.56.19h9.91c.41-2.55.81-5.06,1.2-7.56l.4-2.54c.28-1.81.57-3.61.87-5.42A4,4,0,0,1,24,34a3.92,3.92,0,0,1,.9-.11H25c1,0,2,0,3,0a38.1,38.1,0,0,0,6.71-.34C41,32.45,45.2,29.4,47.61,24.21a25.43,25.43,0,0,0,1.46-4.14,16.43,16.43,0,0,0,.5-7.83,9.1,9.1,0,0,0-3.94-5.67C43.21,5,40.3,4.2,36.17,4.09,33.54,4,30.88,4,28.25,4Z"></path><path fill="#8d6c9f" d="M46.34 18.33h-.13a24.9 24.9 0 0 0-2.49-.18 1 1 0 0 1-1-1 1 1 0 0 1 1-1c1 0 1.87.09 2.69.2a1 1 0 0 1-.12 2zM23 31.78h-.16A1 1 0 0 1 22 30.63q.31-1.92.61-3.84c.42-2.63.82-5.26 1.23-7.89a3.34 3.34 0 0 1 3.28-2.8l4.87 0c2.53 0 5.06 0 7.59 0a1 1 0 0 1 1 1 1 1 0 0 1-1 1c-2.52 0-5 0-7.56 0l-4.88 0a1.34 1.34 0 0 0-1.3 1.11c-.41 2.63-.81 5.26-1.23 7.89Q24.31 29 24 30.94A1 1 0 0 1 23 31.78zM24.88 62l-4.61 0a2.71 2.71 0 0 1-2.15-.87 2.79 2.79 0 0 1-.54-2.32l.74-5a1 1 0 0 1 2 .3l-.74 5a1 1 0 0 0 .08.73.93.93 0 0 0 .65.17c2.72 0 5.14 0 7.86 0 1.3 0 1.6-.27 1.82-1.53.56-3.36 1.21-7.34 1.78-11.29A3.47 3.47 0 0 1 35.31 44a24.21 24.21 0 0 0 8-1 13.52 13.52 0 0 0 8-6.3 20.3 20.3 0 0 0 2.54-8.9 10.29 10.29 0 0 0-1.14-5.75A6.75 6.75 0 0 0 50 19.42a1 1 0 0 1 1-1.75 8.72 8.72 0 0 1 3.49 3.5A12.23 12.23 0 0 1 55.87 28a22.25 22.25 0 0 1-2.8 9.76A15.63 15.63 0 0 1 43.93 45 26.32 26.32 0 0 1 35.27 46a1.49 1.49 0 0 0-1.54 1.41c-.58 4-1.23 8-1.79 11.33C31.56 61 30.43 62 28.16 62z"></path><path fill="#8d6c9f" d="M28 58a1 1 0 0 1-1-1V55a1 1 0 0 1 2 0v2A1 1 0 0 1 28 58zM23 58a1 1 0 0 1-1-1V55a1 1 0 0 1 2 0v2A1 1 0 0 1 23 58zM16 51a1 1 0 0 1-1-1V48a1 1 0 0 1 2 0v2A1 1 0 0 1 16 51zM11 51a1 1 0 0 1-1-1V48a1 1 0 0 1 2 0v2A1 1 0 0 1 11 51z"></path></svg>