<svg xmlns="http://www.w3.org/2000/svg" id="Layer_1" x="0" y="0" version="1.1" width="128" height="128" viewBox="0 0 128 128" xml:space="preserve"><path fill="#fff" d="M118,70H10c-3.3,0-6-2.7-6-6V27c0-3.3,2.7-6,6-6h108c3.3,0,6,2.7,6,6v37C124,67.3,121.3,70,118,70z"></path><path fill="#71c2ff" d="M99,104.5c-1.2,0-2.3-0.7-2.8-1.8l-5-11.5c-0.7-1.5,0-3.3,1.6-3.9c1.5-0.7,3.3,0,3.9,1.6l5,11.5 c0.7,1.5,0,3.3-1.6,3.9C99.8,104.4,99.4,104.5,99,104.5z"></path><path fill="#71c2ff" d="M79,116c-1.4,0-2.6-1-2.9-2.4l-5-23c-0.4-1.6,0.7-3.2,2.3-3.6c1.6-0.4,3.2,0.7,3.6,2.3l5,23 c0.4,1.6-0.7,3.2-2.3,3.6C79.4,116,79.2,116,79,116z"></path><path fill="#71c2ff" d="M49,116c-0.2,0-0.4,0-0.6-0.1c-1.6-0.4-2.6-1.9-2.3-3.6l5-23c0.4-1.6,1.9-2.6,3.6-2.3 c1.6,0.4,2.6,1.9,2.3,3.6l-5,23C51.6,115,50.4,116,49,116z"></path><path fill="#71c2ff" d="M29,104.5c-0.4,0-0.8-0.1-1.2-0.2c-1.5-0.7-2.2-2.4-1.6-3.9l5-11.5c0.7-1.5,2.4-2.2,3.9-1.6 c1.5,0.7,2.2,2.4,1.6,3.9l-5,11.5C31.3,103.8,30.2,104.5,29,104.5z"></path><path fill="#444b54" d="M118,18H10c-5,0-9,4-9,9v37c0,5,4,9,9,9h9c1.7,0,3-1.3,3-3V59h84v8H39c-1.7,0-3,1.3-3,3s1.3,3,3,3h79 c5,0,9-4,9-9V27C127,22,123,18,118,18z M22,24h84v8H22V24z M121,64c0,1.7-1.3,3-3,3h-6V56c0-1.7-1.3-3-3-3H19c-1.7,0-3,1.3-3,3v11 h-6c-1.7,0-3-1.3-3-3V27c0-1.7,1.3-3,3-3h6v11c0,1.7,1.3,3,3,3h90c1.7,0,3-1.3,3-3V24h6c1.7,0,3,1.3,3,3V64z"></path></svg>