<svg xmlns="http://www.w3.org/2000/svg" data-name="Layer 1" width="64" height="64" viewBox="0 0 64 64"><path fill="#f9e3ae" d="M6,5.66h6.61a6,6,0,0,1,6,6v3.66a0,0,0,0,1,0,0H0a0,0,0,0,1,0,0V11.66a6,6,0,0,1,6-6Z" transform="rotate(-45 9.328 10.496)"></path><path fill="#f9e3ae" d="M42.52,5.66H61.12a0,0,0,0,1,0,0V9.32a6,6,0,0,1-6,6H48.52a6,6,0,0,1-6-6V5.66a0,0,0,0,1,0,0Z" transform="rotate(-135 51.82 10.496)"></path><path fill="#f9e3ae" d="M11 63L9 62 11 54 16 57 11 63zM51 63L53 62 51 54 46 57 51 63z"></path><path fill="#c5e4fa" d="M31 5A28 28 0 1 0 31 61A28 28 0 1 0 31 5Z"></path><path fill="#e3f2ff" d="M12.71 54.29a28 28 0 0 0 9.18 5.82L56 26V19.57a28.1 28.1 0 0 0-3.71-4.86zM10.76 52.24L50 13H44L8.22 48.78A28.08 28.08 0 0 0 10.76 52.24zM7.79 45.21L41 12l-3-2L6.36 41.64A27.81 27.81 0 0 0 7.79 45.21z"></path><path fill="#85cbf8" d="M31,5A28,28,0,1,0,59,33,28,28,0,0,0,31,5Zm0,50A22,22,0,1,1,46.17,17.07l.68.67q.39.4.75.82A22,22,0,0,1,31,55Z"></path><path fill="#6fc6f0" d="M31,55A22,22,0,0,1,9,33H7.34a4,4,0,0,0-3.95,4.71,28,28,0,0,0,55.21,0A4,4,0,0,0,54.66,33H53A22,22,0,0,1,31,55Z"></path><path fill="#ed7899" d="M31,20a1,1,0,0,0,1-1V17a1,1,0,0,0-2,0v2A1,1,0,0,0,31,20Z"></path><path fill="#8d6c9f" d="M15,32a1,1,0,0,0,0,2h2a1,1,0,0,0,0-2Z"></path><path fill="#ed7899" d="M48,33a1,1,0,0,0-1-1H45a1,1,0,0,0,0,2h2A1,1,0,0,0,48,33Z"></path><path fill="#8d6c9f" d="M30,47v2a1,1,0,0,0,2,0V47a1,1,0,0,0-2,0Z"></path><path fill="#ed7899" d="M35.87 20.95a1 1 0 0 0 1.3-.55l.75-1.85a1 1 0 0 0-1.85-.75l-.75 1.85A1 1 0 0 0 35.87 20.95zM45.46 39.92a1 1 0 0 0 .75-1.85l-1.85-.75a1 1 0 0 0-.75 1.85zM40 22.23a1 1 0 0 0 1.44 1.39l1.39-1.44A1 1 0 0 0 41.4 20.8zM41.77 42a1 1 0 0 0-1.39 1.44l1.44 1.39A1 1 0 0 0 43.2 43.4zM45.21 25.58l-1.83.81a1 1 0 1 0 .81 1.83L46 27.41a1 1 0 1 0-.81-1.83z"></path><path fill="#8d6c9f" d="M38.5,41.5a1,1,0,0,0,.71-1.71l-6.28-6.28A1.94,1.94,0,0,0,32,31.28V23a1,1,0,0,0-2,0v8.28a2,2,0,0,0,1.51,3.65l6.28,6.28A1,1,0,0,0,38.5,41.5Z"></path><path fill="#8d6c9f" d="M52.11,52.85a28.92,28.92,0,0,0,4.54-33.36l1.13-1.13a7,7,0,0,0,0-9.9L56.11,6.8,57,6a1,1,0,0,0-1.41-1.41l-.84.84L53.54,4.22a7,7,0,0,0-9.9,0L41.77,6.08a28.91,28.91,0,0,0-22.36.34l-2.2-2.2a7,7,0,0,0-9.9,0L5.72,5.81,4.65,4.73A1,1,0,0,0,3.23,6.15L4.31,7.22,3.07,8.46a7,7,0,0,0,0,9.9L4.72,20a1,1,0,0,0,.27.18,28.92,28.92,0,0,0,4.9,32.66L7.67,60.53a2.72,2.72,0,0,0,4.54,2.68l4.5-4.5c.11-.11.31-.31.35-.29a28.92,28.92,0,0,0,27.85,0c.05,0,.28.17.38.27l4.5,4.5a2.72,2.72,0,0,0,4.54-2.68ZM45.05,5.64a5,5,0,0,1,7.07,0l4.24,4.24a5,5,0,0,1,0,7.07l-.75.75A29.2,29.2,0,0,0,43.73,7ZM4.48,16.95a5,5,0,0,1,0-7.07L8.73,5.64a5,5,0,0,1,7.07,0L17.5,7.34A29.2,29.2,0,0,0,5.95,18.42ZM10.8,61.79a.74.74,0,0,1-1.09-.08.71.71,0,0,1-.12-.63l1.91-6.63a29.19,29.19,0,0,0,3.75,2.88ZM4,33A27,27,0,1,1,31,60,27,27,0,0,1,4,33ZM52.29,61.71a.74.74,0,0,1-1.09.08l-4.46-4.46a29.19,29.19,0,0,0,3.75-2.88l1.91,6.63A.71.71,0,0,1,52.29,61.71Z"></path><path fill="#8d6c9f" d="M31,56a23,23,0,0,1,0-46,23.27,23.27,0,0,1,3.36.24,1,1,0,0,1-.29,2A21,21,0,1,0,52,33a20.89,20.89,0,0,0-8-16.52,1,1,0,1,1,1.24-1.57A23,23,0,0,1,31,56Z"></path><path fill="#8d6c9f" d="M41,14.4a1,1,0,0,1-.46-.11,21,21,0,0,0-2.31-1,1,1,0,0,1,.69-1.88,22.92,22.92,0,0,1,2.53,1.11A1,1,0,0,1,41,14.4Z"></path></svg>