<svg xmlns="http://www.w3.org/2000/svg" width="64" height="64" viewBox="0 0 64 64"><path fill="#c2cde7" d="M11.5,24h-5V12.98C6.5,7.201,11.201,2.5,16.98,2.5H23v5h-6.02c-3.021,0-5.48,2.458-5.48,5.48V24z"></path><path fill="#f9dd8f" d="M21 55l-2.5 3-.7.84C16.66 60.21 14.97 61 13.19 61H10c-.55 0-1-.45-1-1v-1.18c0-.48.34-.89.8-.98L10 57.8l2.76-.55c.76-.15 1.36-.73 1.55-1.48L15 53 21 55zM55 58.82V60c0 .55-.45 1-1 1h-3.19c-1.78 0-3.47-.79-4.61-2.16L45.5 58 43 55l6-2 .69 2.77c.19.75.79 1.33 1.55 1.48l2.96.59c.14.03.27.08.38.16C54.84 58.19 55 58.49 55 58.82z"></path><path fill="#f7cc8f" d="M15 53l6 2 0 0c-1.557 1.868-3.961 2.809-6.372 2.494L12.76 57.25c.76-.15 1.36-.73 1.55-1.48L15 53zM54.58 58h-5.175c-2.474 0-4.821-1.099-6.405-3l0 0 6-2 .69 2.77c.187.752.792 1.329 1.552 1.481l2.958.59C54.34 57.87 54.47 57.92 54.58 58z"></path><path fill="#c2cde7" d="M44.647,55H19.353c-5.948,0-10.999-4.357-11.87-10.241L5,28h54l-2.483,16.759 C55.646,50.643,50.595,55,44.647,55z"></path><path fill="#ced8ed" d="M18,30l2.483,14.759C22,52,26.405,55,32.353,55h-6c-5.948,0-10.999-4.357-11.871-10.241L12,29L18,30z"></path><path fill="#b5c4e0" d="M47,30l-2.483,14.759C43.646,50.643,38.595,55,32.647,55h12c5.948,0,10.999-4.358,11.871-10.242 L59,28L47,30z"></path><path fill="#f9dd8f" d="M61.61,26.97C53.52,29.57,42.97,31,31.92,31c-4.78,0-9.48-0.27-13.92-0.79 c-5.74-0.66-11.06-1.74-15.61-3.19c-1.05-0.33-1.63-1.46-1.3-2.51c0.27-0.83,1.04-1.39,1.91-1.39c0.21,0,0.41,0.03,0.61,0.09 c4.2,1.33,9.09,2.34,14.39,2.98C22.42,26.72,27.12,27,31.92,27c10.65,0,20.76-1.36,28.47-3.84c0.2-0.06,0.4-0.09,0.61-0.09 c0.87,0,1.64,0.55,1.9,1.39C63.24,25.5,62.66,26.63,61.61,26.97z"></path><path fill="#ffeb9b" d="M17.636,28.676L18,30.21c-5.74-0.66-11.06-1.74-15.61-3.19c-1.449-0.455-2.003-2.435-0.504-3.625 c0.076-0.06,0.173-0.109,0.266-0.137c0.561-0.167,1.009-0.183,1.458-0.049c3.467,1.098,6.723,1.848,10.735,2.437 C15.957,25.883,17.259,27.09,17.636,28.676z"></path><path fill="#f7cc8f" d="M47.364,28.676L47,30.21c5.74-0.66,11.06-1.74,15.61-3.19c1.168-0.367,1.755-1.725,1.153-2.861 c-0.339-0.639-1.046-1.041-1.769-1.039c-0.208,0.001-0.406,0.031-0.604,0.09c-3.467,1.098-6.723,1.848-10.735,2.437 C49.043,25.883,47.741,27.09,47.364,28.676z"></path><path fill="#f9dd8f" d="M35,8c0,0.55-0.45,1-1,1H20c-0.55,0-1-0.45-1-1c0-1.94,0.78-3.68,2.05-4.95C22.32,1.78,24.06,1,26,1 h2C31.87,1,35,4.13,35,8z"></path><path fill="#ffeb9b" d="M27,1v1c0,3.866-3.134,7-7,7h0c-0.55,0-1-0.449-1-0.999c0-1.94,0.78-3.681,2.05-4.951 C22.32,1.78,24.06,1,26,1H27z"></path><path fill="#8d6c9f" d="M63.86,24.15c-0.4-1.25-1.55-2.08-2.86-2.08c-0.31,0-0.62,0.04-0.92,0.14 C52.47,24.65,42.47,26,31.92,26c-7.073,0-13.889-0.62-19.92-1.757V13c0-2.757,2.243-5,5-5h1c0,1.103,0.897,2,2,2h6v11 c0,0.552,0.448,1,1,1s1-0.448,1-1V10h2v3c0,0.552,0.448,1,1,1s1-0.448,1-1v-3h2c1.103,0,2-0.897,2-2c0-4.411-3.589-8-8-8h-2 c-2.021,0-3.864,0.759-5.274,2H17C10.935,2,6,6.935,6,13v9.863c-0.707-0.196-1.419-0.39-2.09-0.603c-0.3-0.1-0.6-0.14-0.91-0.14 c-1.31,0-2.46,0.84-2.86,2.09c-0.5,1.58,0.38,3.26,1.95,3.77c0.64,0.2,1.3,0.4,1.98,0.59l2.42,16.34c0.64,4.28,3.38,7.85,7.08,9.71 l-0.23,0.91c-0.1,0.37-0.4,0.66-0.78,0.74l-2.95,0.59C8.68,57.04,8,57.87,8,58.82V60c0,1.1,0.9,2,2,2h3.19 c2.08,0,4.04-0.92,5.38-2.52l2.9-3.48h21.06l2.9,3.48c1.34,1.6,3.3,2.52,5.38,2.52H54c1.1,0,2-0.9,2-2v-1.18 c0-0.95-0.68-1.78-1.61-1.96l-2.95-0.59c-0.38-0.08-0.68-0.37-0.78-0.74l-0.23-0.91c3.7-1.86,6.44-5.43,7.08-9.71l2.43-16.39 c0.67-0.19,1.33-0.39,1.98-0.6C63.49,27.42,64.36,25.72,63.86,24.15z M26,2h2c3.309,0,6,2.691,6.001,6H20C20,4.691,22.691,2,26,2z M8,23V13c0-4.962,4.038-9,9-9h2.082c-0.36,0.619-0.635,1.29-0.819,2H17c-3.86,0-7,3.14-7,7v10.857 c-0.711-0.153-1.389-0.324-2.074-0.492C7.971,23.251,8,23.129,8,23z M17.03,58.2c-0.95,1.14-2.35,1.8-3.84,1.8H10v-1.18l2.96-0.59 c1.13-0.23,2.04-1.1,2.32-2.22l0.16-0.62c1.1,0.35,2.25,0.56,3.43,0.6L17.03,58.2z M51.04,58.23L54,58.82V60h-3.19 c-1.49,0-2.89-0.66-3.84-1.8l-1.84-2.21c1.18-0.04,2.33-0.25,3.43-0.6l0.16,0.62C49,57.13,49.91,58,51.04,58.23z M55.53,44.61 c-0.307,2.092-1.219,3.977-2.53,5.505V49c0-0.552-0.447-1-1-1s-1,0.448-1,1v2c0,0.28,0.116,0.531,0.301,0.713 c-0.433,0.331-0.882,0.642-1.361,0.907C48.36,53.5,46.55,54,44.65,54h-1.83H21.18h-1.83c-1.9,0-3.71-0.5-5.29-1.38 c-0.479-0.265-0.928-0.576-1.361-0.907C12.884,51.531,13,51.28,13,51v-2c0-0.552-0.447-1-1-1s-1,0.448-1,1v1.115 c-1.311-1.528-2.223-3.413-2.53-5.505L6.18,29.13C13.65,30.99,22.61,32,31.92,32c9.38,0,18.41-1.03,25.91-2.92L55.53,44.61z M61.31,26.02c-1.09,0.35-2.22,0.67-3.39,0.98c-3.21,0.84-6.72,1.51-10.43,2c-4.91,0.66-10.17,1-15.57,1 c-5.38,0-10.64-0.34-15.54-1c-3.72-0.49-7.24-1.16-10.46-2c-1.11-0.29-2.19-0.6-3.22-0.93c-0.53-0.17-0.82-0.73-0.65-1.26 c0.13-0.42,0.53-0.69,0.95-0.69c0.1,0,0.2,0.01,0.3,0.04c3.88,1.23,8.34,2.19,13.16,2.84c4.87,0.66,10.1,1,15.46,1 c5.38,0,10.62-0.34,15.49-1c4.87-0.66,9.38-1.64,13.28-2.89c0.11-0.03,0.21-0.04,0.31-0.04c0.43,0,0.82,0.27,0.95,0.69 C62.12,25.29,61.83,25.85,61.31,26.02z"></path><path fill="#8d6c9f" d="M17 48c-.553 0-1 .448-1 1v2c0 .552.447 1 1 1s1-.448 1-1v-2C18 48.448 17.553 48 17 48zM22 48c-.553 0-1 .448-1 1v2c0 .552.447 1 1 1s1-.448 1-1v-2C23 48.448 22.553 48 22 48zM31 49v2c0 .552.447 1 1 1s1-.448 1-1v-2c0-.552-.447-1-1-1S31 48.448 31 49zM27 48c-.553 0-1 .448-1 1v2c0 .552.447 1 1 1s1-.448 1-1v-2C28 48.448 27.553 48 27 48zM37 52c.553 0 1-.448 1-1v-2c0-.552-.447-1-1-1s-1 .448-1 1v2C36 51.552 36.447 52 37 52zM42 52c.553 0 1-.448 1-1v-2c0-.552-.447-1-1-1s-1 .448-1 1v2C41 51.552 41.447 52 42 52zM47 52c.553 0 1-.448 1-1v-2c0-.552-.447-1-1-1s-1 .448-1 1v2C46 51.552 46.447 52 47 52zM22 13v10c0 .552.448 1 1 1s1-.448 1-1V13c0-.552-.448-1-1-1S22 12.448 22 13zM31 16c-.552 0-1 .448-1 1v6c0 .552.448 1 1 1s1-.448 1-1v-6C32 16.448 31.552 16 31 16z"></path></svg>