<svg xmlns="http://www.w3.org/2000/svg" width="128" height="128" viewBox="0 0 128 128"><path fill="#D8D4EA" d="M119,109.5H9v-25c0-2.8,2.2-5,5-5h100c2.8,0,5,2.2,5,5V109.5z"></path><path fill="#9D92C6" d="M119,109.5H9v-25c0-2.8,2.2-5,5-5h100c2.8,0,5,2.2,5,5V109.5z"></path><path fill="#EAE7F4" d="M119,79.5H9v-60c0-5.5,4.5-10,10-10h90c5.5,0,10,4.5,10,10V79.5z"></path><path fill="#EAE7F4" d="M119,78.5H9v-60c0-5.5,4.5-10,10-10h90c5.5,0,10,4.5,10,10V78.5z"></path><path fill="#D8D4EA" d="M21,43.5c0,0,0.2-0.2,0.7-0.4c0.4-0.2,1.1-0.5,1.8-0.8c1.5-0.5,3.5-0.8,5.5-0.8c2,0,4,0.3,5.5,0.8c0.8,0.2,1.4,0.5,1.8,0.8c0.4,0.2,0.7,0.4,0.7,0.4s-0.2,0.2-0.7,0.4c-0.4,0.2-1.1,0.5-1.8,0.8C33,45.2,31,45.5,29,45.5c-2,0-4-0.3-5.5-0.8c-0.8-0.2-1.4-0.5-1.8-0.8C21.2,43.7,21,43.5,21,43.5z"></path><path fill="#D8D4EA" d="M29 51.5c0 0-.2-.2-.4-.7-.2-.4-.5-1.1-.8-1.8-.5-1.5-.8-3.5-.8-5.5 0-2 .3-4 .8-5.5.2-.8.5-1.4.8-1.8.2-.4.4-.7.4-.7s.2.2.4.7c.2.4.5 1.1.8 1.8.5 1.5.8 3.5.8 5.5 0 2-.3 4-.8 5.5-.2.8-.5 1.4-.8 1.8C29.2 51.2 29 51.5 29 51.5zM56 43.5c0 0 .2-.2.7-.4.4-.2 1.1-.5 1.8-.8 1.5-.5 3.5-.8 5.5-.8 2 0 4 .3 5.5.8.8.2 1.4.5 1.8.8.4.2.7.4.7.4s-.2.2-.7.4c-.4.2-1.1.5-1.8.8C68 45.2 66 45.5 64 45.5c-2 0-4-.3-5.5-.8-.8-.2-1.4-.5-1.8-.8C56.2 43.7 56 43.5 56 43.5z"></path><path fill="#D8D4EA" d="M64 51.5c0 0-.2-.2-.4-.7-.2-.4-.5-1.1-.8-1.8-.5-1.5-.8-3.5-.8-5.5 0-2 .3-4 .8-5.5.2-.8.5-1.4.8-1.8.2-.4.4-.7.4-.7s.2.2.4.7c.2.4.5 1.1.8 1.8.5 1.5.8 3.5.8 5.5 0 2-.3 4-.8 5.5-.2.8-.5 1.4-.8 1.8C64.2 51.2 64 51.5 64 51.5zM91 43.5c0 0 .2-.2.7-.4.4-.2 1.1-.5 1.8-.8 1.5-.5 3.5-.8 5.5-.8 2 0 4 .3 5.5.8.8.2 1.4.5 1.8.8.4.2.7.4.7.4s-.2.2-.7.4c-.4.2-1.1.5-1.8.8-1.5.5-3.5.8-5.5.8-2 0-4-.3-5.5-.8-.8-.2-1.4-.5-1.8-.8C91.2 43.7 91 43.5 91 43.5z"></path><path fill="#D8D4EA" d="M99,51.5c0,0-0.2-0.2-0.4-0.7c-0.2-0.4-0.5-1.1-0.8-1.8c-0.5-1.5-0.8-3.5-0.8-5.5c0-2,0.3-4,0.8-5.5c0.2-0.8,0.5-1.4,0.8-1.8c0.2-0.4,0.4-0.7,0.4-0.7s0.2,0.2,0.4,0.7c0.2,0.4,0.5,1.1,0.8,1.8c0.5,1.5,0.8,3.5,0.8,5.5c0,2-0.3,4-0.8,5.5c-0.2,0.8-0.5,1.4-0.8,1.8C99.2,51.2,99,51.5,99,51.5z"></path><path fill="#D8D4EA" d="M54.9,74.9L9,79.5h110v-66h-1.4l-0.9,2.2C112.2,47.3,86.7,71.7,54.9,74.9z"></path><path fill="#FFF" d="M38.9,19.5H119c0-5.5-4.5-10-10-10H19c-5.5,0-10,4.5-10,10v60h1.4l5.8-40.3C17.8,27.9,27.5,19.5,38.9,19.5z"></path><path fill="#454B54" d="M119,72c-1.7,0-3-1.3-3-3V19c0-3.9-3.1-7-7-7H19c-3.9,0-7,3.1-7,7v48c0,1.7-1.3,3-3,3s-3-1.3-3-3V19c0-7.2,5.8-13,13-13h90c7.2,0,13,5.8,13,13v50C122,70.7,120.7,72,119,72z"></path><path fill="#454B54" d="M29 46.5c-.8 0-1.6-.3-2.1-.9-.6-.6-.9-1.3-.9-2.1s.3-1.6.9-2.1c1.1-1.1 3.1-1.1 4.2 0 .6.6.9 1.3.9 2.1s-.3 1.6-.9 2.1C30.6 46.2 29.8 46.5 29 46.5zM64 46.5c-.8 0-1.6-.3-2.1-.9-.6-.6-.9-1.3-.9-2.1s.3-1.6.9-2.1c1.1-1.1 3.1-1.1 4.2 0 .6.6.9 1.3.9 2.1s-.3 1.6-.9 2.1C65.6 46.2 64.8 46.5 64 46.5zM99 46.5c-.8 0-1.6-.3-2.1-.9-.6-.6-.9-1.3-.9-2.1s.3-1.6.9-2.1c1.1-1.1 3.1-1.1 4.2 0 .6.6.9 1.3.9 2.1s-.3 1.6-.9 2.1C100.6 46.2 99.8 46.5 99 46.5z"></path><path fill="#FFF" d="M114,79.5h-1.1l2.7-2.3l-4-3.5c-13-11.3-34.1-11.3-47.1,0L64,74l-0.4-0.4c-13-11.3-34.1-11.3-47.1,0l-4,3.5l2.7,2.3H14c-2.8,0-5,2.2-5,5l0.8,0.6c12.2,10,28.1,14.1,43.6,11.3L119,84.5C119,81.7,116.8,79.5,114,79.5z"></path><path fill="#454B54" d="M9 112.5c-1.7 0-3-1.3-3-3v-20c0-1.7 1.3-3 3-3s3 1.3 3 3v20C12 111.2 10.7 112.5 9 112.5zM109 122c-1.7 0-3-1.3-3-3v-7H22v7c0 1.7-1.3 3-3 3s-3-1.3-3-3v-10c0-1.7 1.3-3 3-3h90c1.7 0 3 1.3 3 3v10C112 120.7 110.7 122 109 122z"></path><g><path fill="#454B54" d="M119,112.5c-1.7,0-3-1.3-3-3v-20c0-1.7,1.3-3,3-3s3,1.3,3,3v20C122,111.2,120.7,112.5,119,112.5z"></path></g><g><path fill="#454B54" d="M119,92c-1.7,0-3-1.3-3-3v-5c0-1.1-0.9-2-2-2H14c-1.1,0-2,0.9-2,2v5c0,1.7-1.3,3-3,3s-3-1.3-3-3v-5c0-4.4,3.6-8,8-8h100c4.4,0,8,3.6,8,8v5C122,90.7,120.7,92,119,92z"></path></g></svg>