<svg xmlns="http://www.w3.org/2000/svg" width="64" height="64" viewBox="0 0 64 64"><path fill="#f9e3ae" d="M39,48.685c0,4.401-3.568,7.969-7.969,7.969s-7.969-3.568-7.969-7.969C23.062,44.701,27,42.514,27,39 c0.441,0,6.262,0,8,0C35,42.518,39,44.701,39,48.685z"></path><path fill="#ced8ed" d="M31,33L31,33c-2.209,0-4,1.791-4,4v2h8v-2C35,34.791,33.209,33,31,33z"></path><path fill="#f283a5" d="M31.591,20.434l27.817,20.399C60.069,41.317,61,40.846,61,40.027v-9.013 c0-0.637-0.304-1.236-0.817-1.613l-27.409-20.1c-1.056-0.774-2.492-0.774-3.548,0l-27.409,20.1C1.304,29.777,1,30.376,1,31.013 v9.013c0,0.819,0.931,1.291,1.591,0.806l27.817-20.399C30.761,20.176,31.239,20.176,31.591,20.434z"></path><path fill="#ed7899" d="M60.183,36.401l-27.409-20.1c-1.056-0.774-2.492-0.774-3.548,0l-27.409,20.1 C1.303,36.777,1,37.376,1,38.013v2.013c0,0.819,0.931,1.291,1.591,0.806l27.817-20.399c0.352-0.258,0.831-0.258,1.183,0 l27.817,20.399C60.069,41.317,61,40.846,61,40.027v-2.013C61,37.376,60.697,36.777,60.183,36.401z"></path><path fill="#faefde" d="M51 22L51 5 43 5 43 16z"></path><path fill="#efd8be" d="M43 5H51V10H43z"></path><path fill="#f9dd8f" d="M51,5h-8c-1.105,0-2-0.895-2-2l0,0c0-1.105,0.895-2,2-2h8c1.105,0,2,0.895,2,2l0,0 C53,4.105,52.105,5,51,5z"></path><path fill="#8d6c9f" d="M60.774,28.595l-8.802-6.455C51.979,22.092,52,22.049,52,22V5.816C53.161,5.402,54,4.302,54,3 c0-1.654-1.346-3-3-3h-8c-1.654,0-3,1.346-3,3c0,1.302,0.839,2.402,2,2.816v9.011l-8.635-6.332c-1.414-1.036-3.315-1.037-4.731,0 l-27.407,20.1C0.458,29.157,0,30.062,0,31.014v9.013c0,0.758,0.42,1.441,1.096,1.784c0.675,0.342,1.477,0.278,2.088-0.171 L30.999,21.24H31h0.001L58.817,41.64c0.352,0.257,0.765,0.389,1.181,0.389c0.309,0,0.619-0.072,0.906-0.218 C61.58,41.468,62,40.784,62,40.026v-9.013C62,30.062,61.542,29.157,60.774,28.595z M43,2h8c0.552,0,1,0.449,1,1s-0.448,1-1,1h-8 c-0.552,0-1-0.449-1-1S42.448,2,43,2z M44,16V6h6v14.693l-6.052-4.438C43.971,16.172,44,16.091,44,16z M60,40.027l-27.816-20.4 l-0.002,0c-0.353-0.258-0.767-0.388-1.182-0.388c-0.414,0-0.829,0.129-1.184,0.388L2,40.026v-2.519L31,16.24l18.586,13.63 c0.447,0.328,1.071,0.231,1.398-0.215c0.326-0.445,0.23-1.071-0.215-1.397L32.182,14.626c-0.705-0.516-1.656-0.519-2.365,0 L2,35.026v-4.012c0-0.317,0.152-0.619,0.409-0.807l27.407-20.1c0.709-0.519,1.659-0.518,2.366,0l27.409,20.101 C59.848,30.395,60,30.696,60,31.014V40.027z"></path><path fill="#8d6c9f" d="M54.575 31.048c-.446-.328-1.071-.231-1.398.215-.326.445-.23 1.071.215 1.397l3.035 2.226c.179.131.386.194.591.194.308 0 .611-.142.808-.409.326-.445.23-1.071-.215-1.397L54.575 31.048zM36.005 39.34v-1H36V37c0-2.757-2.243-5-5-5s-5 2.243-5 5v2.566c-.08 1.281-.823 2.344-1.685 3.562-1.057 1.492-2.254 3.184-2.254 5.557 0 4.946 4.023 8.969 8.97 8.969 4.945 0 8.969-4.023 8.969-8.969 0-2.375-1.21-4.067-2.277-5.561C36.801 41.836 36.005 40.723 36.005 39.34zM28 37c0-1.654 1.346-3 3-3s3 1.346 3 3v1h-6V37zM31.031 55.655c-3.843 0-6.97-3.126-6.97-6.969 0-1.737.916-3.031 1.887-4.401C26.789 43.096 27.727 41.531 28 40h2v3.586l-1.707 1.707c-.391.391-.391 1.023 0 1.414C28.488 46.902 28.744 47 29 47s.512-.098.707-.293L31 45.414l1.293 1.293C32.488 46.902 32.744 47 33 47s.512-.098.707-.293c.391-.391.391-1.023 0-1.414L32 43.586V40h2c.276 1.535 1.245 3.099 2.096 4.289C37.075 45.658 38 46.952 38 48.686 38 52.528 34.874 55.655 31.031 55.655zM48 48h-5c-.553 0-1 .448-1 1s.447 1 1 1h5c.553 0 1-.448 1-1S48.553 48 48 48zM20 49c0-.552-.447-1-1-1h-5c-.553 0-1 .448-1 1s.447 1 1 1h5C19.553 50 20 49.552 20 49zM41.252 45.01c.125 0 .252-.024.374-.073l3.709-1.498c.513-.207.76-.79.553-1.302s-.793-.758-1.301-.553l-3.709 1.498c-.513.207-.76.79-.553 1.302C40.482 44.773 40.856 45.01 41.252 45.01zM20.374 53.063l-3.709 1.498c-.513.207-.76.79-.553 1.302.157.389.531.626.927.626.125 0 .252-.024.374-.073l3.709-1.498c.513-.207.76-.79.553-1.302C21.469 53.104 20.883 52.858 20.374 53.063zM45.335 54.562l-3.709-1.498c-.508-.205-1.094.041-1.301.553s.04 1.095.553 1.302l3.709 1.498c.122.049.249.073.374.073.396 0 .77-.237.927-.626C46.095 55.351 45.848 54.769 45.335 54.562zM21.122 43.082l-3.709-1.498c-.507-.205-1.094.041-1.301.553s.04 1.095.553 1.302l3.709 1.498c.122.049.249.073.374.073.396 0 .77-.237.927-.626C21.882 43.872 21.635 43.289 21.122 43.082z"></path></svg>