<svg xmlns="http://www.w3.org/2000/svg" width="128" height="128" viewBox="0 0 128 128"><path fill="#FFF" d="M75.8,89H52.2c-14.3,0-24.8-13.5-21.3-27.3l9.4-37.5C42.4,15.2,50.4,9,59.6,9h8.8c9.2,0,17.2,6.2,19.4,15.1l9.4,37.5C100.6,75.5,90.1,89,75.8,89z"></path><path fill="#FFF" d="M78.3 76.8c-.2 0-.4.1-.6.1C77.9 76.9 78.1 76.9 78.3 76.8zM80.3 76.5c-.3.1-.5.1-.8.2C79.8 76.6 80 76.6 80.3 76.5zM82.1 76.1c-.3.1-.6.2-.9.3C81.6 76.2 81.8 76.2 82.1 76.1zM93.6 67.9c.3-.4.6-.8.8-1.3C94.2 67 93.9 67.5 93.6 67.9zM94.5 66.5c.3-.4.5-.9.8-1.4C95.1 65.6 94.8 66.1 94.5 66.5zM83.9 75.5c-.3.1-.6.2-.9.3C83.3 75.7 83.6 75.6 83.9 75.5zM92.6 69.2c.3-.4.6-.8.9-1.1C93.2 68.4 92.9 68.8 92.6 69.2zM95.3 65.1c.2-.5.5-1 .7-1.5C95.8 64.1 95.6 64.6 95.3 65.1zM91.2 70.7c-.3.3-.6.6-1 .9C90.6 71.3 90.9 71 91.2 70.7zM36.8 70.7c-.1-.1-.2-.2-.3-.3-.3-.3-.6-.6-.9-.9-.1-.1-.2-.2-.2-.3-.3-.4-.6-.7-.8-1.1-.1-.1-.1-.1-.2-.2-.3-.4-.6-.8-.8-1.2 0 0-.1-.1-.1-.1-.3-.4-.5-.9-.8-1.3 0 0 0-.1 0-.1-.2-.5-.5-1-.7-1.5 1.5 3.4 3.7 6.4 6.7 8.7l-1-.8C37.4 71.2 37.1 71 36.8 70.7z"></path><path fill="#FFF" d="M38.6 72.3L38.6 72.3C42.3 75.2 47 77 52.2 77 47 77 42.3 75.2 38.6 72.3zM85.5 74.7c-.3.2-.6.3-.9.4C84.9 75 85.2 74.9 85.5 74.7zM32 63.6c-.2-.4-.3-.8-.5-1.2C31.6 62.7 31.8 63.2 32 63.6zM87.1 73.9c-.3.2-.6.4-1 .6C86.5 74.3 86.8 74.1 87.1 73.9zM89.9 71.8c-.3.3-.6.5-1 .8C89.3 72.4 89.6 72.1 89.9 71.8zM88.6 72.9c-.3.2-.6.5-1 .7C87.9 73.4 88.2 73.1 88.6 72.9zM81.3 13.8c-.8-.7-1.6-1.3-2.5-1.8C79.7 12.5 80.5 13.1 81.3 13.8zM73.7 9.7c-.2 0-.3-.1-.5-.1C73.4 9.6 73.6 9.7 73.7 9.7zM92.4 69.4c-.3.4-.6.7-.9 1C91.8 70.1 92.1 69.7 92.4 69.4z"></path><path fill="#DDD8EC" d="M87.8,24.1c-0.6-2.5-1.8-4.9-3.2-6.9c-1.1-0.2-2.2-0.3-3.4-0.3H70.8C60,17,50.6,24.3,48,34.8l-2.4,9.7C43.4,53.4,50.1,62,59.3,62h37.4c-0.2,0.5-0.4,1.1-0.6,1.6c0.4-0.9,0.7-1.7,0.9-2.6L87.8,24.1z"></path><path fill="#FFF" d="M81.5 13.9c1.2 1 2.2 2.1 3.1 3.4C83.7 16 82.6 14.9 81.5 13.9zM77 11c-.3-.2-.6-.3-1-.4C76.4 10.7 76.7 10.8 77 11zM71.9 9.3c-.1 0-.3 0-.4-.1C71.6 9.3 71.7 9.3 71.9 9.3zM70.3 9.1c-.1 0-.3 0-.4 0C70.1 9.1 70.2 9.1 70.3 9.1zM75.2 10.2c-.2-.1-.4-.1-.6-.2C74.8 10.1 75 10.1 75.2 10.2zM78.4 11.7c-.2-.1-.5-.3-.7-.4C77.9 11.4 78.1 11.6 78.4 11.7zM69.9 9.1c-.5 0-1-.1-1.5-.1C68.9 9 69.4 9 69.9 9.1zM90.3 71.6c-.1.1-.2.2-.3.3C90.1 71.7 90.2 71.6 90.3 71.6zM71.5 9.3c-.4-.1-.8-.1-1.1-.1C70.7 9.1 71.1 9.2 71.5 9.3zM89 72.6c-.1.1-.3.2-.4.3C88.7 72.8 88.8 72.7 89 72.6zM87.6 73.6c-.2.1-.3.2-.5.3C87.3 73.8 87.4 73.7 87.6 73.6zM40.2 24.1c.4-1.7 1-3.2 1.8-4.7C41.3 20.9 40.6 22.5 40.2 24.1zM38.6 72.3L38.6 72.3 38.6 72.3zM56.2 9.3c-5.5.9-10.3 4.1-13.3 8.7C45.9 13.4 50.7 10.2 56.2 9.3zM84.6 17.3L84.6 17.3 84.6 17.3zM91.5 70.4c-.1.1-.2.2-.2.2C91.3 70.6 91.4 70.5 91.5 70.4zM32 63.6C32 63.6 32 63.6 32 63.6 32 63.6 32 63.6 32 63.6 32 63.6 32 63.6 32 63.6 32 63.6 32 63.6 32 63.6zM78.8 12c-.1-.1-.3-.2-.4-.3C78.5 11.8 78.7 11.9 78.8 12zM31.5 62.3c-.2-.5-.3-.9-.5-1.4C31.1 61.4 31.3 61.9 31.5 62.3zM94.5 66.6c0 0 0-.1.1-.1C94.5 66.5 94.5 66.6 94.5 66.6zM92.4 69.4c.1-.1.1-.1.2-.2C92.5 69.2 92.5 69.3 92.4 69.4zM77.7 11.3c-.2-.1-.4-.2-.6-.3C77.2 11.1 77.5 11.2 77.7 11.3zM76.1 10.6c-.3-.1-.6-.2-.8-.3C75.5 10.3 75.8 10.4 76.1 10.6zM93.5 68c0-.1.1-.1.1-.2C93.6 67.9 93.5 68 93.5 68zM95.3 65.1C95.3 65.1 95.3 65.1 95.3 65.1 95.3 65.1 95.3 65.1 95.3 65.1zM81.5 13.9c0 0-.1-.1-.1-.1C81.4 13.8 81.4 13.8 81.5 13.9zM96 63.6C96 63.6 96 63.6 96 63.6 96 63.6 96 63.6 96 63.6zM79.5 76.7c-.4.1-.8.1-1.2.1C78.7 76.8 79.1 76.8 79.5 76.7z"></path><path fill="#FFF" d="M73.3 9.6c-.5-.1-.9-.2-1.4-.3C72.3 9.4 72.8 9.5 73.3 9.6zM84.6 75.2c-.2.1-.5.2-.7.3C84.1 75.4 84.3 75.3 84.6 75.2zM83 75.8c-.3.1-.6.2-.8.3C82.4 76 82.7 75.9 83 75.8zM77.7 76.9C77.1 77 76.5 77 75.8 77 76.5 77 77.1 77 77.7 76.9zM86.1 74.4c-.2.1-.4.2-.6.3C85.7 74.6 85.9 74.5 86.1 74.4zM81.3 76.3c-.3.1-.6.1-1 .2C80.6 76.5 80.9 76.4 81.3 76.3zM74.7 10c-.3-.1-.6-.2-.9-.3C74 9.8 74.3 9.9 74.7 10z"></path><g><path fill="#ABA1CF" d="M97.2,61.7L96.6,62c-2.9,8.6-10.9,15-20.8,15H52.2c-0.8,0-1.7,0-2.5-0.1c-7.4-1-9.5,10.1-2.2,11.6c1.5,0.3,3,0.5,4.6,0.5h23.6C90.1,89,100.6,75.5,97.2,61.7z"></path></g><g><path fill="#454B54" d="M75.8,92H52.2c-7.8,0-14.9-3.5-19.7-9.6S26,68.5,27.9,60.9l9.4-37.5C39.9,13.2,49,6,59.6,6h8.8C79,6,88.1,13.2,90.7,23.4l9.4,37.5c1.9,7.5,0.2,15.3-4.5,21.4S83.6,92,75.8,92z M59.6,12c-7.8,0-14.6,5.3-16.5,12.9l-9.4,37.5c-1.4,5.7-0.2,11.7,3.5,16.3c3.6,4.6,9.1,7.3,15,7.3h23.6c5.9,0,11.4-2.7,15-7.3c3.6-4.6,4.9-10.6,3.5-16.3l-9.4-37.5C83,17.3,76.2,12,68.4,12H59.6z"></path></g><g><path fill="#454B54" d="M30.2,122c-0.4,0-0.8-0.1-1.2-0.3c-1.5-0.7-2.2-2.4-1.5-4l14-31.5c0.7-1.5,2.4-2.2,4-1.5c1.5,0.7,2.2,2.4,1.5,4l-14,31.5C32.4,121.3,31.3,122,30.2,122z"></path></g><g><path fill="#454B54" d="M98,122c-1.1,0-2.2-0.7-2.7-1.8l-14-31.5c-0.7-1.5,0-3.3,1.5-4c1.5-0.7,3.3,0,4,1.5l14,31.5c0.7,1.5,0,3.3-1.5,4C98.8,121.9,98.4,122,98,122z"></path></g></svg>