<svg xmlns="http://www.w3.org/2000/svg" width="64" height="64" viewBox="0 0 64 64"><radialGradient id="chjmLloaKscRmNp89fnz4a" cx="32" cy="34.5" r="30.775" gradientTransform="matrix(1 0 0 -1 0 66)" gradientUnits="userSpaceOnUse"><stop offset="0" stop-color="#afeeff"></stop><stop offset=".193" stop-color="#bbf1ff"></stop><stop offset=".703" stop-color="#d7f8ff"></stop><stop offset="1" stop-color="#e1faff"></stop></radialGradient><path fill="url(#chjmLloaKscRmNp89fnz4a)" d="M60,38h-5.5c-2.485,0-4.5-2.015-4.5-4.5s2.015-4.5,4.5-4.5H59c2.761,0,5-2.239,5-5	s-2.239-5-5-5h-3c-2.761,0-5-2.238-5-5s2.238-5,5-5h2.565H59.5c1.739,0,3.17-1.271,3.443-2.933C62.976,5.916,63,5.762,63,5.605V5.5	C63,3.567,61.433,2,59.5,2H59h-3H8.5C6.574,2,5.01,3.556,5,5.483V5.5C4.99,7.43,6.552,9,8.483,9H9c2.209,0,4,1.791,4,4s-1.791,4-4,4	H5c-2.761,0-5,2.239-5,5s2.239,5,5,5h5c2.209,0,4,1.791,4,4s-1.791,4-4,4H5.5C2.462,35,0,37.462,0,40.5S2.462,46,5.5,46H14	c1.657,0,3,1.343,3,3s-1.343,3-3,3H8.5C6.015,52,4,54.015,4,56.5S6.015,61,8.5,61H33h22c2.209,0,4-1.791,4-4s-1.791-4-4-4h-3.5	c-1.933,0-3.5-1.567-3.5-3.5s1.567-3.5,3.5-3.5H60c2.209,0,4-1.791,4-4S62.209,38,60,38z"></path><linearGradient id="chjmLloaKscRmNp89fnz4b" x1="13" x2="13" y1="27.566" y2="55.789" gradientTransform="matrix(1 0 0 -1 0 66)" gradientUnits="userSpaceOnUse"><stop offset="0" stop-color="#ff5840"></stop><stop offset=".007" stop-color="#ff5840"></stop><stop offset=".989" stop-color="#fa528c"></stop><stop offset="1" stop-color="#fa528c"></stop></linearGradient><path fill="url(#chjmLloaKscRmNp89fnz4b)" d="M13,15L13,15c-1.657,0-3,1.343-3,3v10h6V18C16,16.343,14.657,15,13,15z"></path><linearGradient id="chjmLloaKscRmNp89fnz4c" x1="13" x2="13" y1="47.382" y2="62.579" gradientTransform="matrix(1 0 0 -1 0 66)" gradientUnits="userSpaceOnUse"><stop offset="0" stop-color="#feaa53"></stop><stop offset=".612" stop-color="#ffcd49"></stop><stop offset="1" stop-color="#ffde44"></stop></linearGradient><path fill="url(#chjmLloaKscRmNp89fnz4c)" d="M13,6L13,6c-1.105,0-2,0.895-2,2v3c0,1.105,0.895,2,2,2l0,0c1.105,0,2-0.895,2-2V8	C15,6.895,14.105,6,13,6z"></path><linearGradient id="chjmLloaKscRmNp89fnz4d" x1="32" x2="32" y1="27.566" y2="55.789" gradientTransform="matrix(1 0 0 -1 0 66)" gradientUnits="userSpaceOnUse"><stop offset="0" stop-color="#ff5840"></stop><stop offset=".007" stop-color="#ff5840"></stop><stop offset=".989" stop-color="#fa528c"></stop><stop offset="1" stop-color="#fa528c"></stop></linearGradient><path fill="url(#chjmLloaKscRmNp89fnz4d)" d="M32,15L32,15c-1.657,0-3,1.343-3,3v10h6V18C35,16.343,33.657,15,32,15z"></path><linearGradient id="chjmLloaKscRmNp89fnz4e" x1="32" x2="32" y1="47.382" y2="62.579" gradientTransform="matrix(1 0 0 -1 0 66)" gradientUnits="userSpaceOnUse"><stop offset="0" stop-color="#feaa53"></stop><stop offset=".612" stop-color="#ffcd49"></stop><stop offset="1" stop-color="#ffde44"></stop></linearGradient><path fill="url(#chjmLloaKscRmNp89fnz4e)" d="M32,6L32,6c-1.105,0-2,0.895-2,2v3c0,1.105,0.895,2,2,2l0,0c1.105,0,2-0.895,2-2V8	C34,6.895,33.105,6,32,6z"></path><linearGradient id="chjmLloaKscRmNp89fnz4f" x1="51" x2="51" y1="27.566" y2="55.789" gradientTransform="matrix(1 0 0 -1 0 66)" gradientUnits="userSpaceOnUse"><stop offset="0" stop-color="#ff5840"></stop><stop offset=".007" stop-color="#ff5840"></stop><stop offset=".989" stop-color="#fa528c"></stop><stop offset="1" stop-color="#fa528c"></stop></linearGradient><path fill="url(#chjmLloaKscRmNp89fnz4f)" d="M51,15L51,15c-1.657,0-3,1.343-3,3v10h6V18C54,16.343,52.657,15,51,15z"></path><linearGradient id="chjmLloaKscRmNp89fnz4g" x1="51" x2="51" y1="47.382" y2="62.579" gradientTransform="matrix(1 0 0 -1 0 66)" gradientUnits="userSpaceOnUse"><stop offset="0" stop-color="#feaa53"></stop><stop offset=".612" stop-color="#ffcd49"></stop><stop offset="1" stop-color="#ffde44"></stop></linearGradient><path fill="url(#chjmLloaKscRmNp89fnz4g)" d="M51,6L51,6c-1.105,0-2,0.895-2,2v3c0,1.105,0.895,2,2,2l0,0c1.105,0,2-0.895,2-2V8	C53,6.895,52.105,6,51,6z"></path><linearGradient id="chjmLloaKscRmNp89fnz4h" x1="32" x2="32" y1="46.883" y2="12.181" gradientTransform="matrix(1 0 0 -1 0 66)" gradientUnits="userSpaceOnUse"><stop offset="0" stop-color="#a4a4a4"></stop><stop offset=".619" stop-color="gray"></stop><stop offset="1" stop-color="#6f6f6f"></stop></linearGradient><path fill="url(#chjmLloaKscRmNp89fnz4h)" d="M49,30v4c0,2.206-1.794,4-4,4H34v-7h-4v7H19c-2.206,0-4-1.794-4-4v-4h-4v4	c0,4.411,3.589,8,8,8h11v10h4V42h11c4.411,0,8-3.589,8-8v-4H49z"></path><linearGradient id="chjmLloaKscRmNp89fnz4i" x1="32" x2="32" y1="28.575" y2="9.07" gradientTransform="matrix(1 0 0 -1 0 66)" gradientUnits="userSpaceOnUse"><stop offset="0" stop-color="#a4a4a4"></stop><stop offset=".619" stop-color="gray"></stop><stop offset="1" stop-color="#6f6f6f"></stop></linearGradient><path fill="url(#chjmLloaKscRmNp89fnz4i)" d="M45,57H19l0,0c0-3.314,2.686-6,6-6h14C42.314,51,45,53.686,45,57L45,57z"></path><linearGradient id="chjmLloaKscRmNp89fnz4j" x1="13" x2="13" y1="39.979" y2="33.669" gradientTransform="matrix(1 0 0 -1 0 66)" gradientUnits="userSpaceOnUse"><stop offset="0" stop-color="#a4a4a4"></stop><stop offset=".619" stop-color="gray"></stop><stop offset="1" stop-color="#6f6f6f"></stop></linearGradient><path fill="url(#chjmLloaKscRmNp89fnz4j)" d="M17,32H9c-1.105,0-2-0.895-2-2l0,0c0-1.105,0.895-2,2-2h8c1.105,0,2,0.895,2,2l0,0	C19,31.105,18.105,32,17,32z"></path><linearGradient id="chjmLloaKscRmNp89fnz4k" x1="32" x2="32" y1="39.979" y2="33.669" gradientTransform="matrix(1 0 0 -1 0 66)" gradientUnits="userSpaceOnUse"><stop offset="0" stop-color="#a4a4a4"></stop><stop offset=".619" stop-color="gray"></stop><stop offset="1" stop-color="#6f6f6f"></stop></linearGradient><path fill="url(#chjmLloaKscRmNp89fnz4k)" d="M36,32h-8c-1.105,0-2-0.895-2-2l0,0c0-1.105,0.895-2,2-2h8c1.105,0,2,0.895,2,2l0,0	C38,31.105,37.105,32,36,32z"></path><linearGradient id="chjmLloaKscRmNp89fnz4l" x1="51" x2="51" y1="39.979" y2="33.669" gradientTransform="matrix(1 0 0 -1 0 66)" gradientUnits="userSpaceOnUse"><stop offset="0" stop-color="#a4a4a4"></stop><stop offset=".619" stop-color="gray"></stop><stop offset="1" stop-color="#6f6f6f"></stop></linearGradient><path fill="url(#chjmLloaKscRmNp89fnz4l)" d="M55,32h-8c-1.105,0-2-0.895-2-2l0,0c0-1.105,0.895-2,2-2h8c1.105,0,2,0.895,2,2l0,0	C57,31.105,56.105,32,55,32z"></path></svg>