<svg xmlns="http://www.w3.org/2000/svg" width="64" height="64" viewBox="0 0 64 64"><path fill="#faefde" d="M59,45H5c-1.105,0-2-0.895-2-2V5c0-1.105,0.895-2,2-2h54c1.105,0,2,0.895,2,2v38 C61,44.105,60.105,45,59,45z"></path><path fill="#fff7f0" d="M3 3H61V6H3z"></path><path fill="#efd8be" d="M3 42H61V45H3z"></path><path fill="#faefde" d="M59,61H5c-1.105,0-2-0.895-2-2v-8c0-1.105,0.895-2,2-2h54c1.105,0,2,0.895,2,2v8 C61,60.105,60.105,61,59,61z"></path><path fill="#efd8be" d="M61,61H3v-2c0-2.209,1.791-4,4-4h50c2.209,0,4,1.791,4,4V61z"></path><path fill="#8b8e98" d="M9 9H55V39H9z"></path><path fill="#91949b" d="M37 9L9 37 9 31 31 9zM28 9L9 28 9 25 25 9zM55 9L55 19 35 39 11.39 39 41.4 9z"></path><path fill="#72caaf" d="M52.744 53.187A1.744 1.744 0 1 0 52.744 56.675A1.744 1.744 0 1 0 52.744 53.187Z"></path><path fill="#8d6c9f" d="M59,48H5c-1.654,0-3,1.346-3,3v8c0,1.654,1.346,3,3,3h54c1.654,0,3-1.346,3-3v-8 C62,49.346,60.654,48,59,48z M60,59c0,0.551-0.448,1-1,1H5c-0.552,0-1-0.449-1-1v-8c0-0.551,0.448-1,1-1h54c0.552,0,1,0.449,1,1 V59z"></path><path fill="#8d6c9f" d="M53 52c-1.654 0-3 1.346-3 3s1.346 3 3 3 3-1.346 3-3S54.654 52 53 52zM53 56.458c-.805 0-1.458-.654-1.458-1.458s.654-1.458 1.458-1.458 1.458.654 1.458 1.458S53.805 56.458 53 56.458zM29 54H9c-.553 0-1 .448-1 1s.447 1 1 1h20c.553 0 1-.448 1-1S29.553 54 29 54zM59 2H5C3.346 2 2 3.346 2 5v38c0 1.654 1.346 3 3 3h54c1.654 0 3-1.346 3-3V5C62 3.346 60.654 2 59 2zM60 43c0 .551-.448 1-1 1H5c-.552 0-1-.449-1-1V5c0-.551.448-1 1-1h54c.552 0 1 .449 1 1V43z"></path><path fill="#8d6c9f" d="M55 8H9C8.447 8 8 8.448 8 9v30c0 .552.447 1 1 1h46c.553 0 1-.448 1-1V9C56 8.448 55.553 8 55 8zM54 38H10V10h44V38zM37 54h-4c-.553 0-1 .448-1 1s.447 1 1 1h4c.553 0 1-.448 1-1S37.553 54 37 54z"></path><path fill="#faefde" d="M17 16c.553 0 1-.448 1-1v-2c0-.552-.447-1-1-1s-1 .448-1 1v2C16 15.552 16.447 16 17 16zM12 16c.553 0 1-.448 1-1v-2c0-.552-.447-1-1-1s-1 .448-1 1v2C11 15.552 11.447 16 12 16zM22 16c.553 0 1-.448 1-1v-2c0-.552-.447-1-1-1s-1 .448-1 1v2C21 15.552 21.447 16 22 16zM27 16c.553 0 1-.448 1-1v-2c0-.552-.447-1-1-1s-1 .448-1 1v2C26 15.552 26.447 16 27 16zM32 16c.553 0 1-.448 1-1v-2c0-.552-.447-1-1-1s-1 .448-1 1v2C31 15.552 31.447 16 32 16zM42 16c.553 0 1-.448 1-1v-2c0-.552-.447-1-1-1s-1 .448-1 1v2C41 15.552 41.447 16 42 16zM37 16c.553 0 1-.448 1-1v-2c0-.552-.447-1-1-1s-1 .448-1 1v2C36 15.552 36.447 16 37 16zM47 16c.553 0 1-.448 1-1v-2c0-.552-.447-1-1-1s-1 .448-1 1v2C46 15.552 46.447 16 47 16zM52 16c.553 0 1-.448 1-1v-2c0-.552-.447-1-1-1s-1 .448-1 1v2C51 15.552 51.447 16 52 16z"></path></svg>