<svg xmlns="http://www.w3.org/2000/svg" width="128" height="128" viewBox="0 0 128 128"><path fill="#ff5576" d="M104,120H24V39c0-11,9-20,20-20h40c11,0,20,9,20,20V120z"></path><path fill="#ff5576" d="M29 116V81.5C29 74.6 23.4 69 16.5 69h0C9.6 69 4 74.6 4 81.5v0C4 88.4 9.6 94 16.5 94H17v30h12V116M99 116V81.5c0-6.9 5.6-12.5 12.5-12.5h0c6.9 0 12.5 5.6 12.5 12.5v0c0 6.9-5.6 12.5-12.5 12.5H111v30H99V116"></path><path fill="#b73958" d="M99,117H49c-1.7,0-3-1.3-3-3s1.3-3,3-3h50c1.7,0,3,1.3,3,3S100.7,117,99,117z"></path><path fill="#444b54" d="M99,123H37c-1.7,0-3-1.3-3-3s1.3-3,3-3h62c1.7,0,3,1.3,3,3S100.7,123,99,123z"></path><path fill="#b73958" d="M86.9,37.9l1,6.6c2,12.9-9.4,23.8-22.2,21.2l-20.6-4.1c-4.6-0.9-9.5-0.1-13.4,2.6c-1.2,0.8-2.2,1.7-3.2,2.8L29,88h70l0-11c0-2.8,2.2-6,5-6l0,1V39c0-1.6-0.2-3.1-0.5-4.6C101,24,85.3,27.3,86.9,37.9z"></path><path fill="#444b54" d="M29 127H17c-1.7 0-3-1.3-3-3V96.8C6.6 95.6 1 89.2 1 81.5 1 73 8 66 16.5 66S32 73 32 81.5V124C32 125.7 30.7 127 29 127zM20 121h6V81.5c0-5.2-4.3-9.5-9.5-9.5S7 76.3 7 81.5s4.3 9.5 9.5 9.5H17c1.7 0 3 1.3 3 3V121zM99 111H39c-1.7 0-3-1.3-3-3s1.3-3 3-3h57v-7c0-3.9-3.1-7-7-7H39c-1.7 0-3-1.3-3-3s1.3-3 3-3h50c7.2 0 13 5.8 13 13v10C102 109.7 100.7 111 99 111z"></path><path fill="#fff" d="M64 45A4 4 0 1 0 64 53 4 4 0 1 0 64 45zM111.5 79A3 3 0 1 0 111.5 85 3 3 0 1 0 111.5 79zM16.5 79A3 3 0 1 0 16.5 85 3 3 0 1 0 16.5 79z"></path><path fill="#444b54" d="M104,74c-1.7,0-3-1.3-3-3V39c0-9.4-7.6-17-17-17H44c-9.4,0-17,7.6-17,17v22c0,1.7-1.3,3-3,3s-3-1.3-3-3V39c0-12.7,10.3-23,23-23h40c12.7,0,23,10.3,23,23v32C107,72.7,105.7,74,104,74z"></path><path fill="#444b54" d="M111,127H99c-1.7,0-3-1.3-3-3V81.5C96,73,103,66,111.5,66S127,73,127,81.5c0,7.7-5.6,14.1-13,15.3V124C114,125.7,112.7,127,111,127z M102,121h6V94c0-1.7,1.3-3,3-3h0.5c5.2,0,9.5-4.3,9.5-9.5s-4.3-9.5-9.5-9.5s-9.5,4.3-9.5,9.5V121z"></path></svg>