<svg xmlns="http://www.w3.org/2000/svg" width="128" height="128" viewBox="0 0 128 128"><path fill="#c3dbea" d="M14 95H114V114H14z"></path><path fill="#444b54" d="M114,36c-1.7,0-3,1.3-3,3v13H17V39c0-1.7-1.3-3-3-3s-3,1.3-3,3v85c0,1.7,1.3,3,3,3s3-1.3,3-3v-7h94v7c0,1.7,1.3,3,3,3s3-1.3,3-3V39C117,37.3,115.7,36,114,36z M111,58v34H97V65c0-1.7-1.3-3-3-3s-3,1.3-3,3v27H77V65c0-1.7-1.3-3-3-3s-3,1.3-3,3v27H57V65c0-1.7-1.3-3-3-3s-3,1.3-3,3v27H37V65c0-1.7-1.3-3-3-3s-3,1.3-3,3v27H17V58H111z M17,111V98h94v13H17z"></path><g><path fill="#444b54" d="M49.7 33.1c-.1 0-.2 0-.3 0l-13 0c-1.1 0-2.2-.6-2.7-1.6-.5-1-.4-2.2.2-3.1l9.6-13.2-7.1 0c-1.7 0-3-1.3-3-3 0-1.7 1.3-3 3-3l13 0c1.1 0 2.2.6 2.7 1.6.5 1 .4 2.2-.2 3.1l-9.6 13.2 7.1 0c1.7 0 3 1.3 3 3C52.4 31.7 51.2 33 49.7 33.1zM72.8 35.1c-.3 0-.5 0-.8 0l-7.9-1.4c-1.1-.2-2-1-2.3-2-.3-1.1-.1-2.2.7-3l6.1-6.4-2.4-.4c-1.6-.3-2.7-1.8-2.4-3.5.3-1.6 1.8-2.7 3.5-2.4l7.9 1.4c1.1.2 2 1 2.3 2 .3 1.1.1 2.2-.7 3l-6.1 6.4 2.4.4c1.6.3 2.7 1.8 2.4 3.5C75.2 34 74.1 35 72.8 35.1zM86.7 39.6c-.8.1-1.6-.2-2.2-.7-.2-.1-.3-.3-.4-.4-.1-.2-.2-.3-.3-.5-.1-.2-.2-.4-.2-.5-.1-.2-.1-.4-.1-.6-.1-.8.2-1.6.7-2.2 1-1.2 3-1.4 4.2-.4.6.5 1 1.2 1.1 2 0 .2 0 .4 0 .6 0 .2-.1.4-.1.6-.1.2-.1.4-.2.5-.1.2-.2.3-.3.5C88.2 39.2 87.5 39.5 86.7 39.6z"></path></g></svg>