<svg xmlns="http://www.w3.org/2000/svg" width="40" height="40" viewBox="0 0 40 40"><path fill="none" stroke="#4788c7" stroke-miterlimit="10" d="M2.667 2.5L37.333 2.5"></path><path fill="#b6dcfe" d="M1.5 1.5A1 1 0 1 0 1.5 3.5A1 1 0 1 0 1.5 1.5Z"></path><path fill="#4788c7" d="M1.5,2C1.776,2,2,2.224,2,2.5S1.776,3,1.5,3S1,2.776,1,2.5S1.224,2,1.5,2 M1.5,1 C0.672,1,0,1.672,0,2.5S0.672,4,1.5,4S3,3.328,3,2.5S2.328,1,1.5,1L1.5,1z"></path><path fill="#b6dcfe" d="M38.5 1.5A1 1 0 1 0 38.5 3.5A1 1 0 1 0 38.5 1.5Z"></path><path fill="#4788c7" d="M38.5,2C38.776,2,39,2.224,39,2.5S38.776,3,38.5,3S38,2.776,38,2.5S38.224,2,38.5,2 M38.5,1 C37.672,1,37,1.672,37,2.5S37.672,4,38.5,4S40,3.328,40,2.5S39.328,1,38.5,1L38.5,1z"></path><path fill="#dff0fe" d="M34,38.5c-0.905,0-1.632-0.249-2.159-0.74L31.5,37.442l-0.341,0.317 C30.632,38.251,29.905,38.5,29,38.5s-1.632-0.249-2.159-0.74L26.5,37.442l-0.341,0.317C25.632,38.251,24.905,38.5,24,38.5 c-1.667,0-2.332-0.857-2.5-1.128V2.5h0.064c0.193,1.225,0.81,4,2.436,4s2.242-2.775,2.436-4h0.129c0.193,1.225,0.81,4,2.436,4 s2.242-2.775,2.436-4h0.129c0.193,1.225,0.81,4,2.436,4s2.242-2.775,2.436-4H36.5v34.872C36.33,37.643,35.662,38.5,34,38.5z"></path><path fill="#4788c7" d="M31.5,4.414C31.927,5.71,32.683,7,34,7c0.908,0,1.549-0.613,2-1.418V7v5.5V33v3v1.215 C35.797,37.468,35.224,38,34,38c-0.775,0-1.387-0.204-1.818-0.606L31.5,36.758l-0.682,0.636C30.387,37.796,29.775,38,29,38 s-1.387-0.204-1.818-0.606L26.5,36.758l-0.682,0.636C25.387,37.796,24.775,38,24,38c-1.236,0-1.798-0.523-2-0.782V36v-3V12.5V7 V5.582C22.451,6.387,23.092,7,24,7c1.317,0,2.073-1.29,2.5-2.586C26.927,5.71,27.683,7,29,7S31.073,5.71,31.5,4.414 M37,2h-1 c0,0-0.472,4-2,4s-2-4-2-4h-1c0,0-0.472,4-2,4s-2-4-2-4h-1c0,0-0.472,4-2,4s-2-4-2-4h-1v5v5.5V33v3v1.5c0,0,0.687,1.5,3,1.5 c1.287,0,2.058-0.463,2.5-0.875C26.942,38.537,27.713,39,29,39s2.058-0.463,2.5-0.875C31.942,38.537,32.713,39,34,39 c2.312,0,3-1.5,3-1.5V36v-3V12.5V7V2L37,2z"></path><path fill="#dff0fe" d="M16,38.5c-0.905,0-1.632-0.249-2.159-0.74L13.5,37.442l-0.341,0.317 C12.632,38.251,11.905,38.5,11,38.5s-1.632-0.249-2.159-0.74L8.5,37.442L8.159,37.76C7.632,38.251,6.905,38.5,6,38.5 c-1.667,0-2.332-0.857-2.5-1.128V2.5h0.064c0.193,1.225,0.81,4,2.436,4s2.242-2.775,2.436-4h0.129c0.193,1.225,0.81,4,2.436,4 s2.242-2.775,2.436-4h0.129c0.193,1.225,0.81,4,2.436,4s2.242-2.775,2.436-4H18.5v34.872C18.33,37.643,17.662,38.5,16,38.5z"></path><path fill="#4788c7" d="M13.5,4.414C13.927,5.71,14.683,7,16,7c0.908,0,1.549-0.613,2-1.418V7v5.5V33v3v1.215 C17.797,37.468,17.224,38,16,38c-0.775,0-1.387-0.204-1.818-0.606L13.5,36.758l-0.682,0.636C12.387,37.796,11.775,38,11,38 s-1.387-0.204-1.818-0.606L8.5,36.758l-0.682,0.636C7.387,37.796,6.775,38,6,38c-1.236,0-1.798-0.523-2-0.782V36v-3V12.5V7V5.582 C4.451,6.387,5.092,7,6,7c1.317,0,2.073-1.29,2.5-2.586C8.927,5.71,9.683,7,11,7S13.073,5.71,13.5,4.414 M19,2h-1c0,0-0.472,4-2,4 s-2-4-2-4h-1c0,0-0.472,4-2,4S9,2,9,2H8c0,0-0.472,4-2,4S4,2,4,2H3v5v5.5V33v3v1.5c0,0,0.687,1.5,3,1.5 c1.287,0,2.058-0.463,2.5-0.875C8.942,38.537,9.713,39,11,39s2.058-0.463,2.5-0.875C13.942,38.537,14.713,39,16,39 c2.312,0,3-1.5,3-1.5V36v-3V12.5V7V2L19,2z"></path><path fill="none" stroke="#4788c7" stroke-linecap="round" stroke-miterlimit="10" d="M31.5 37.5L31.5 22.5M8.5 37.5L8.5 18.5M26.5 15.5L26.5 3.631M26.5 37.5L26.5 34.5M13.5 37.5L13.5 32.5M13.5 12.5L13.5 3.262"></path></svg>