<svg xmlns="http://www.w3.org/2000/svg" id="Layer_1" x="0" y="0" version="1.1" width="128" height="128" viewBox="0 0 128 128" xml:space="preserve"><path fill="#fff" d="M117 18v22c0 7.7-6.3 14-14 14h0c-7.7 0-14-6.3-14-14V18c0-7.7 6.3-14 14-14h0C110.7 4 117 10.3 117 18zM73 4L73 4c-10.5 0-19 8.5-19 19v61h19V4z"></path><path fill="#444b54" d="M39,1c-1.7,0-3,1.3-3,3v36c0,6.1-4.9,11-11,11s-11-4.9-11-11V4c0-1.7-1.3-3-3-3S8,2.3,8,4v36 c0,8.3,6.1,15.3,14,16.7V124c0,1.7,1.3,3,3,3s3-1.3,3-3V56.7c7.9-1.4,14-8.4,14-16.7V4C42,2.3,40.7,1,39,1z"></path><path fill="#444b54" d="M25 43c1.7 0 3-1.3 3-3V4c0-1.7-1.3-3-3-3s-3 1.3-3 3v36C22 41.7 23.3 43 25 43zM73 127c-1.7 0-3-1.3-3-3V87H54c-1.7 0-3-1.3-3-3V23c0-12.1 9.9-22 22-22 1.7 0 3 1.3 3 3v120C76 125.7 74.7 127 73 127zM57 81h13V7.3C62.6 8.7 57 15.2 57 23V81zM103 1c-9.4 0-17 7.6-17 17v22c0 8.3 6.1 15.3 14 16.7V124c0 1.7 1.3 3 3 3s3-1.3 3-3V56.7c7.9-1.4 14-8.4 14-16.7V18C120 8.6 112.4 1 103 1zM114 40c0 6.1-4.9 11-11 11s-11-4.9-11-11V18c0-6.1 4.9-11 11-11s11 4.9 11 11V40z"></path></svg>