<svg xmlns="http://www.w3.org/2000/svg" width="64" height="64" viewBox="0 0 64 64"><path fill="#72caaf" d="M35,23.997c0-2-5.56-6-12-6c-10,0-11,5-12,6c0,0.12-0.23,0.963-0.23,0.963h24.94 C35.71,24.96,35,24.117,35,23.997z"></path><path fill="#f9e3ae" d="M22,7h2c2.209,0,4,1.791,4,4v4c0,2.209-1.801,5-4.01,5H22c-2.209,0-4-2.791-4-5v-4 C18,8.791,19.791,7,22,7z"></path><path fill="#8d6c9f" d="M35.49,24.87c0.483-0.268,0.658-0.876,0.39-1.359c0,0,0,0,0-0.001c-1.695-2.965-4.508-5.127-7.81-6 c0.592-1.077,0.911-2.282,0.93-3.51v-2c0-3.314-2.686-6-6-6s-6,2.686-6,6v2c0.024,1.226,0.346,2.427,0.94,3.5 c-3.302,0.873-6.115,3.035-7.81,6c-0.276,0.483-0.108,1.099,0.375,1.375s1.099,0.108,1.375-0.375 c1.566-2.732,4.247-4.642,7.34-5.23c1.804,2.09,4.962,2.322,7.052,0.518c0.185-0.16,0.358-0.333,0.518-0.518 c3.093,0.588,5.774,2.498,7.34,5.23c0.268,0.483,0.876,0.658,1.359,0.39c0,0,0,0,0.001,0C35.49,24.89,35.49,24.87,35.49,24.87z M23,19c-2.15,0-4-2.75-4-5v-2c0-2.209,1.791-4,4-4s4,1.791,4,4v2C27,16.25,25.15,19,23,19z"></path><path fill="#c2cde7" d="M53,25c0-2.761-2.239-5-5-5s-5,2.239-5,5"></path><path fill="#8d6c9f" d="M53,26c-0.552,0-1-0.447-1-1c0-2.206-1.794-4-4-4s-4,1.794-4,4c0,0.553-0.448,1-1,1s-1-0.447-1-1 c0-3.309,2.691-6,6-6s6,2.691,6,6C54,25.553,53.552,26,53,26z"></path><path fill="#f9dd8f" d="M7 31H57V55H7z"></path><path fill="#efc88e" d="M7 50H57V55H7zM7 31H57V34H7z"></path><path fill="#f9dd8f" d="M5 25H59V31H5z"></path><path fill="#8d6c9f" d="M57,56H7c-0.552,0-1-0.447-1-1V31c0-0.553,0.448-1,1-1h50c0.552,0,1,0.447,1,1v24 C58,55.553,57.552,56,57,56z M8,54h48V32H8V54z"></path><path fill="#8d6c9f" d="M59 32H5c-.552 0-1-.447-1-1v-6c0-.553.448-1 1-1h54c.552 0 1 .447 1 1v6C60 31.553 59.552 32 59 32zM6 30h52v-4H6V30zM12 52c-.552 0-1-.447-1-1v-2c0-.553.448-1 1-1s1 .447 1 1v2C13 51.553 12.552 52 12 52zM17 52c-.552 0-1-.447-1-1v-2c0-.553.448-1 1-1s1 .447 1 1v2C18 51.553 17.552 52 17 52zM22 52c-.552 0-1-.447-1-1v-2c0-.553.448-1 1-1s1 .447 1 1v2C23 51.553 22.552 52 22 52zM27 52c-.552 0-1-.447-1-1v-2c0-.553.448-1 1-1s1 .447 1 1v2C28 51.553 27.552 52 27 52zM32 52c-.552 0-1-.447-1-1v-2c0-.553.448-1 1-1 .552 0 1 .447 1 1v2C33 51.553 32.552 52 32 52zM37 52c-.552 0-1-.447-1-1v-2c0-.553.448-1 1-1s1 .447 1 1v2C38 51.553 37.552 52 37 52zM42 52c-.552 0-1-.447-1-1v-2c0-.553.448-1 1-1s1 .447 1 1v2C43 51.553 42.552 52 42 52zM47 52c-.552 0-1-.447-1-1v-2c0-.553.448-1 1-1s1 .447 1 1v2C48 51.553 47.552 52 47 52zM52 52c-.552 0-1-.447-1-1v-2c0-.553.448-1 1-1s1 .447 1 1v2C53 51.553 52.552 52 52 52z"></path><g><path fill="#8d6c9f" d="M48,20c-0.552,0-1-0.447-1-1v-2c0-0.553,0.448-1,1-1s1,0.447,1,1v2C49,19.553,48.552,20,48,20z"></path></g></svg>