<svg xmlns="http://www.w3.org/2000/svg" width="64" height="64" viewBox="0 0 64 64"><path fill="#becde8" d="M51,3H13c-1.105,0-2,0.895-2,2v56h42V5C53,3.895,52.105,3,51,3z"></path><path fill="#c5e4fa" d="M15 7H49V61H15z"></path><path fill="#e3f2ff" d="M49 18v14L22.44 58.56l-2.22 2.22h-4.13c-.18-.09-.34-.21-.47-.35C15.23 60.07 15 59.56 15 59v-7L49 18zM49 7L49 13.57 15 47.56 15 41zM44 7L15 36 15 32 40 7z"></path><path fill="#fff" d="M40.502 11.996L41.74 14.26 44.004 15.498 41.74 16.736 40.502 19 39.264 16.736 37 15.498 39.264 14.26zM40 49.162L40.855 50.726 42.419 51.581 40.855 52.436 40 54 39.145 52.436 37.581 51.581 39.145 50.726zM28.648 31L29.231 32.065 30.296 32.648 29.231 33.231 28.648 34.296 28.065 33.231 27 32.648 28.065 32.065z"></path><path fill="#8d6c9f" d="M51,2H13c-1.654,0-3,1.346-3,3v56c0,0.552,0.448,1,1,1h4h34h4c0.552,0,1-0.448,1-1V5 C54,3.346,52.654,2,51,2z M16,60V8h32v52H16z M52,60h-2V7c0-0.552-0.448-1-1-1H15c-0.552,0-1,0.448-1,1v53h-2V5 c0-0.551,0.449-1,1-1h38c0.551,0,1,0.449,1,1V60z"></path><path fill="#8d6c9f" d="M44 30c.552 0 1-.448 1-1s-.448-1-1-1h-2c-1.103 0-2 .897-2 2v6c0 1.103.897 2 2 2h2c.552 0 1-.448 1-1s-.448-1-1-1h-2v-6H44zM21 26h-2c-.552 0-1 .448-1 1s.448 1 1 1h2c.552 0 1-.448 1-1S21.552 26 21 26zM21 31h-2c-.552 0-1 .448-1 1s.448 1 1 1h2c.552 0 1-.448 1-1S21.552 31 21 31zM21 36h-2c-.552 0-1 .448-1 1s.448 1 1 1h2c.552 0 1-.448 1-1S21.552 36 21 36zM21 11h-2c-.552 0-1 .448-1 1s.448 1 1 1h2c.552 0 1-.448 1-1S21.552 11 21 11zM21 16h-2c-.552 0-1 .448-1 1s.448 1 1 1h2c.552 0 1-.448 1-1S21.552 16 21 16zM21 21h-2c-.552 0-1 .448-1 1s.448 1 1 1h2c.552 0 1-.448 1-1S21.552 21 21 21zM21 41h-2c-.552 0-1 .448-1 1s.448 1 1 1h2c.552 0 1-.448 1-1S21.552 41 21 41zM21 46h-2c-.552 0-1 .448-1 1s.448 1 1 1h2c.552 0 1-.448 1-1S21.552 46 21 46zM21 51h-2c-.552 0-1 .448-1 1s.448 1 1 1h2c.552 0 1-.448 1-1S21.552 51 21 51zM21 56h-2c-.552 0-1 .448-1 1s.448 1 1 1h2c.552 0 1-.448 1-1S21.552 56 21 56z"></path></svg>