<svg xmlns="http://www.w3.org/2000/svg" width="64" height="64" viewBox="0 0 64 64"><path fill="#f9dd8f" d="M56.63,27.17L24.81,58.99c-1.56,1.56-4.1,1.56-5.66,0L5.01,44.85c-1.56-1.56-1.56-4.1,0-5.66 L5.6,38.6l22.04-22.04c1.56-1.56,4.09-1.56,5.65,0l7.07,7.08c3.5,3.49,9.42,3.08,12.34-1.25c1.78-2.63,1.78-6.19,0-8.82 c-2.74-4.07-8.14-4.68-11.68-1.84c-0.39,0.32-0.96,0.29-1.32-0.07l-2.87-2.87c-0.39-0.39-0.39-1.03,0-1.42 c5.08-5.07,13.31-5.07,18.38,0l1.42,1.42C61.7,13.86,61.7,22.09,56.63,27.17z"></path><path fill="#f7cc8f" d="M25.4,58.4l-0.59,0.59c-1.56,1.56-4.1,1.56-5.66,0L5.01,44.85c-1.56-1.56-1.56-4.1,0-5.66L5.6,38.6 L25.4,58.4z"></path><path fill="#8d6c9f" d="M57.334,8.08L55.92,6.666c-2.644-2.644-6.159-4.101-9.899-4.101c-3.739,0-7.255,1.457-9.899,4.101 c-0.378,0.378-0.586,0.88-0.586,1.414c0,0.535,0.208,1.037,0.586,1.414l2.871,2.871c0.72,0.721,1.862,0.786,2.653,0.15 c1.518-1.219,3.501-1.747,5.43-1.456c1.959,0.297,3.663,1.386,4.798,3.069c1.555,2.304,1.555,5.399,0,7.704 c-1.2,1.778-3.087,2.914-5.177,3.115c-2.096,0.201-4.142-0.534-5.625-2.018L34,15.858c-1.95-1.95-5.123-1.948-7.071,0L4.302,38.485 c-0.944,0.944-1.465,2.2-1.465,3.536c0,1.335,0.521,2.591,1.465,3.535l14.142,14.142c0.975,0.975,2.255,1.462,3.536,1.462 c1.28,0,2.561-0.487,3.535-1.462l31.819-31.82c2.645-2.644,4.101-6.16,4.101-9.899C61.435,14.24,59.979,10.724,57.334,8.08z M55.92,26.464l-31.819,31.82c-1.169,1.169-3.072,1.17-4.243,0L5.716,44.142c-0.566-0.567-0.879-1.32-0.879-2.121 c0-0.802,0.312-1.555,0.879-2.122l22.627-22.627c0.585-0.584,1.354-0.877,2.122-0.877c0.768,0,1.536,0.292,2.121,0.877l7.071,7.071 c1.907,1.907,4.542,2.853,7.23,2.594c2.687-0.258,5.108-1.712,6.644-3.988c2.006-2.973,2.006-6.968,0-9.941 c-1.451-2.151-3.638-3.546-6.156-3.928c-2.486-0.377-5.03,0.307-6.968,1.87l-2.873-2.871l0.001-0.001 c2.267-2.266,5.28-3.515,8.485-3.515c3.206,0,6.219,1.248,8.485,3.515l1.414,1.414c2.267,2.267,3.515,5.28,3.515,8.485 C59.435,21.185,58.187,24.198,55.92,26.464z"></path><path fill="#8d6c9f" d="M8.544 39.899L7.13 41.314c-.391.391-.391 1.024 0 1.414.195.195.451.293.707.293s.512-.098.707-.293l1.414-1.415c.391-.391.391-1.024 0-1.414C9.567 39.509 8.935 39.509 8.544 39.899zM15.615 46.971l-1.414 1.414c-.391.391-.391 1.023 0 1.414.195.195.451.293.707.293s.512-.098.707-.293l1.414-1.414c.391-.391.391-1.023 0-1.414S16.006 46.58 15.615 46.971zM12.08 43.435l-1.414 1.414c-.391.391-.391 1.023 0 1.414.195.195.451.293.707.293s.512-.098.707-.293l1.414-1.414c.391-.391.391-1.023 0-1.414S12.471 43.044 12.08 43.435zM19.15 50.506l-1.414 1.414c-.391.391-.391 1.023 0 1.414.195.195.451.293.707.293s.512-.098.707-.293l1.414-1.414c.391-.391.391-1.023 0-1.414S19.541 50.116 19.15 50.506zM22.687 54.042l-1.414 1.415c-.391.391-.391 1.024 0 1.414.195.195.451.293.707.293s.512-.098.707-.293l1.414-1.415c.391-.391.391-1.024 0-1.414C23.71 53.651 23.077 53.651 22.687 54.042zM26.929 25.757c-.391-.391-1.023-.391-1.414 0s-.391 1.023 0 1.414l11.313 11.314c.195.195.451.293.707.293s.512-.098.707-.293c.391-.391.391-1.023 0-1.414L26.929 25.757zM21.272 31.414c-.391-.391-1.023-.391-1.414 0s-.391 1.023 0 1.414l9.899 9.9c.195.195.451.293.707.293s.512-.098.707-.293c.391-.391.391-1.023 0-1.414L21.272 31.414zM24.101 28.586c-.391-.391-1.023-.391-1.414 0s-.391 1.023 0 1.414l8.485 8.485c.195.195.451.293.707.293s.512-.098.707-.293c.391-.391.391-1.023 0-1.414L24.101 28.586z"></path></svg>