<svg xmlns="http://www.w3.org/2000/svg" data-name="Layer 1" width="64" height="64" viewBox="0 0 64 64"><path fill="#cda1a7" d="M59,24V8.73a2,2,0,0,0-1.71-2l-.38-.06a170,170,0,0,0-49.83,0l-.38.06A2,2,0,0,0,5,8.73V24"></path><path fill="#deb4ba" d="M57.29,6.75l-.38-.06a170,170,0,0,0-49.83,0l-.38.06A2,2,0,0,0,5,8.73V11l2.09-.31a170,170,0,0,1,49.83,0L59,11V8.73A2,2,0,0,0,57.29,6.75Z"></path><path fill="#faefde" d="M9 23H55a8 8 0 0 1 8 8v2a0 0 0 0 1 0 0H1a0 0 0 0 1 0 0V31A8 8 0 0 1 9 23zM27.43 14.65l-.93-.21a30 30 0 0 0-13 0l-.93.21a2 2 0 0 0-1.57 2V23H29V16.6A2 2 0 0 0 27.43 14.65zM51.43 14.65l-.93-.21a30 30 0 0 0-13 0l-.93.21a2 2 0 0 0-1.57 2V23H53V16.6A2 2 0 0 0 51.43 14.65z"></path><path fill="#fff7f0" d="M53 18V16.6a2 2 0 0 0-1.57-2l-.93-.21a30 30 0 0 0-13 0l-.93.21a2 2 0 0 0-1.57 2V18zM29 18V16.6a2 2 0 0 0-1.57-2l-.93-.21a30 30 0 0 0-13 0l-.93.21a2 2 0 0 0-1.57 2V18z"></path><path fill="#cda1a7" d="M1,33V55a2,2,0,0,0,2,2H7a2,2,0,0,0,2-2V51a2,2,0,0,1,2-2H53a2,2,0,0,1,2,2v4a2,2,0,0,0,2,2h4a2,2,0,0,0,2-2V33Z"></path><path fill="#deb4ba" d="M1 33H63V37H1z"></path><path fill="#8d6c9f" d="M60,23.52V8.73a3,3,0,0,0-2.56-3l-.38-.06a170.91,170.91,0,0,0-50.12,0l-.38.06A3,3,0,0,0,4,8.73v14.8A9,9,0,0,0,0,31V55a3,3,0,0,0,3,3H7a3,3,0,0,0,3-3V51a1,1,0,0,1,1-1H53a1,1,0,0,1,1,1v4a3,3,0,0,0,3,3h4a3,3,0,0,0,3-3V31A9,9,0,0,0,60,23.52ZM6,8.73a1,1,0,0,1,.85-1l.38-.06a168.88,168.88,0,0,1,49.53,0l.38.06a1,1,0,0,1,.85,1v13.8A8.94,8.94,0,0,0,55,22H54V16.6a3,3,0,0,0-2.35-2.93l-.93-.21a31.21,31.21,0,0,0-13.45,0l-.93.21A3,3,0,0,0,34,16.6V22H30V16.6a3,3,0,0,0-2.35-2.93l-.93-.21a31.21,31.21,0,0,0-13.45,0l-.93.21A3,3,0,0,0,10,16.6V22H9a8.94,8.94,0,0,0-3,.53ZM52,22H36V16.6a1,1,0,0,1,.78-1l.93-.21a29.21,29.21,0,0,1,12.58,0l.93.21a1,1,0,0,1,.78,1ZM28,22H12V16.6a1,1,0,0,1,.78-1l.93-.21a29.21,29.21,0,0,1,12.58,0l.93.21a1,1,0,0,1,.78,1ZM62,55a1,1,0,0,1-1,1H57a1,1,0,0,1-1-1V51a3,3,0,0,0-3-3H11a3,3,0,0,0-3,3v4a1,1,0,0,1-1,1H3a1,1,0,0,1-1-1V34H62ZM2,32V31a7,7,0,0,1,7-7H55a7,7,0,0,1,7,7v1Z"></path><path fill="#8d6c9f" d="M12 26a1 1 0 0 0-1 1v2a1 1 0 0 0 2 0V27A1 1 0 0 0 12 26zM7 26a1 1 0 0 0-1 1v2a1 1 0 0 0 2 0V27A1 1 0 0 0 7 26zM17 26a1 1 0 0 0-1 1v2a1 1 0 0 0 2 0V27A1 1 0 0 0 17 26zM22 26a1 1 0 0 0-1 1v2a1 1 0 0 0 2 0V27A1 1 0 0 0 22 26zM27 26a1 1 0 0 0-1 1v2a1 1 0 0 0 2 0V27A1 1 0 0 0 27 26zM32 26a1 1 0 0 0-1 1v2a1 1 0 0 0 2 0V27A1 1 0 0 0 32 26zM37 26a1 1 0 0 0-1 1v2a1 1 0 0 0 2 0V27A1 1 0 0 0 37 26zM42 26a1 1 0 0 0-1 1v2a1 1 0 0 0 2 0V27A1 1 0 0 0 42 26zM47 26a1 1 0 0 0-1 1v2a1 1 0 0 0 2 0V27A1 1 0 0 0 47 26zM52 26a1 1 0 0 0-1 1v2a1 1 0 0 0 2 0V27A1 1 0 0 0 52 26zM57 26a1 1 0 0 0-1 1v2a1 1 0 0 0 2 0V27A1 1 0 0 0 57 26zM5 38H51a1 1 0 0 0 0-2H5a1 1 0 0 0 0 2zM55 38h4a1 1 0 0 0 0-2H55a1 1 0 0 0 0 2z"></path></svg>