<svg xmlns="http://www.w3.org/2000/svg" width="64" height="64" viewBox="0 0 64 64"><path fill="#c2cde7" d="M59,19v34c0,1.1-0.9,2-2,2H7c-1.1,0-2-0.9-2-2V19H59z"></path><path fill="#ced8ed" d="M57,35H7c-1.105,0-2-0.895-2-2V19h54v14C59,34.105,58.105,35,57,35z"></path><path fill="#ffeb9b" d="M59 19H5c-1.105 0-2-.895-2-2v0c0-1.105.895-2 2-2h54c1.105 0 2 .895 2 2v0C61 18.105 60.105 19 59 19zM12.153 61H10.18c-.618 0-1.088-.555-.986-1.164L10 55h4l-.861 5.164C13.059 60.647 12.642 61 12.153 61zM53.82 61h-1.972c-.489 0-.906-.353-.986-.836L50 55h4l.806 4.836C54.908 60.445 54.437 61 53.82 61z"></path><path fill="#acb7d0" d="M59,53L59,53c0,1.1-0.9,2-2,2H7c-1.1,0-2-0.9-2-2v0c0-1.657,1.343-3,3-3h48 C57.657,50,59,51.343,59,53z"></path><path fill="#c2cde7" d="M5 19H59V22H5z"></path><path fill="#8d6c9f" d="M62,17c0-1.654-1.346-3-3-3H5c-1.654,0-3,1.346-3,3c0,1.302,0.839,2.402,2,2.816V53 c0,1.654,1.346,3,3,3h1.819l-0.611,3.672c-0.097,0.581,0.065,1.172,0.446,1.621S9.592,62,10.181,62h1.973 c0.98,0,1.81-0.702,1.973-1.672L14.847,56h34.305l0.721,4.33c0.163,0.968,0.992,1.67,1.973,1.67h1.973 c0.589,0,1.146-0.258,1.526-0.707s0.543-1.04,0.446-1.621L55.181,56H57c1.654,0,3-1.346,3-3V19.816C61.161,19.402,62,18.302,62,17z M58,34H6V20h52V34z M12.152,60h-1.972l0.667-4h1.972L12.152,60z M53.821,60h-1.975l-0.666-4h1.973L53.821,60z M57,54h-2.152 h-6.028H15.181H9.152H7c-0.552,0-1-0.448-1-1V36h52v17C58,53.552,57.552,54,57,54z M59,18H5c-0.552,0-1-0.448-1-1s0.448-1,1-1h54 c0.552,0,1,0.448,1,1S59.552,18,59,18z"></path><path fill="#8d6c9f" d="M9 48c-.553 0-1 .447-1 1v2c0 .553.447 1 1 1s1-.447 1-1v-2C10 48.447 9.553 48 9 48zM14 48c-.553 0-1 .447-1 1v2c0 .553.447 1 1 1s1-.447 1-1v-2C15 48.447 14.553 48 14 48zM19 48c-.553 0-1 .447-1 1v2c0 .553.447 1 1 1s1-.447 1-1v-2C20 48.447 19.553 48 19 48zM24 48c-.553 0-1 .447-1 1v2c0 .553.447 1 1 1s1-.447 1-1v-2C25 48.447 24.553 48 24 48zM29 48c-.553 0-1 .447-1 1v2c0 .553.447 1 1 1s1-.447 1-1v-2C30 48.447 29.553 48 29 48zM39 48c-.553 0-1 .447-1 1v2c0 .553.447 1 1 1s1-.447 1-1v-2C40 48.447 39.553 48 39 48zM34 48c-.553 0-1 .447-1 1v2c0 .553.447 1 1 1s1-.447 1-1v-2C35 48.447 34.553 48 34 48zM44 48c-.553 0-1 .447-1 1v2c0 .553.447 1 1 1s1-.447 1-1v-2C45 48.447 44.553 48 44 48zM49 48c-.553 0-1 .447-1 1v2c0 .553.447 1 1 1s1-.447 1-1v-2C50 48.447 49.553 48 49 48zM54 48c-.553 0-1 .447-1 1v2c0 .553.447 1 1 1s1-.447 1-1v-2C55 48.447 54.553 48 54 48zM26 28h10c.553 0 1-.447 1-1s-.447-1-1-1H26c-.553 0-1 .447-1 1S25.447 28 26 28zM36 40H26c-.553 0-1 .447-1 1s.447 1 1 1h10c.553 0 1-.447 1-1S36.553 40 36 40z"></path></svg>