<svg xmlns="http://www.w3.org/2000/svg" width="64" height="64" viewBox="0 0 64 64"><path fill="#cda1a7" d="M10,6h44c1.105,0,2,0.895,2,2v51c0,1.105-0.895,2-2,2H10c-1.105,0-2-0.895-2-2V8C8,6.895,8.895,6,10,6z"></path><path fill="#c4939c" d="M8,56h48v3c0,1.105-0.895,2-2,2H10c-1.105,0-2-0.895-2-2V56z"></path><path fill="none" stroke="#8d6c9f" stroke-linejoin="round" stroke-miterlimit="10" stroke-width="2" d="M10,6h44c1.105,0,2,0.895,2,2v51c0,1.105-0.895,2-2,2H10c-1.105,0-2-0.895-2-2V8C8,6.895,8.895,6,10,6z"></path><path fill="#c2cde7" d="M31.492,26h1.015C41.616,26,49,33.384,49,42.492V61H15V42.492C15,33.384,22.384,26,31.492,26z"></path><path fill="#acb7d0" d="M15 56H49V61H15z"></path><path fill="none" stroke="#8d6c9f" stroke-linejoin="round" stroke-miterlimit="10" stroke-width="2" d="M31.492,26h1.015C41.616,26,49,33.384,49,42.492V61H15V42.492C15,33.384,22.384,26,31.492,26z"></path><path fill="#fff" d="M50.498 26.833L51.736 29.097 54 30.335 51.736 31.574 50.498 33.838 49.26 31.574 46.996 30.335 49.26 29.097zM45.415 23L46.27 24.564 47.833 25.419 46.27 26.274 45.415 27.838 44.559 26.274 42.996 25.419 44.559 24.564zM13.5 27.852L14.083 28.917 15.148 29.5 14.083 30.083 13.5 31.148 12.917 30.083 11.852 29.5 12.917 28.917z"></path><path fill="#f9dd8f" d="M37.143,45.688c-0.021,1.662,1.348-3.22,1.388-4.71c0.013-0.473,0.635-0.645,0.883-0.242c0.251,0.408,0.485,0.827,0.702,1.257C41.319,44.372,42,47.057,42,49.908v0.261c0,5.432-4.224,10.059-9.653,10.252C26.647,60.623,22,56.063,22,50.409c0-5.318,3.665-6.408,3.953-11.397c0.018-0.32,0.345-0.533,0.644-0.417c1.148,0.444,3.506,1.664,3.882,4.3L29,37.999v-6C29,31.999,37.285,34.376,37.143,45.688z"></path><path fill="#f6d397" d="M39.618,51.804c1.266,0.279,1.927,1.666,1.371,2.837c-1.562,3.29-4.798,5.648-8.639,5.779c-3.755,0.134-7.072-1.801-8.898-4.752c-0.596-0.963-0.243-2.234,0.747-2.784l0,0c0.933-0.518,2.102-0.21,2.665,0.696c0.243,0.391,0.533,0.757,0.866,1.09c1.13,1.13,2.64,1.76,4.25,1.76l0.23-0.01c2.248-0.081,4.202-1.496,5.158-3.494c0.406-0.849,1.323-1.325,2.242-1.123L39.618,51.804z"></path><path fill="#8d6c9f" d="M43,49.907c0-2.936-0.67-5.75-1.991-8.364c-0.229-0.455-0.478-0.898-0.743-1.33c-0.344-0.562-1.001-0.818-1.638-0.651c-0.535,0.144-0.914,0.565-1.039,1.084c-1.054-3.853-3.721-7.269-7.691-9.461c-0.521-0.289-1.164-0.235-1.636,0.136c-0.469,0.371-0.669,0.98-0.51,1.553c0.575,2.083,0.642,3.612,0.442,5.386c-0.477-0.275-0.916-0.473-1.236-0.596c-0.437-0.169-0.934-0.12-1.33,0.135c-0.396,0.256-0.648,0.689-0.674,1.156c-0.124,2.142-0.957,3.49-1.839,4.918C22.106,45.506,21,47.359,21,50.408c0,3.018,1.159,5.834,3.331,7.93c2.073,2.001,4.774,3.089,7.645,3.089c0.135,0,0.271-0.003,0.406-0.008C38.237,61.212,43,56.164,43,50.168V49.907z M41,50.168c0,4.932-3.897,9.083-8.688,9.253c-2.477,0.08-4.814-0.809-6.592-2.522c-1.777-1.716-2.72-4.021-2.72-6.49c0-2.482,0.863-3.94,1.817-5.485c0.839-1.356,1.777-2.878,2.065-5.109c1.061,0.532,2.363,1.521,2.605,3.223c0.078,0.546,0.581,0.922,1.132,0.849c0.546-0.078,0.927-0.585,0.849-1.132c-0.183-1.286-0.759-2.274-1.454-3.04c0.341-2.157,0.43-3.917-0.035-6.145c5.03,3.314,7.254,9.019,5.555,14.542c-0.162,0.527,0.134,1.087,0.662,1.25c0.098,0.03,0.197,0.044,0.294,0.044c0.428,0,0.823-0.276,0.956-0.706c0.253-0.821,0.427-1.645,0.533-2.466c0.647-0.956,1.126-2.205,1.371-3.532C40.445,44.96,41,47.384,41,49.907V50.168z"></path><path fill="#faefde" d="M57,21H7c-1.105,0-2-0.895-2-2v-6c0-1.105,0.895-2,2-2h50c1.105,0,2,0.895,2,2v6C59,20.105,58.105,21,57,21z"></path><path fill="none" stroke="#8d6c9f" stroke-linecap="round" stroke-linejoin="round" stroke-miterlimit="10" stroke-width="2" d="M50 11h7c1.105 0 2 .895 2 2v6c0 1.105-.895 2-2 2H18M13 21H7c-1.105 0-2-.895-2-2v-6c0-1.105.895-2 2-2h38"></path><path fill="#8d6c9f" d="M12 14c-.553 0-1 .447-1 1v2c0 .553.447 1 1 1s1-.447 1-1v-2C13 14.447 12.553 14 12 14zM17 14c-.553 0-1 .447-1 1v2c0 .553.447 1 1 1s1-.447 1-1v-2C18 14.447 17.553 14 17 14zM22 14c-.553 0-1 .447-1 1v2c0 .553.447 1 1 1s1-.447 1-1v-2C23 14.447 22.553 14 22 14zM27 14c-.553 0-1 .447-1 1v2c0 .553.447 1 1 1s1-.447 1-1v-2C28 14.447 27.553 14 27 14zM32 14c-.553 0-1 .447-1 1v2c0 .553.447 1 1 1s1-.447 1-1v-2C33 14.447 32.553 14 32 14zM37 14c-.553 0-1 .447-1 1v2c0 .553.447 1 1 1s1-.447 1-1v-2C38 14.447 37.553 14 37 14zM42 14c-.553 0-1 .447-1 1v2c0 .553.447 1 1 1s1-.447 1-1v-2C43 14.447 42.553 14 42 14zM47 14c-.553 0-1 .447-1 1v2c0 .553.447 1 1 1s1-.447 1-1v-2C48 14.447 47.553 14 47 14zM52 14c-.553 0-1 .447-1 1v2c0 .553.447 1 1 1s1-.447 1-1v-2C53 14.447 52.553 14 52 14z"></path></svg>