<svg xmlns="http://www.w3.org/2000/svg" width="128" height="128" viewBox="0 0 128 128"><path fill="#b9b2d8" d="M49,19v90c0,5.5,4.5,10,10,10h40c5.5,0,10-4.5,10-10V19c0-5.5-4.5-10-10-10H59C53.5,9,49,13.5,49,19z"></path><path fill="#9184bf" d="M99,109H59c-5.5,0-10-4.5-10-10v10c0,5.5,4.5,10,10,10h40c5.5,0,10-4.5,10-10V99 C109,104.5,104.5,109,99,109"></path><path fill="#eae7f4" d="M29,19v90c0,5.5,4.5,10,10,10h40c5.5,0,10-4.5,10-10V19c0-5.5-4.5-10-10-10H39C33.5,9,29,13.5,29,19"></path><path fill="#e1ddef" d="M81.8,9.4C68,19.4,59,35.6,59,54v20c0,18.4,9,34.6,22.8,44.6c4.1-1.2,7.2-5,7.2-9.6c0,0,0,0,0,0 c0,0,0,0,0,0c0,0,0,0,0,0c0,0,0,0,0,0c0,0,0,0,0,0c0,0,0,0,0,0l0,0V19c0,0,0,0,0,0c0,0,0,0,0,0c0,0,0,0,0,0c0,0,0,0,0,0c0,0,0,0,0,0 c0,0,0,0,0,0C89,14.4,85.9,10.6,81.8,9.4"></path><path fill="#b9b2d8" d="M89,14v100v5C76.3,90.4,76.3,37.6,89,9V14z"></path><path fill="#fff" d="M29,109V19C41.7,47.6,41.7,80.4,29,109z"></path><path fill="#fff" d="M38.5,65V42.2c0-13.4,10.1-23.5,23.2-24.5c0.7,0,1.6-1.7,2.3-1.7V9H39c-5.5,0-10,4.5-10,10v46H38.5z"></path><path fill="#fff" d="M40.3,9h40C65.6,20.7,54.9,20.7,40.3,9z"></path><path fill="#454b54" d="M79,122H39c-7.2,0-13-5.8-13-13V19c0-7.2,5.8-13,13-13h40c7.2,0,13,5.8,13,13v30c0,1.7-1.3,3-3,3 s-3-1.3-3-3V19c0-3.9-3.1-7-7-7H39c-3.9,0-7,3.1-7,7v90c0,3.9,3.1,7,7,7h40c3.9,0,7-3.1,7-7V59c0-1.7,1.3-3,3-3s3,1.3,3,3v50 C92,116.2,86.2,122,79,122z"></path><path fill="#454b54" d="M88 52H39c-1.7 0-3-1.3-3-3s1.3-3 3-3h49c1.7 0 3 1.3 3 3S89.7 52 88 52zM46.5 122h-30c-1.7 0-3-1.3-3-3s1.3-3 3-3h30c1.7 0 3 1.3 3 3S48.2 122 46.5 122zM6.5 122c-.8 0-1.6-.3-2.1-.9-.6-.6-.9-1.3-.9-2.1s.3-1.6.9-2.1c1.1-1.1 3.1-1.1 4.2 0 .6.6.9 1.3.9 2.1s-.3 1.6-.9 2.1C8.1 121.7 7.3 122 6.5 122z"></path><path fill="#454b54" d="M99,122H59c-1.7,0-3-1.3-3-3s1.3-3,3-3h40c3.9,0,7-3.1,7-7V19c0-3.9-3.1-7-7-7H59c-1.7,0-3-1.3-3-3 s1.3-3,3-3h40c7.2,0,13,5.8,13,13v90C112,116.2,106.2,122,99,122z"></path></svg>