<svg xmlns="http://www.w3.org/2000/svg" width="64" height="64" viewBox="0 0 64 64"><path fill="#72caaf" d="M55.432,51.057H8.568c-3.597,0-6.524-2.361-7.286-5.877c-0.762-3.515,0.927-6.877,4.201-8.366 L32,24.762l26.517,12.052c3.274,1.489,4.963,4.852,4.201,8.366C61.956,48.695,59.028,51.057,55.432,51.057z M32,31.352 L7.966,42.276c-0.93,0.423-0.913,1.204-0.82,1.633c0.094,0.429,0.401,1.147,1.423,1.147h46.863c1.021,0,1.329-0.719,1.423-1.147 c0.093-0.429,0.109-1.21-0.82-1.633L32,31.352z"></path><path fill="#5dbc9d" d="M1,44.057c0,5,5.084,7,7.568,7h46.863c2.484,0,7.568-2,7.568-7C63,44.057,4,44.057,1,44.057z"></path><path fill="#72caaf" d="M29 22.057H35V28.057H29z"></path><path fill="#72caaf" d="M32,26.972h-3v-6h3c2.757,0,5-2.218,5-4.943C37,13.256,34.757,11,32,11s-5,2.256-5,5.028h-6 C21,9.947,25.935,5,32,5s11,4.947,11,11.028C43,22.062,38.065,26.972,32,26.972z"></path><path fill="#8d6c9f" d="M55.432 52.057H8.568c-4.079 0-7.399-2.679-8.264-6.665-.863-3.986 1.051-7.8 4.765-9.488L28 25.481v-4.51c0-.553.447-1 1-1h3c2.206 0 4-1.769 4-3.943C36 13.807 34.206 12 32 12s-4 1.807-4 4.028c0 .553-.447 1-1 1h-6c-.553 0-1-.447-1-1C20 9.396 25.383 4 32 4s12 5.396 12 12.028c0 4.325-2.35 8.247-6.029 10.348l20.96 9.527 0 0c3.714 1.688 5.628 5.502 4.765 9.488C62.831 49.378 59.511 52.057 55.432 52.057zM30 21.972v4.153c0 .393-.229.748-.586.91L5.897 37.724c-2.836 1.29-4.298 4.201-3.638 7.244.659 3.044 3.194 5.089 6.309 5.089h46.863c3.114 0 5.649-2.045 6.309-5.089.66-3.043-.802-5.954-3.638-7.244L35.137 27.285c-.373-.17-.604-.55-.585-.959.021-.41.288-.766.677-.897 4.05-1.38 6.771-5.157 6.771-9.4C42 10.499 37.514 6 32 6c-5.178 0-9.448 3.967-9.95 9.028h4.033C26.559 12.179 29.03 10 32 10c3.309 0 6 2.704 6 6.028 0 3.277-2.691 5.943-6 5.943H30zM55.432 46.057H8.568c-1.22 0-2.139-.741-2.399-1.934-.259-1.195.271-2.251 1.383-2.757l24.034-10.925c.264-.119.564-.119.828 0l24.034 10.925c1.111.506 1.642 1.562 1.384 2.755 0 0 0 .001-.001.002C57.57 45.315 56.651 46.057 55.432 46.057zM32 32.45L8.38 43.187c-.231.105-.323.204-.257.511.067.31.187.359.445.359h46.863c.258 0 .377-.05.445-.359l0 0c.066-.307-.025-.405-.257-.511L32 32.45zM56.854 43.909h.01H56.854zM4 58.057c-.553 0-1-.447-1-1v-2c0-.553.447-1 1-1s1 .447 1 1v2C5 57.609 4.553 58.057 4 58.057zM9 58.057c-.553 0-1-.447-1-1v-2c0-.553.447-1 1-1s1 .447 1 1v2C10 57.609 9.553 58.057 9 58.057zM14 58.057c-.553 0-1-.447-1-1v-2c0-.553.447-1 1-1s1 .447 1 1v2C15 57.609 14.553 58.057 14 58.057zM19 58.057c-.553 0-1-.447-1-1v-2c0-.553.447-1 1-1s1 .447 1 1v2C20 57.609 19.553 58.057 19 58.057zM24 58.057c-.553 0-1-.447-1-1v-2c0-.553.447-1 1-1s1 .447 1 1v2C25 57.609 24.553 58.057 24 58.057zM29 58.057c-.553 0-1-.447-1-1v-2c0-.553.447-1 1-1s1 .447 1 1v2C30 57.609 29.553 58.057 29 58.057zM34 58.057c-.553 0-1-.447-1-1v-2c0-.553.447-1 1-1s1 .447 1 1v2C35 57.609 34.553 58.057 34 58.057zM39 58.057c-.553 0-1-.447-1-1v-2c0-.553.447-1 1-1s1 .447 1 1v2C40 57.609 39.553 58.057 39 58.057zM44 58.057c-.553 0-1-.447-1-1v-2c0-.553.447-1 1-1s1 .447 1 1v2C45 57.609 44.553 58.057 44 58.057zM49 58.057c-.553 0-1-.447-1-1v-2c0-.553.447-1 1-1s1 .447 1 1v2C50 57.609 49.553 58.057 49 58.057zM54 58.057c-.553 0-1-.447-1-1v-2c0-.553.447-1 1-1s1 .447 1 1v2C55 57.609 54.553 58.057 54 58.057zM59 58.057c-.553 0-1-.447-1-1v-2c0-.553.447-1 1-1s1 .447 1 1v2C60 57.609 59.553 58.057 59 58.057z"></path></svg>