<svg xmlns="http://www.w3.org/2000/svg" width="64" height="64" viewBox="0 0 64 64"><path fill="#c2cde7" d="M62,51H2c-0.552,0-1-0.448-1-1v-1c0-2.209,1.791-4,4-4h54c2.209,0,4,1.791,4,4v1 C63,50.552,62.552,51,62,51z"></path><path fill="#f9dd8f" d="M33,27v2H23v-2c0-1.1,0.9-2,2-2h6C32.1,25,33,25.9,33,27z"></path><path fill="#faefde" d="M61,45H3l2.47-4.94C5.48,40.04,5.49,40.02,5.5,40c3.4-6.75,10.31-11,17.86-11H43l1.74-6.95 c0.14-0.57-0.23-1.13-0.81-1.23l-13.59-2.26C28.41,18.24,27,16.57,27,14.61V14c0-0.55,0.45-1,1-1h17.19c4.59,0,8.59,3.12,9.7,7.57 L57,29L61,45z"></path><path fill="#efd8be" d="M61,45H3l2.47-4.94C5.48,40.04,5.49,40.02,5.5,40h54.25L61,45z"></path><path fill="#fff7f0" d="M44.74,22.05c0.14-0.57-0.23-1.13-0.81-1.23l-13.59-2.26C28.41,18.24,27,16.57,27,14.61V14 c0-0.55,0.45-1,1-1h17.19c4.59,0,8.59,3.12,9.7,7.57L57,29H43L44.74,22.05z"></path><path fill="#ffeb9b" d="M28,25v4h-5v-2c0-1.1,0.9-2,2-2H28z"></path><path fill="#8d6c9f" d="M62.047,45.064l-6.183-24.732C54.637,15.426,50.249,12,45.192,12H28c-1.103,0-2,0.897-2,2v0.611 c0,2.455,1.757,4.529,4.178,4.932l13.589,2.265L42.219,28H42h-8v-1c0-1.654-1.346-3-3-3h-6c-1.654,0-3,1.346-3,3v1.047 c-7.454,0.473-14.047,4.81-17.422,11.561L1.777,45.21C0.699,46.127,0,47.477,0,49v1c0,1.103,0.897,2,2,2h60c1.103,0,2-0.897,2-2v-1 C64,47.395,63.226,45.98,62.047,45.064z M24,27c0-0.551,0.449-1,1-1h6c0.551,0,1,0.449,1,1v1h-8V27z M4.618,44l1.749-3.497 c0.199-0.398,0.41-0.785,0.633-1.164V41c0,0.552,0.448,1,1,1s1-0.448,1-1v-2c0-0.552-0.448-1-1-1c-0.054,0-0.1,0.022-0.151,0.03 C11.375,33.019,17.092,30,23.361,30H34h8h1.781H47c0.552,0,1-0.448,1-1s-0.448-1-1-1h-2.719l1.427-5.707 c0.135-0.54,0.038-1.116-0.268-1.582s-0.794-0.785-1.344-0.876l-13.589-2.265C29.054,17.329,28,16.084,28,14.611V14h17.192 c4.137,0,7.728,2.803,8.731,6.817l4.307,17.229C58.155,38.028,58.082,38,58,38c-0.552,0-1,0.448-1,1v2c0,0.552,0.448,1,1,1 c0.528,0,0.949-0.413,0.986-0.932L59.719,44H59H5H4.618z M2,50v-1c0-1.654,1.346-3,3-3h54c1.654,0,3,1.346,3,3l0.001,1H2z"></path><path fill="#8d6c9f" d="M38 38c-.552 0-1 .448-1 1v2c0 .552.448 1 1 1s1-.448 1-1v-2C39 38.448 38.552 38 38 38zM48 38c-.552 0-1 .448-1 1v2c0 .552.448 1 1 1s1-.448 1-1v-2C49 38.448 48.552 38 48 38zM43 38c-.552 0-1 .448-1 1v2c0 .552.448 1 1 1s1-.448 1-1v-2C44 38.448 43.552 38 43 38zM53 38c-.552 0-1 .448-1 1v2c0 .552.448 1 1 1s1-.448 1-1v-2C54 38.448 53.552 38 53 38zM18 38c-.552 0-1 .448-1 1v2c0 .552.448 1 1 1s1-.448 1-1v-2C19 38.448 18.552 38 18 38zM28 38c-.552 0-1 .448-1 1v2c0 .552.448 1 1 1s1-.448 1-1v-2C29 38.448 28.552 38 28 38zM23 38c-.552 0-1 .448-1 1v2c0 .552.448 1 1 1s1-.448 1-1v-2C24 38.448 23.552 38 23 38zM13 38c-.552 0-1 .448-1 1v2c0 .552.448 1 1 1s1-.448 1-1v-2C14 38.448 13.552 38 13 38zM33 38c-.552 0-1 .448-1 1v2c0 .552.448 1 1 1s1-.448 1-1v-2C34 38.448 33.552 38 33 38z"></path></svg>