<svg xmlns="http://www.w3.org/2000/svg" data-name="Layer 1" width="64" height="64" viewBox="0 0 64 64"><path fill="#c2cde7" d="M7,19H57a0,0,0,0,1,0,0V53a4,4,0,0,1-4,4H11a4,4,0,0,1-4-4V19A0,0,0,0,1,7,19Z"></path><path fill="#ced8ed" d="M7,20h6a4,4,0,0,1,4,4V57a0,0,0,0,1,0,0H7a0,0,0,0,1,0,0V20A0,0,0,0,1,7,20Z" transform="rotate(-180 12 38.5)"></path><path fill="#b5c4e0" d="M7 19H57V25H7z"></path><path fill="#b5c4e0" d="M42,20H57a0,0,0,0,1,0,0V53a4,4,0,0,1-4,4H42a0,0,0,0,1,0,0V20A0,0,0,0,1,42,20Z"></path><path fill="#bbdef9" d="M53.66,15H10l2.83-2.83A4,4,0,0,1,15.66,11H48a4,4,0,0,1,2.83,1.17Z"></path><path fill="#f9e3ae" d="M58,19H6a2,2,0,0,1-2-2H4a2,2,0,0,1,2-2H58a2,2,0,0,1,2,2h0A2,2,0,0,1,58,19Z"></path><path fill="#f283a5" d="M61.89 29.55L57 32V25h4a2 2 0 0 1 2 2v.76A2 2 0 0 1 61.89 29.55zM2.11 29.55L7 32V25H3a2 2 0 0 0-2 2v.76A2 2 0 0 0 2.11 29.55z"></path><path fill="#f9e3ae" d="M27 7H37V10H27z"></path><path fill="#8d6c9f" d="M45 52H11a1 1 0 0 0 0 2H45a1 1 0 0 0 0-2zM53 52H49a1 1 0 0 0 0 2h4a1 1 0 0 0 0-2zM12 30a1 1 0 0 0 1-1V27a1 1 0 1 0-2 0v2A1 1 0 0 0 12 30zM17 30a1 1 0 0 0 1-1V27a1 1 0 1 0-2 0v2A1 1 0 0 0 17 30zM22 30a1 1 0 0 0 1-1V27a1 1 0 1 0-2 0v2A1 1 0 0 0 22 30zM27 30a1 1 0 0 0 1-1V27a1 1 0 1 0-2 0v2A1 1 0 0 0 27 30zM32 30a1 1 0 0 0 1-1V27a1 1 0 1 0-2 0v2A1 1 0 0 0 32 30zM37 30a1 1 0 0 0 1-1V27a1 1 0 1 0-2 0v2A1 1 0 0 0 37 30zM42 30a1 1 0 0 0 1-1V27a1 1 0 1 0-2 0v2A1 1 0 0 0 42 30zM48 27a1 1 0 1 0-2 0v2a1 1 0 0 0 2 0zM52 30a1 1 0 0 0 1-1V27a1 1 0 1 0-2 0v2A1 1 0 0 0 52 30z"></path><path fill="#8d6c9f" d="M61,24H58V20h0a3,3,0,1,0,0-6H54.07l-2.54-2.54A5,5,0,0,0,48,10H38V9a3,3,0,0,0-3-3H29a3,3,0,0,0-3,3v1H15.66a5,5,0,0,0-3.54,1.46L9.59,14H6a3,3,0,1,0,0,6H6v4H3a3,3,0,0,0-3,3v.76a3,3,0,0,0,1.66,2.68L6,32.63V53a5,5,0,0,0,5,5H53a5,5,0,0,0,5-5V32.63l4.37-2.18A3,3,0,0,0,64,27.76V27A3,3,0,0,0,61,24ZM6,30.38,2.55,28.66A1,1,0,0,1,2,27.76V27a1,1,0,0,1,1-1H6ZM28,9a1,1,0,0,1,1-1h6a1,1,0,0,1,1,1v1H28ZM13.54,12.88A3,3,0,0,1,15.66,12H48a3,3,0,0,1,2.12.88L51.24,14H12.41ZM5,17a1,1,0,0,1,1-1H58a1,1,0,1,1,0,2H6A1,1,0,0,1,5,17ZM56,53a3,3,0,0,1-3,3H11a3,3,0,0,1-3-3V20H56Zm6-25.24a1,1,0,0,1-.55.89L58,30.38V26h3a1,1,0,0,1,1,1Z"></path></svg>