<svg xmlns="http://www.w3.org/2000/svg" id="Layer_1" x="0" y="0" version="1.1" width="128" height="128" viewBox="0 0 128 128" xml:space="preserve"><path fill="#444b54" d="M36.9 3.3c-.4-1.6-2-2.6-3.6-2.2-1.6.4-2.6 2-2.2 3.6l30 120c.3 1.4 1.6 2.3 2.9 2.3.2 0 .5 0 .7-.1 1.6-.4 2.6-2 2.2-3.6L36.9 3.3zM96.9 123.3l-30-120c-.4-1.6-2-2.6-3.6-2.2-1.6.4-2.6 2-2.2 3.6l1.6 6.3H46c-1.7 0-3 1.3-3 3s1.3 3 3 3h18.2l3.5 14H51c-1.7 0-3 1.3-3 3s1.3 3 3 3h18.2l3.5 14H56c-1.7 0-3 1.3-3 3s1.3 3 3 3h18.2l3.5 14H61c-1.7 0-3 1.3-3 3s1.3 3 3 3h18.2l3.5 14H66c-1.7 0-3 1.3-3 3s1.3 3 3 3h18.2l3.5 14H71c-1.7 0-3 1.3-3 3s1.3 3 3 3h18.2l1.9 7.7c.3 1.4 1.6 2.3 2.9 2.3.2 0 .5 0 .7-.1C96.3 126.5 97.3 124.9 96.9 123.3z"></path></svg>