<svg xmlns="http://www.w3.org/2000/svg" width="64" height="64" viewBox="0 0 64 64"><path fill="#f9dd8f" d="M42,61H20c-1.105,0-2-0.895-2-2v0c0-1.105,0.895-2,2-2h22c1.105,0,2,0.895,2,2v0 C44,60.105,43.105,61,42,61z"></path><path fill="#ffeb9b" d="M26,61h-6c-1.105,0-2-0.895-2-2v0c0-1.105,0.895-2,2-2h6V61z"></path><path fill="#f7cc8f" d="M42,61h-6v-4h6c1.105,0,2,0.895,2,2v0C44,60.105,43.105,61,42,61z"></path><path fill="#efd8be" d="M52,31H10c-1.105,0-2-0.895-2-2v0c0-1.105,0.895-2,2-2h42c1.105,0,2,0.895,2,2v0 C54,30.105,53.105,31,52,31z"></path><path fill="#faefde" d="M43.438,3H18.562c-0.918,0-1.718,0.625-1.94,1.515L11,27h40L45.379,4.515 C45.156,3.625,44.356,3,43.438,3z"></path><path fill="#fff7f0" d="M24,3l-3,24H11l5.62-22.49C16.84,3.62,17.64,3,18.56,3H24z"></path><path fill="#efd8be" d="M37,3l3,24h7L41.38,4.51C41.16,3.62,40.36,3,39.44,3H37z"></path><path fill="#cda1a7" d="M45.68,48c-0.18,2.58-1.19,5.09-3,7.12L41,57H21l-1.68-1.88c-1.81-2.03-2.82-4.54-3-7.12 c-0.19-2.69,0.52-5.45,2.17-7.78L22.88,34L25,31h12l2.12,3l4.39,6.22C45.16,42.55,45.87,45.31,45.68,48z"></path><path fill="#c4939c" d="M41.852 48c2.141 0 3.662 2.208 2.77 4.154-.486 1.06-1.135 2.061-1.942 2.966L41 57H21l-1.68-1.88c-.807-.905-1.455-1.906-1.942-2.966C16.486 50.208 18.008 48 20.148 48H41.852zM39.12 34L22.88 34 25 31 37 31z"></path><path fill="#8d6c9f" d="M52,26h-0.219L46.349,4.272C46.015,2.935,44.818,2,43.438,2H18.562 c-1.379,0-2.576,0.935-2.911,2.272L10.219,26H10c-1.654,0-3,1.346-3,3s1.346,3,3,3h13.07l-5.397,7.646 c-3.502,4.961-3.13,11.595,0.904,16.134l0.373,0.42C17.814,56.627,17,57.716,17,59c0,1.654,1.346,3,3,3h22c1.654,0,3-1.346,3-3 c0-1.284-0.814-2.373-1.95-2.8l0.373-0.42c4.034-4.539,4.406-11.173,0.904-16.134L38.93,32H52c1.654,0,3-1.346,3-3S53.654,26,52,26 z M16.791,7.958C16.861,7.973,16.926,8,17,8h17c0.552,0,1-0.448,1-1s-0.448-1-1-1H17.281l0.311-1.242 C17.703,4.312,18.102,4,18.562,4h24.877c0.46,0,0.859,0.312,0.97,0.758L49.719,26H12.281L16.791,7.958z M42,58c0.551,0,1,0.449,1,1 s-0.449,1-1,1H20c-0.551,0-1-0.449-1-1s0.449-1,1-1h0.551h20.898H42z M42.693,40.799c2.963,4.198,2.648,9.812-0.766,13.651 L40.551,56H21.449l-1.377-1.549c-3.414-3.84-3.729-9.454-0.766-13.651L25.518,32h10.964L42.693,40.799z M52,30H37.518H24.482H10 c-0.551,0-1-0.449-1-1s0.449-1,1-1h42c0.551,0,1,0.449,1,1S52.551,30,52,30z"></path><path fill="#8d6c9f" d="M42 6h-4c-.552 0-1 .448-1 1s.448 1 1 1h4c.552 0 1-.448 1-1S42.552 6 42 6zM21 46c-.552 0-1 .448-1 1v2c0 .552.448 1 1 1s1-.448 1-1v-2C22 46.448 21.552 46 21 46zM31 50c.552 0 1-.448 1-1v-2c0-.552-.448-1-1-1s-1 .448-1 1v2C30 49.552 30.448 50 31 50zM25 47v2c0 .552.448 1 1 1s1-.448 1-1v-2c0-.552-.448-1-1-1S25 46.448 25 47zM36 50c.552 0 1-.448 1-1v-2c0-.552-.448-1-1-1s-1 .448-1 1v2C35 49.552 35.448 50 36 50zM41 50c.552 0 1-.448 1-1v-2c0-.552-.448-1-1-1s-1 .448-1 1v2C40 49.552 40.448 50 41 50z"></path></svg>