<svg xmlns="http://www.w3.org/2000/svg" data-name="Layer 1" width="64" height="64" viewBox="0 0 64 64"><path fill="#ced8ed" d="M63 51L1 51 7 39 57 39 63 51z"></path><path fill="#b5c4e0" d="M1 51H63V57H1z"></path><path fill="#c2cde7" d="M7 7H57V39H7zM6 47H58a4 4 0 0 1 4 4v0a0 0 0 0 1 0 0H2a0 0 0 0 1 0 0v0a4 4 0 0 1 4-4z"></path><path fill="#dae2ef" d="M57.06 11L57 7 7 7 6.94 11 57.06 11z"></path><path fill="#c5e4fa" d="M11 11H53V35H11z"></path><path fill="#e3f2ff" d="M39 35.27L52 22.27 52 11 50.27 11 26 35.27 39 35.27zM17 35.35L22.22 35.35 46.57 11 41.35 11 17 35.35zM11 35L12.86 35 36.86 11 33.61 11 11 33.61 11 35z"></path><path fill="#fff8f8" d="M18.5 15L19.74 17.26 22 18.5 19.74 19.74 18.5 22 17.26 19.74 15 18.5 17.26 17.26 18.5 15zM41.42 14.16L42.27 15.73 43.84 16.58 42.27 17.44 41.42 19 40.56 17.44 39 16.58 40.56 15.73 41.42 14.16zM44.65 28.7L45.23 29.77 46.3 30.35 45.23 30.93 44.65 32 44.06 30.93 43 30.35 44.06 29.77 44.65 28.7zM35.63 22.87a.86.86 0 0 0 .16-1.28 5.18 5.18 0 1 0 0 6.83.86.86 0 0 0-.16-1.28 2.58 2.58 0 0 1 0-4.26z"></path><path fill="#8d6c9f" d="M63.47,49.71,58.11,39a1,1,0,0,1-.11-.45V9a3,3,0,0,0-3-3H8.94a3,3,0,0,0-3,3L6,38.53a1,1,0,0,1-.11.45L.53,49.71A5,5,0,0,0,0,51.94V55a3,3,0,0,0,3,3H61a3,3,0,0,0,3-3V51.94A5,5,0,0,0,63.47,49.71ZM7.62,40H45a1,1,0,0,0,0-2H8L7.94,9a1,1,0,0,1,1-1H55a1,1,0,0,1,1,1V38.53a3,3,0,0,0,.32,1.34L61.38,50H2.62ZM62,55a1,1,0,0,1-1,1H3a1,1,0,0,1-1-1V52H62Z"></path><path fill="#8d6c9f" d="M54 39a1 1 0 0 0-1-1H49a1 1 0 0 0 0 2h4A1 1 0 0 0 54 39zM18 47a1 1 0 0 0 1 1h2a1 1 0 0 0 0-2H19A1 1 0 0 0 18 47zM16 44h2a1 1 0 0 0 0-2H16a1 1 0 0 0 0 2zM24 47a1 1 0 0 0 1 1H39a1 1 0 0 0 0-2H25A1 1 0 0 0 24 47zM22 44h2a1 1 0 0 0 0-2H22a1 1 0 0 0 0 2zM34 44h2a1 1 0 0 0 0-2H34a1 1 0 0 0 0 2zM42 47a1 1 0 0 0 1 1h2a1 1 0 0 0 0-2H43A1 1 0 0 0 42 47zM28 44h2a1 1 0 0 0 0-2H28a1 1 0 0 0 0 2zM40 44h2a1 1 0 0 0 0-2H40a1 1 0 0 0 0 2zM52 42a1 1 0 0 0 0 2h2a1 1 0 0 0 0-2zM46 44h2a1 1 0 0 0 0-2H46a1 1 0 0 0 0 2zM12 47a1 1 0 0 0 1 1h2a1 1 0 0 0 0-2H13A1 1 0 0 0 12 47zM10 44h2a1 1 0 0 0 0-2H10a1 1 0 0 0 0 2zM51 46H49a1 1 0 0 0 0 2h2a1 1 0 0 0 0-2zM36.3 22.53A1 1 0 0 0 36.49 21a6 6 0 1 0 0 7.91 1 1 0 0 0-.18-1.48 3 3 0 0 1 0-4.94zM34.24 28.3A3.89 3.89 0 0 1 32 29a4 4 0 0 1 0-8 3.89 3.89 0 0 1 2.24.7 5 5 0 0 0 0 6.59zM33 18a1 1 0 0 0 .71-.29l1-1a1 1 0 0 0-1.41-1.41l-1 1A1 1 0 0 0 33 18z"></path><path fill="#8d6c9f" d="M54,34V12a2,2,0,0,0-2-2H12a2,2,0,0,0-2,2V34a2,2,0,0,0,2,2H52A2,2,0,0,0,54,34ZM12,12H52V34H12Z"></path></svg>