<svg xmlns="http://www.w3.org/2000/svg" width="64" height="64" viewBox="0 0 64 64"><path fill="#ced8ed" d="M61,53H3c-1.105,0-2-0.895-2-2V11c0-1.105,0.895-2,2-2h58c1.105,0,2,0.895,2,2v40 C63,52.105,62.105,53,61,53z"></path><path fill="#b5c4e0" d="M1 39H63V53H1z"></path><path fill="#a8b7d1" d="M11 57H9c-1.105 0-2-.895-2-2v-2h6v2C13 56.105 12.105 57 11 57zM55 57h-2c-1.105 0-2-.895-2-2v-2h6v2C57 56.105 56.105 57 55 57z"></path><path fill="#8b8e98" d="M47,16v5.63c0,0.71-0.44,1.31-1.06,1.66C44.24,24.22,43,27.32,43,31s1.24,6.78,2.94,7.71 c0.62,0.35,1.06,0.95,1.06,1.66V46c0,0.55-0.45,1-1,1H8c-0.55,0-1-0.45-1-1V16c0-0.55,0.45-1,1-1h38C46.55,15,47,15.45,47,16z"></path><path fill="#fff" d="M55 36A3 3 0 1 0 55 42 3 3 0 1 0 55 36zM55 26A3 3 0 1 0 55 32 3 3 0 1 0 55 26z"></path><path fill="#a1a4ad" d="M43 31c0 3.68 1.24 6.78 2.94 7.71.62.35 1.06.95 1.06 1.66V42l-5 5H18.39L47 18.39v3.24c0 .71-.44 1.31-1.06 1.66C44.24 24.22 43 27.32 43 31zM46 15L14 47 8 47 40 15zM37 15L7 45 6.85 45.15 6.85 42.15 7 42 34 15z"></path><path fill="#8d6c9f" d="M61,8H3c-1.654,0-3,1.346-3,3v40c0,1.654,1.346,3,3,3h3v1c0,1.654,1.346,3,3,3h2 c1.654,0,3-1.346,3-3v-1h36v1c0,1.654,1.346,3,3,3h2c1.654,0,3-1.346,3-3v-1h3c1.654,0,3-1.346,3-3V11C64,9.346,62.654,8,61,8z M3,10h58c0.551,0,1,0.449,1,1v5c-0.552,0-1,0.448-1,1v2c0,0.552,0.448,1,1,1v18h-3.13c-0.44-1.73-2.01-3-3.87-3s-3.43,1.27-3.87,3 H47c-0.099,0-0.469-0.1-0.582-0.162C45.246,37.193,44,34.577,44,31s1.246-6.193,2.418-6.838c0.99-0.544,1.582-1.49,1.582-2.529V16 c0-1.103-0.897-2-2-2H8c-1.103,0-2,0.897-2,2v22H2V11C2,10.449,2.449,10,3,10z M57,39c0,0.36-0.1,0.71-0.27,1 c-0.35,0.6-0.99,1-1.73,1s-1.38-0.4-1.73-1C53.1,39.71,53,39.36,53,39s0.1-0.71,0.27-1c0.35-0.6,0.99-1,1.73-1s1.38,0.4,1.73,1 C56.9,38.29,57,38.64,57,39z M8,16h38v5.633c0,0.442-0.417,0.706-0.545,0.777C43.388,23.546,42,26.999,42,31 s1.388,7.454,3.455,8.591C45.583,39.661,46,39.925,46,40.367V46H8V16z M12,55c0,0.551-0.449,1-1,1H9c-0.551,0-1-0.449-1-1v-1h4V55z M56,55c0,0.551-0.449,1-1,1h-2c-0.551,0-1-0.449-1-1v-1h4V55z M61,52h-3h-8H14H6H3c-0.551,0-1-0.449-1-1V40h4v6 c0,1.103,0.897,2,2,2h38c1.103,0,2-0.897,2-2v-5.633c0-0.126-0.035-0.245-0.052-0.367h3.182c0.44,1.73,2.01,3,3.87,3 s3.43-1.27,3.87-3H62v11C62,51.551,61.551,52,61,52z"></path><path fill="#8d6c9f" d="M52 20c.552 0 1-.448 1-1v-2c0-.552-.448-1-1-1s-1 .448-1 1v2C51 19.552 51.448 20 52 20zM57 20c.552 0 1-.448 1-1v-2c0-.552-.448-1-1-1s-1 .448-1 1v2C56 19.552 56.448 20 57 20z"></path><path fill="#fff7f0" d="M37 31c-1.763 0-2.592-.415-3.551-.895C32.413 29.587 31.239 29 29.003 29c-2.236 0-3.412.587-4.448 1.105C23.595 30.585 22.766 31 21.001 31s-2.594-.415-3.554-.895C16.411 29.587 15.236 29 13 29c-.552 0-1 .448-1 1s.448 1 1 1c1.764 0 2.593.415 3.553.895C17.59 32.413 18.765 33 21.001 33c2.236 0 3.412-.587 4.448-1.105C26.41 31.415 27.239 31 29.003 31c1.763 0 2.591.415 3.551.895C33.59 32.413 34.765 33 37 33c.552 0 1-.448 1-1S37.552 31 37 31zM37 24c-1.763 0-2.592-.415-3.551-.895C32.413 22.587 31.239 22 29.003 22c-2.236 0-3.412.587-4.448 1.105C23.595 23.585 22.766 24 21.001 24s-2.594-.415-3.554-.895C16.411 22.587 15.236 22 13 22c-.552 0-1 .448-1 1s.448 1 1 1c1.764 0 2.593.415 3.553.895C17.59 25.413 18.765 26 21.001 26c2.236 0 3.412-.587 4.448-1.105C26.41 24.415 27.239 24 29.003 24c1.763 0 2.591.415 3.551.895C33.59 25.413 34.765 26 37 26c.552 0 1-.448 1-1S37.552 24 37 24zM37 38c-1.763 0-2.592-.415-3.551-.895C32.413 36.587 31.239 36 29.003 36c-2.236 0-3.412.587-4.448 1.105C23.595 37.585 22.766 38 21.001 38s-2.594-.415-3.554-.895C16.411 36.587 15.236 36 13 36c-.552 0-1 .448-1 1s.448 1 1 1c1.764 0 2.593.415 3.553.895C17.59 39.413 18.765 40 21.001 40c2.236 0 3.412-.587 4.448-1.105C26.41 38.415 27.239 38 29.003 38c1.763 0 2.591.415 3.551.895C33.59 39.413 34.765 40 37 40c.552 0 1-.448 1-1S37.552 38 37 38z"></path><path fill="#8d6c9f" d="M55 33c2.206 0 4-1.794 4-4s-1.794-4-4-4-4 1.794-4 4S52.794 33 55 33zM55 27c1.103 0 2 .897 2 2s-.897 2-2 2-2-.897-2-2S53.897 27 55 27zM57 46h-4c-.552 0-1 .448-1 1s.448 1 1 1h4c.552 0 1-.448 1-1S57.552 46 57 46z"></path></svg>