<svg xmlns="http://www.w3.org/2000/svg" width="128" height="128" viewBox="0 0 128 128"><path fill="#dcecf8" d="M64 19.5A32 32 0 1 0 64 83.5A32 32 0 1 0 64 19.5Z"></path><path fill="#fff" d="M71.7 70.2c-.9 0-1.8-.4-2.4-1.2L39.6 30.1c-1-1.3-.8-3.2.6-4.2 1.3-1 3.2-.8 4.2.6l29.7 38.9c1 1.3.801 3.199-.6 4.199C72.9 70 72.3 70.2 71.7 70.2zM67.3 47.8c-.899 0-1.7-.4-2.3-1.1L47.7 25.1c-1-1.3-.8-3.2.5-4.2 1.3-1 3.2-.8 4.2.5L69.7 43c1 1.3.8 3.2-.5 4.2C68.7 47.6 68 47.8 67.3 47.8z"></path><path fill="#454b54" d="M64 86.5c-19.3 0-35-15.7-35-35s15.7-35 35-35 35 15.7 35 35S83.3 86.5 64 86.5zM64 22.5c-16 0-29 13-29 29s13 29 29 29 29-13 29-29S80 22.5 64 22.5zM21.1 54.5c-.8 0-1.6-.3-2.1-.9-.6-.6-.9-1.3-.9-2.1s.3-1.6.9-2.1c1.1-1.1 3.1-1.1 4.2 0 .6.6.9 1.3.9 2.1s-.3 1.6-.9 2.1C22.6 54.2 21.8 54.5 21.1 54.5z"></path><path fill="#454b54" d="M64 96.5c-21.3 0-39.6-14.1-44.6-34.3C19 60.6 20 59 21.6 58.6s3.2.6 3.6 2.2C29.5 78.3 45.5 90.5 64 90.5s34.4-12.2 38.8-29.7c.4-1.6 2-2.6 3.6-2.2 1.6.4 2.6 2 2.2 3.6C103.6 82.4 85.2 96.5 64 96.5zM106.9 54.5c-.8 0-1.6-.3-2.1-.9-.6-.6-.9-1.3-.9-2.1s.3-1.6.9-2.1c1.1-1.1 3.1-1.1 4.2 0 .6.6.9 1.3.9 2.1s-.3 1.6-.9 2.1C108.5 54.2 107.7 54.5 106.9 54.5z"></path><path fill="#454b54" d="M64,106.5c-1.7,0-3-1.3-3-3v-10c0-1.7,1.3-3,3-3c1.7,0,3,1.3,3,3v10C67,105.2,65.7,106.5,64,106.5z"></path><path fill="#e780b3" d="M84,108.5c0-2.8-2.2-5-5-5H49c-2.8,0-5,2.2-5,5v3h40V108.5z"></path><path fill="#454b54" d="M84,111.5c-1.7,0-3-1.3-3-3c0-1.1-0.9-2-2-2H49c-1.1,0-2,0.9-2,2c0,1.7-1.3,3-3,3s-3-1.3-3-3 c0-4.4,3.6-8,8-8h30c4.4,0,8,3.6,8,8C87,110.2,85.7,111.5,84,111.5z"></path></svg>