<svg xmlns="http://www.w3.org/2000/svg" width="64" height="64" viewBox="0 0 64 64"><g id="_x34_7_Plant_Pot_Green_Interior_Home_House"><path fill="#72caaf" d="M20.4 1.0999999999999996A6 9.6 0 1 0 20.4 20.299999999999997A6 9.6 0 1 0 20.4 1.0999999999999996Z" transform="rotate(-62.366 20.429 10.7)"></path><path fill="#97e0bb" d="M19.4,9c3.9,2,7.1,4.4,9.3,6.7c0.1-0.1,0.2-0.3,0.3-0.4c1.5-2.9-1-7.3-5.8-9.8C18.7,3,13.8,3.3,12.1,5.9 C14.4,6.6,16.9,7.6,19.4,9z"></path><path fill="#72caaf" d="M44 12.899999999999999A6.9 5.3 0 1 0 44 23.5A6.9 5.3 0 1 0 44 12.899999999999999Z" transform="rotate(-17.369 44.007 18.155)"></path><path fill="#97e0bb" d="M43,17.9c2.7-0.8,5.2-1.4,7.5-1.8c-0.9-2.8-4.5-4.2-8.2-3c-3.5,1.1-5.7,4.2-5,6.9C39.1,19.2,41,18.5,43,17.9 z"></path><path fill="#f9e3ae" d="M37.4 3.0999999999999996A5.8 3.5 0 1 0 37.4 10.1A5.8 3.5 0 1 0 37.4 3.0999999999999996Z" transform="rotate(-53.793 37.448 6.557)"></path><path fill="#cda1a7" d="M10 37L54 37 51 60 48 63 16 63 13 60z"></path><path fill="#d3a9b0" d="M23 63L15 63 12 57 10 37 20 37z"></path><path fill="#c4939c" d="M53.7 40L54 37 10 37 10.3 40z"></path><path fill="#c4939c" d="M38 37L37 63 48 63 51 60 54 37z"></path><path fill="#cda1a7" d="M55,37H9c-1.1,0-2-0.9-2-2v-6c0-1.1,0.9-2,2-2h46c1.1,0,2,0.9,2,2v6C57,36.1,56.1,37,55,37z"></path><path fill="#8d6c9f" d="M55,26H33v-2c0-0.4,0-0.7,0-1.1c1-0.6,2.1-1.2,3.1-1.6c1.2,0.9,4.2,2.8,7.5,2.8c0.6,0,1.3-0.1,1.9-0.2 c4.7-1.3,7-7.3,7.1-7.5l0.3-0.7l-0.6-0.5c-0.2-0.2-5.2-4.2-9.9-3c-4.1,1.1-6.4,5.8-7,7.2c-0.8,0.3-1.5,0.7-2.3,1.1 c0.3-2.5,0.8-4.9,1.7-7.2c1.5-0.3,5.1-1.2,6.7-3.9c2-3.5-0.1-8.2-0.2-8.4l-0.3-0.7l-0.7,0.1c-0.2,0-5.4,0.6-7.4,4 c-1.7,3-0.4,7,0.1,8.1c-0.5,1.4-1,2.9-1.3,4.4c-0.4-0.4-0.8-0.7-1.2-1.1l0-0.2c0-0.3-0.9-8.5-6.3-11.6C19,0.9,11.5,4.2,11.2,4.4 l-0.7,0.3l0.1,0.7c0,0.3,0.9,8.5,6.3,11.6c1.7,1,3.6,1.3,5.4,1.3c2.7,0,5.3-0.8,6.7-1.3c0.8,0.7,1.6,1.5,2.4,2.3 c-0.2,1.1-0.3,2.3-0.3,3.5c-0.6-0.3-1.2-0.5-1.8-0.8c-0.5-0.2-1.1,0-1.3,0.5c-0.2,0.5,0,1.1,0.5,1.3c0.9,0.4,1.8,0.8,2.7,1.1V26 H9c-1.7,0-3,1.3-3,3v6c0,1.4,0.9,2.5,2.2,2.9l4.2,22.1c0.5,2.4,2.5,4.1,4.9,4.1h29.4c2.4,0,4.5-1.7,4.9-4.1l4.2-22.1 c1.2-0.4,2.2-1.5,2.2-2.9v-6C58,27.3,56.7,26,55,26z M43,14.1c2.9-0.8,6.2,1.2,7.5,2.1c-0.7,1.5-2.6,4.8-5.5,5.6 c-2.4,0.6-5-0.6-6.6-1.5c0.5-0.2,0.9-0.3,1.4-0.5l2.9-0.9c0.5-0.2,0.8-0.7,0.7-1.2s-0.7-0.8-1.2-0.7l-2.9,0.9 c-0.3,0.1-0.6,0.2-1,0.3C39.2,16.7,40.8,14.7,43,14.1z M17.9,15.3c-3.6-2.1-4.8-7.4-5.2-9.3c1.8-0.7,7-2.3,10.7-0.2 c3.1,1.8,4.4,5.8,4.9,8.2c-0.4-0.3-0.9-0.7-1.4-1l-4.8-3.2C21.6,9.4,21,9.6,20.7,10c-0.3,0.5-0.2,1.1,0.3,1.4l4.8,3.2 c0.4,0.3,0.9,0.6,1.3,0.9C24.7,16.2,20.8,17,17.9,15.3z M34.7,5.4c1.1-1.9,3.8-2.7,5.1-2.9c0.4,1.3,1.1,4,0,5.9 c-0.8,1.5-2.6,2.2-4,2.6c0.5-1.1,1-2.2,1.7-3.2c0.3-0.5,0.1-1.1-0.3-1.4c-0.5-0.3-1.1-0.1-1.4,0.3c-0.6,0.9-1,1.9-1.5,2.8 C34.1,8.3,34,6.6,34.7,5.4z M56,35c0,0.6-0.4,1-1,1c-0.5,0-0.9,0.3-1,0.8l-4.4,22.8C49.4,61,48.1,62,46.7,62H17.3 c-1.4,0-2.7-1-2.9-2.4L10.2,38H43c0.6,0,1-0.4,1-1s-0.4-1-1-1H9c-0.6,0-1-0.4-1-1v-6c0-0.6,0.4-1,1-1h46c0.6,0,1,0.4,1,1V35z"></path><path fill="#8d6c9f" d="M12 30c-.6 0-1 .4-1 1v2c0 .6.4 1 1 1s1-.4 1-1v-2C13 30.4 12.6 30 12 30zM17 30c-.6 0-1 .4-1 1v2c0 .6.4 1 1 1s1-.4 1-1v-2C18 30.4 17.6 30 17 30zM22 30c-.6 0-1 .4-1 1v2c0 .6.4 1 1 1s1-.4 1-1v-2C23 30.4 22.6 30 22 30zM27 30c-.6 0-1 .4-1 1v2c0 .6.4 1 1 1s1-.4 1-1v-2C28 30.4 27.6 30 27 30zM32 30c-.6 0-1 .4-1 1v2c0 .6.4 1 1 1 .6 0 1-.4 1-1v-2C33 30.4 32.6 30 32 30zM37 30c-.6 0-1 .4-1 1v2c0 .6.4 1 1 1s1-.4 1-1v-2C38 30.4 37.6 30 37 30zM42 30c-.6 0-1 .4-1 1v2c0 .6.4 1 1 1s1-.4 1-1v-2C43 30.4 42.6 30 42 30zM47 34c.6 0 1-.4 1-1v-2c0-.6-.4-1-1-1s-1 .4-1 1v2C46 33.6 46.4 34 47 34zM52 30c-.6 0-1 .4-1 1v2c0 .6.4 1 1 1s1-.4 1-1v-2C53 30.4 52.6 30 52 30zM45 58h-4c-.6 0-1 .4-1 1s.4 1 1 1h4c.6 0 1-.4 1-1S45.6 58 45 58zM37 58H18c-.6 0-1 .4-1 1s.4 1 1 1h19c.6 0 1-.4 1-1S37.6 58 37 58zM51 36h-4c-.6 0-1 .4-1 1s.4 1 1 1h4c.6 0 1-.4 1-1S51.6 36 51 36zM25.9 22.5c.1.1.3.1.5.1.4 0 .7-.2.9-.5.3-.5.1-1.1-.4-1.4l-1.2-.7c-.5-.3-1.1-.1-1.4.4-.3.5-.1 1.1.4 1.4L25.9 22.5z"></path></g></svg>