<svg xmlns="http://www.w3.org/2000/svg" width="40" height="40" viewBox="0 0 40 40"><path fill="none" stroke="#8b75a1" stroke-miterlimit="10" d="M4.5,27.286V11.5c0-5.523,4.477-10,10-10h6"></path><path fill="#dbf2ff" d="M6.544,38.5c-1.543,0-2.889-0.995-3.348-2.477c-0.733-2.365-1.6-5.87-1.689-9.432l11.188,1.864 C13.264,29.32,15.684,32.5,20.5,32.5c4.823,0,7.243-3.188,7.807-4.048l10.185-1.852c-0.089,3.571-0.955,7.067-1.687,9.425 C36.346,37.506,35,38.5,33.458,38.5H6.544z"></path><path fill="#7496c4" d="M2.03,27.185l10.374,1.729C13.2,30.039,15.746,33,20.5,33c4.764,0,7.311-2.974,8.101-4.093 l9.368-1.703c-0.164,3.297-0.961,6.483-1.642,8.673C35.933,37.147,34.78,38,33.458,38H6.544c-1.323,0-2.476-0.854-2.87-2.125 C2.992,33.676,2.193,30.48,2.03,27.185 M39,26l-11,2c0,0-2.273,4-7.5,4S13,28,13,28L1,26c0,3.842,0.944,7.674,1.719,10.172 C3.24,37.852,4.785,39,6.544,39h26.914c1.759,0,3.303-1.147,3.825-2.826C38.057,33.68,39,29.853,39,26L39,26z"></path><path fill="#8bb7f0" d="M25.5 10A.5.5 0 1 0 25.5 11 .5.5 0 1 0 25.5 10zM23.5 10A.5.5 0 1 0 23.5 11 .5.5 0 1 0 23.5 10zM21.5 10A.5.5 0 1 0 21.5 11 .5.5 0 1 0 21.5 10zM19.5 10A.5.5 0 1 0 19.5 11 .5.5 0 1 0 19.5 10zM17.5 10A.5.5 0 1 0 17.5 11 .5.5 0 1 0 17.5 10zM15.5 10A.5.5 0 1 0 15.5 11 .5.5 0 1 0 15.5 10zM25.5 12A.5.5 0 1 0 25.5 13 .5.5 0 1 0 25.5 12zM23.5 12A.5.5 0 1 0 23.5 13 .5.5 0 1 0 23.5 12zM21.5 12A.5.5 0 1 0 21.5 13 .5.5 0 1 0 21.5 12zM19.5 12A.5.5 0 1 0 19.5 13 .5.5 0 1 0 19.5 12zM17.5 12A.5.5 0 1 0 17.5 13 .5.5 0 1 0 17.5 12zM15.5 12A.5.5 0 1 0 15.5 13 .5.5 0 1 0 15.5 12zM25.5 14A.5.5 0 1 0 25.5 15 .5.5 0 1 0 25.5 14zM23.5 14A.5.5 0 1 0 23.5 15 .5.5 0 1 0 23.5 14zM21.5 14A.5.5 0 1 0 21.5 15 .5.5 0 1 0 21.5 14zM19.5 14A.5.5 0 1 0 19.5 15 .5.5 0 1 0 19.5 14zM17.5 14A.5.5 0 1 0 17.5 15 .5.5 0 1 0 17.5 14zM15.5 14A.5.5 0 1 0 15.5 15 .5.5 0 1 0 15.5 14zM25.5 16A.5.5 0 1 0 25.5 17 .5.5 0 1 0 25.5 16zM23.5 16A.5.5 0 1 0 23.5 17 .5.5 0 1 0 23.5 16zM21.5 16A.5.5 0 1 0 21.5 17 .5.5 0 1 0 21.5 16zM19.5 16A.5.5 0 1 0 19.5 17 .5.5 0 1 0 19.5 16zM17.5 16A.5.5 0 1 0 17.5 17 .5.5 0 1 0 17.5 16zM15.5 16A.5.5 0 1 0 15.5 17 .5.5 0 1 0 15.5 16zM25.5 18A.5.5 0 1 0 25.5 19 .5.5 0 1 0 25.5 18zM23.5 18A.5.5 0 1 0 23.5 19 .5.5 0 1 0 23.5 18zM21.5 18A.5.5 0 1 0 21.5 19 .5.5 0 1 0 21.5 18zM19.5 18A.5.5 0 1 0 19.5 19 .5.5 0 1 0 19.5 18zM17.5 18A.5.5 0 1 0 17.5 19 .5.5 0 1 0 17.5 18zM15.5 18A.5.5 0 1 0 15.5 19 .5.5 0 1 0 15.5 18zM25.5 20A.5.5 0 1 0 25.5 21 .5.5 0 1 0 25.5 20zM23.5 20A.5.5 0 1 0 23.5 21 .5.5 0 1 0 23.5 20zM21.5 20A.5.5 0 1 0 21.5 21 .5.5 0 1 0 21.5 20zM19.5 20A.5.5 0 1 0 19.5 21 .5.5 0 1 0 19.5 20zM17.5 20A.5.5 0 1 0 17.5 21 .5.5 0 1 0 17.5 20zM15.5 20A.5.5 0 1 0 15.5 21 .5.5 0 1 0 15.5 20zM25.5 22A.5.5 0 1 0 25.5 23 .5.5 0 1 0 25.5 22zM23.5 22A.5.5 0 1 0 23.5 23 .5.5 0 1 0 23.5 22zM21.5 22A.5.5 0 1 0 21.5 23 .5.5 0 1 0 21.5 22zM19.5 22A.5.5 0 1 0 19.5 23 .5.5 0 1 0 19.5 22zM17.5 22A.5.5 0 1 0 17.5 23 .5.5 0 1 0 17.5 22zM15.5 22A.5.5 0 1 0 15.5 23 .5.5 0 1 0 15.5 22zM25.5 24A.5.5 0 1 0 25.5 25 .5.5 0 1 0 25.5 24zM23.5 24A.5.5 0 1 0 23.5 25 .5.5 0 1 0 23.5 24zM21.5 24A.5.5 0 1 0 21.5 25 .5.5 0 1 0 21.5 24zM19.5 24A.5.5 0 1 0 19.5 25 .5.5 0 1 0 19.5 24zM17.5 24A.5.5 0 1 0 17.5 25 .5.5 0 1 0 17.5 24zM15.5 24A.5.5 0 1 0 15.5 25 .5.5 0 1 0 15.5 24zM25.5 26A.5.5 0 1 0 25.5 27 .5.5 0 1 0 25.5 26zM23.5 26A.5.5 0 1 0 23.5 27 .5.5 0 1 0 23.5 26zM21.5 26A.5.5 0 1 0 21.5 27 .5.5 0 1 0 21.5 26zM19.5 26A.5.5 0 1 0 19.5 27 .5.5 0 1 0 19.5 26zM17.5 26A.5.5 0 1 0 17.5 27 .5.5 0 1 0 17.5 26zM15.5 26A.5.5 0 1 0 15.5 27 .5.5 0 1 0 15.5 26zM25.5 28A.5.5 0 1 0 25.5 29 .5.5 0 1 0 25.5 28zM23.5 28A.5.5 0 1 0 23.5 29 .5.5 0 1 0 23.5 28zM21.5 28A.5.5 0 1 0 21.5 29 .5.5 0 1 0 21.5 28zM19.5 28A.5.5 0 1 0 19.5 29 .5.5 0 1 0 19.5 28zM17.5 28A.5.5 0 1 0 17.5 29 .5.5 0 1 0 17.5 28zM15.5 28A.5.5 0 1 0 15.5 29 .5.5 0 1 0 15.5 28zM23.5 30A.5.5 0 1 0 23.5 31 .5.5 0 1 0 23.5 30zM21.5 30A.5.5 0 1 0 21.5 31 .5.5 0 1 0 21.5 30zM19.5 30A.5.5 0 1 0 19.5 31 .5.5 0 1 0 19.5 30zM17.5 30A.5.5 0 1 0 17.5 31 .5.5 0 1 0 17.5 30z"></path><g><path fill="#dcd5f2" d="M13.5,8.5c0-3.859,3.14-7,7-7s7,3.141,7,7H13.5z"></path><path fill="#8b75a1" d="M20.5,2c3.416,0,6.225,2.649,6.481,6H14.019C14.275,4.649,17.084,2,20.5,2 M20.5,1L20.5,1 C16.358,1,13,4.358,13,8.5V9h15V8.5C28,4.358,24.642,1,20.5,1L20.5,1z"></path></g></svg>