<svg xmlns="http://www.w3.org/2000/svg" width="64" height="64" viewBox="0 0 64 64"><path fill="#fff7f0" d="M59,9v46c0,2.21-1.79,4-4,4H9c-2.21,0-4-1.79-4-4V9c0-2.21,1.79-4,4-4h46C57.21,5,59,6.79,59,9z"></path><path fill="#faefde" d="M59 55L59 55c0 2.209-1.791 4-4 4H9c-2.209 0-4-1.791-4-4v0c0-1.657 1.343-3 3-3h48C57.657 52 59 53.343 59 55zM32 13A19 19 0 1 0 32 51 19 19 0 1 0 32 13z"></path><path fill="#8b8e98" d="M24 29A3 3 0 1 0 24 35 3 3 0 1 0 24 29zM40 29A3 3 0 1 0 40 35 3 3 0 1 0 40 29z"></path><path fill="#efd8be" d="M46.396,22.938L46.396,22.938c-0.879,0.64-2.079,0.438-2.766-0.405 c-0.214-0.262-0.437-0.517-0.67-0.763C40.22,18.83,36.32,17,32,17s-8.22,1.83-10.96,4.77c-0.233,0.246-0.456,0.501-0.67,0.763 c-0.687,0.843-1.888,1.045-2.766,0.405l0,0c-0.906-0.66-1.115-1.953-0.415-2.827C20.667,15.771,26.012,13,32,13 s11.333,2.771,14.811,7.111C47.512,20.985,47.302,22.279,46.396,22.938z"></path><path fill="#8d6c9f" d="M55,4H9C6.243,4,4,6.243,4,9v46c0,2.757,2.243,5,5,5h46c2.757,0,5-2.243,5-5V9 C60,6.243,57.757,4,55,4z M58,55c0,1.654-1.346,3-3,3H9c-1.654,0-3-1.346-3-3V9c0-1.654,1.346-3,3-3h46c1.654,0,3,1.346,3,3V55z"></path><path fill="#8d6c9f" d="M32,12c-11.028,0-20,8.972-20,20c0,8.012,4.746,14.919,11.565,18.109C23.233,50.271,23,50.605,23,51 v2c0,0.553,0.447,1,1,1s1-0.447,1-1v-2c0-0.111-0.03-0.213-0.063-0.312c0.989,0.375,2.006,0.694,3.063,0.909V53 c0,0.553,0.447,1,1,1s1-0.447,1-1v-1.101C30.658,51.964,31.325,52,32,52s1.342-0.036,2-0.101V53c0,0.553,0.447,1,1,1s1-0.447,1-1 v-1.403c1.057-0.215,2.074-0.534,3.063-0.909C39.03,50.787,39,50.889,39,51v2c0,0.553,0.447,1,1,1s1-0.447,1-1v-2 c0-0.395-0.233-0.729-0.565-0.891C47.254,46.919,52,40.012,52,32C52,20.972,43.028,12,32,12z M32,50c-9.925,0-18-8.075-18-18 s8.075-18,18-18s18,8.075,18,18S41.925,50,32,50z"></path><path fill="#8d6c9f" d="M24 28c-2.206 0-4 1.794-4 4s1.794 4 4 4 4-1.794 4-4S26.206 28 24 28zM24 34c-1.103 0-2-.897-2-2s.897-2 2-2 2 .897 2 2S25.103 34 24 34zM40 28c-2.206 0-4 1.794-4 4s1.794 4 4 4 4-1.794 4-4S42.206 28 40 28zM40 34c-1.103 0-2-.897-2-2s.897-2 2-2 2 .897 2 2S41.103 34 40 34zM33.492 16.068C33.004 16.023 32.502 16 32 16c-3.546 0-6.904 1.136-9.714 3.285-.438.335-.522.963-.187 1.401.196.258.494.393.795.393.212 0 .425-.067.606-.206C25.959 18.993 28.897 18 32 18c.44 0 .877.02 1.307.061.54.05 1.037-.354 1.089-.903C34.446 16.607 34.042 16.12 33.492 16.068zM38.368 19.529c.806.411 1.577.906 2.292 1.47.184.145.401.215.618.215.296 0 .589-.131.786-.381.342-.434.268-1.062-.166-1.404-.817-.645-1.698-1.21-2.62-1.681-.49-.25-1.094-.055-1.346.436C37.682 18.676 37.877 19.278 38.368 19.529zM9 50c-.553 0-1 .447-1 1v2c0 .553.447 1 1 1s1-.447 1-1v-2C10 50.447 9.553 50 9 50zM14 50c-.553 0-1 .447-1 1v2c0 .553.447 1 1 1s1-.447 1-1v-2C15 50.447 14.553 50 14 50zM19 50c-.553 0-1 .447-1 1v2c0 .553.447 1 1 1s1-.447 1-1v-2C20 50.447 19.553 50 19 50zM45 50c-.553 0-1 .447-1 1v2c0 .553.447 1 1 1s1-.447 1-1v-2C46 50.447 45.553 50 45 50zM50 50c-.553 0-1 .447-1 1v2c0 .553.447 1 1 1s1-.447 1-1v-2C51 50.447 50.553 50 50 50zM55 50c-.553 0-1 .447-1 1v2c0 .553.447 1 1 1s1-.447 1-1v-2C56 50.447 55.553 50 55 50z"></path></svg>