<svg xmlns="http://www.w3.org/2000/svg" data-name="Layer 1" width="64" height="64" viewBox="0 0 64 64"><path fill="#cda1a7" d="M7,19,2.15,54.87a1,1,0,0,0,1,1.13H5.23a1,1,0,0,0,1-.75L12.61,30.5A2,2,0,0,1,14.55,29h34.9a2,2,0,0,1,1.94,1.5l6.42,24.75a1,1,0,0,0,1,.75h2.08a1,1,0,0,0,1-1.13L57,19Z"></path><path fill="#c4939c" d="M7 19H57V24H7z"></path><path fill="#dbb2ba" d="M3,15H61a2,2,0,0,1,2,2h0a2,2,0,0,1-2,2H3a2,2,0,0,1-2-2H1A2,2,0,0,1,3,15Z"></path><path fill="#8d6c9f" d="M12 26a1 1 0 0 0 1-1V23a1 1 0 0 0-2 0v2A1 1 0 0 0 12 26zM17 26a1 1 0 0 0 1-1V23a1 1 0 0 0-2 0v2A1 1 0 0 0 17 26zM22 26a1 1 0 0 0 1-1V23a1 1 0 0 0-2 0v2A1 1 0 0 0 22 26zM27 26a1 1 0 0 0 1-1V23a1 1 0 0 0-2 0v2A1 1 0 0 0 27 26zM32 26a1 1 0 0 0 1-1V23a1 1 0 0 0-2 0v2A1 1 0 0 0 32 26zM37 26a1 1 0 0 0 1-1V23a1 1 0 0 0-2 0v2A1 1 0 0 0 37 26zM42 26a1 1 0 0 0 1-1V23a1 1 0 0 0-2 0v2A1 1 0 0 0 42 26zM47 26a1 1 0 0 0 1-1V23a1 1 0 0 0-2 0v2A1 1 0 0 0 47 26zM52 26a1 1 0 0 0 1-1V23a1 1 0 0 0-2 0v2A1 1 0 0 0 52 26zM49 36H45a1 1 0 0 0 0 2h4a1 1 0 0 0 0-2z"></path><path fill="#8d6c9f" d="M64,17a3,3,0,0,0-3-3H3a3,3,0,0,0,0,6H5.86L1.16,54.73a2,2,0,0,0,2,2.27H5.23a2,2,0,0,0,1.94-1.5L11.7,38H41a1,1,0,0,0,0-2H12.22l1.36-5.25a1,1,0,0,1,1-.75h34.9a1,1,0,0,1,1,.75L56.84,55.5A2,2,0,0,0,58.77,57h2.08a2,2,0,0,0,2-2.27L58.14,20H61A3,3,0,0,0,64,17Zm-7.58,5.2A1,1,0,0,0,56,23v2a1,1,0,0,0,.93,1l3.92,29H58.77L52.36,30.25A3,3,0,0,0,49.45,28H14.55a3,3,0,0,0-2.9,2.25L5.23,55H3.14L7.07,26A1,1,0,0,0,8,25V23a1,1,0,0,0-.42-.8l.3-2.2H56.13ZM6.13,18H3a1,1,0,0,1,0-2H61a1,1,0,0,1,0,2H6.13Z"></path></svg>