<svg xmlns="http://www.w3.org/2000/svg" width="64" height="64" viewBox="0 0 64 64"><path fill="#faefde" d="M39.526,63H24.474c-1.273,0-2.222-1.174-1.956-2.419L25,49h14l2.482,11.581 C41.748,61.826,40.799,63,39.526,63z"></path><path fill="#cda1a7" d="M32 1A17 20 0 1 0 32 41A17 20 0 1 0 32 1Z"></path><path fill="#fff7f0" d="M21 21.029c0-6.611 4.925-13.971 11-13.971s11 7.359 11 13.971S38.075 31 32 31 21 27.641 21 21.029zM14 35l1.216 5.471c1.136 5.112 4.645 9.195 9.213 11.192l.787.021C27.146 52.513 29.481 53 32 53c3.786 0 7.158-1.099 9.357-2.811 3.637-2.089 6.472-5.42 7.427-9.718L50 35H14z"></path><path fill="#f9dd8f" d="M13,31h38c1.105,0,2,0.895,2,2v0c0,1.105-0.895,2-2,2H13c-1.105,0-2-0.895-2-2v0 C11,31.895,11.895,31,13,31z"></path><path fill="#8d6c9f" d="M20.064 22.473c.057.548.543.943 1.099.89.549-.058.947-.55.89-1.099C22.018 21.926 22 21.573 22 21.206 22 15.261 26.614 8 32 8s10 7.261 10 13.206c0 2.617-.921 4.609-2.738 5.919-.448.323-.549.948-.227 1.396.196.271.502.415.812.415.202 0 .407-.062.584-.189C42.766 27.064 44 24.456 44 21.206 44 14.319 38.647 6 32 6s-12 8.319-12 15.206C20 21.646 20.021 22.067 20.064 22.473zM23.048 25.331c-.291-.469-.906-.614-1.377-.322-.469.291-.613.908-.322 1.377.454.731 1.024 1.389 1.696 1.954.188.157.416.234.643.234.285 0 .568-.121.767-.356.355-.423.301-1.054-.122-1.409C23.822 26.38 23.391 25.883 23.048 25.331zM22 40c-.553 0-1 .448-1 1v2c0 .552.447 1 1 1s1-.448 1-1v-2C23 40.448 22.553 40 22 40zM32 44c.553 0 1-.448 1-1v-2c0-.552-.447-1-1-1s-1 .448-1 1v2C31 43.552 31.447 44 32 44zM42 40c-.553 0-1 .448-1 1v2c0 .552.447 1 1 1s1-.448 1-1v-2C43 40.448 42.553 40 42 40z"></path><path fill="#8d6c9f" d="M51,30h-2.74h-0.709C49.148,27.854,50,25.174,50,22c0-9.965-8.029-22-18-22S14,12.035,14,22 c0,3.174,0.852,5.854,2.449,8H15.74H13c-1.65,0-3,1.35-3,3c0,1.65,1.35,3,3,3h0.194l1.046,4.69c1.11,5.01,4.46,9.26,9.04,11.54 l-1.74,8.14c-0.19,0.89,0.03,1.81,0.6,2.52c0.57,0.7,1.42,1.11,2.33,1.11h15.06c0.91,0,1.76-0.41,2.33-1.11 c0.57-0.71,0.79-1.63,0.6-2.52l-1.74-8.14c4.56-2.25,7.91-6.45,9.04-11.54L50.806,36H51c1.65,0,3-1.35,3-3C54,31.35,52.65,30,51,30 z M32,2c8.617,0,16,10.997,16,20c0,3.656-1.241,6.209-3.096,8H41.07H38.5H25.51h-2.58h-3.834C17.241,28.209,16,25.656,16,22 C16,12.997,23.383,2,32,2z M47.81,40.25c-0.01,0.047-0.028,0.091-0.039,0.138C47.588,40.157,47.318,40,47,40c-0.553,0-1,0.448-1,1 v2c0,0.365,0.206,0.671,0.498,0.846c-1.381,2.703-3.534,4.928-6.218,6.354c-0.6,0.33-1.22,0.61-1.87,0.84 c-0.42,0.17-0.86,0.31-1.3,0.43c-0.53,0.15-0.85,0.7-0.7,1.23c0.12,0.45,0.52,0.74,0.96,0.74c0.09,0,0.18-0.01,0.27-0.04 c0.41-0.11,0.81-0.23,1.2-0.38l1.66,7.77c0.07,0.3-0.01,0.6-0.2,0.84C40.11,61.86,39.83,62,39.53,62H24.47 c-0.3,0-0.58-0.14-0.77-0.37c-0.19-0.24-0.27-0.54-0.2-0.84l1.91-8.93c0.09-0.45-0.14-0.92-0.58-1.11 c-0.38-0.17-0.75-0.35-1.11-0.55c-2.674-1.443-4.826-3.682-6.207-6.362C17.799,43.662,18,43.361,18,43v-2c0-0.552-0.447-1-1-1 c-0.318,0-0.588,0.157-0.771,0.388c-0.011-0.047-0.028-0.091-0.039-0.138L15.25,36h4.17h2.77h19.62h2.77h4.17L47.81,40.25z M51,34 h-1h-3.88h-2.46h-7.29h-8.74h-7.29h-2.46H14h-1c-0.55,0-1-0.45-1-1s0.45-1,1-1h3.68h2.29h5.72h3.38h7.86h3.38h5.72h2.29H51 c0.55,0,1,0.45,1,1S51.55,34,51,34z"></path><path fill="#8d6c9f" d="M37 40c-.553 0-1 .448-1 1v2c0 .552.447 1 1 1s1-.448 1-1v-2C38 40.448 37.553 40 37 40zM27 40c-.553 0-1 .448-1 1v2c0 .552.447 1 1 1s1-.448 1-1v-2C28 40.448 27.553 40 27 40zM33.165 52h-2.33c-.553 0-1 .448-1 1s.447 1 1 1h2.33c.553 0 1-.448 1-1S33.718 52 33.165 52z"></path></svg>