<svg xmlns="http://www.w3.org/2000/svg" data-name="Layer 1" width="64" height="64" viewBox="0 0 64 64"><path fill="#f9e3ae" d="M9.38 59H12.510000000000002V63H9.38zM47.38 59H50.510000000000005V63H47.38zM32 15L18.38 15 20.38 11 29 11 32 15z"></path><rect width="62" height="44" x="1" y="15" fill="#cda1a7" rx="2" ry="2"></rect><rect width="62" height="14" x="1" y="45" fill="#faefde" rx="2" ry="2"></rect><path fill="#efd8be" d="M62,59H2a1,1,0,0,1-1-1H1a4,4,0,0,1,4-4H59a4,4,0,0,1,4,4h0A1,1,0,0,1,62,59Z"></path><path fill="#c5e4fa" d="M40.34,51.12l-2.14.23a114.19,114.19,0,0,1-24.38,0l-2.14-.23a5.42,5.42,0,0,1-4.85-4.6l-.17-1.26a70.88,70.88,0,0,1,.13-19.85h0a5.42,5.42,0,0,1,4.84-4.53l2.2-.24a114.19,114.19,0,0,1,24.38,0l2.2.24a5.42,5.42,0,0,1,4.84,4.53h0a70.88,70.88,0,0,1,.13,19.85l-.17,1.26A5.42,5.42,0,0,1,40.34,51.12Z"></path><path fill="#e3f2ff" d="M45.8 40.94a70.86 70.86 0 0 0-.57-15.53h0a5.14 5.14 0 0 0-.39-1.3L17.29 51.66a114.2 114.2 0 0 0 17.82 0zM42.6 21.61A5.57 5.57 0 0 0 41.06 21h-5L8 49.12a5.54 5.54 0 0 0 3.71 2l1.27.14zM29.41 21L6.5 43.91c.05.45.1.9.16 1.35l.05.37L31.34 21z"></path><path fill="#f9e3ae" d="M54 23A3 3 0 1 0 54 29A3 3 0 1 0 54 23Z"></path><path fill="#ed7899" d="M54 33A2 2 0 1 0 54 37A2 2 0 1 0 54 33Z"></path><path fill="#8d6c9f" d="M61,14H33.41l-2.54-2.54A5,5,0,0,0,27.72,10l9.92-8.27A1,1,0,1,0,36.36.23L25.06,9.65,18.71,3.29a1,1,0,0,0-1.41,1.41l5.3,5.3a5,5,0,0,0-3.47,1.46L16.59,14H3a3,3,0,0,0-3,3V57a3,3,0,0,0,3,3H8v1a3,3,0,0,0,6,0V60H46v1a3,3,0,0,0,6,0V60h9a3,3,0,0,0,3-3V17A3,3,0,0,0,61,14ZM20.54,12.88A3,3,0,0,1,22.66,12h4.69a3,3,0,0,1,2.12.88L30.59,14H19.41ZM2,17a1,1,0,0,1,1-1H61a1,1,0,0,1,1,1V44H46.52a71.88,71.88,0,0,0-.29-18.74,6.42,6.42,0,0,0-5.72-5.38l-2.2-.24a115.43,115.43,0,0,0-24.59,0l-2.2.24a6.42,6.42,0,0,0-5.72,5.38A71.88,71.88,0,0,0,5.5,44H2ZM40.24,50.12l-2.14.23a113.42,113.42,0,0,1-24.16,0l-2.14-.23a4.41,4.41,0,0,1-4-3.74l-.17-1.26a69.87,69.87,0,0,1,.12-19.57,4.42,4.42,0,0,1,4-3.69l2.2-.24a113.37,113.37,0,0,1,24.16,0l2.2.24a4.42,4.42,0,0,1,4,3.69,69.86,69.86,0,0,1,.12,19.57l-.17,1.26A4.41,4.41,0,0,1,40.24,50.12ZM12,61a1,1,0,0,1-2,0V60h2Zm38,0a1,1,0,0,1-2,0V60h2Zm11-3H3a1,1,0,0,1-1-1V46H5.75l.09.65a6.41,6.41,0,0,0,5.74,5.46l2.14.23A115.22,115.22,0,0,0,26,53a115.2,115.2,0,0,0,12.29-.66l2.14-.23h0a6.41,6.41,0,0,0,5.73-5.46l.09-.65H62V57A1,1,0,0,1,61,58Z"></path><path fill="#8d6c9f" d="M11 42a1 1 0 0 0-1 1v2a1 1 0 0 0 2 0V43A1 1 0 0 0 11 42zM26 42a1 1 0 0 0-1 1v2a1 1 0 0 0 2 0V43A1 1 0 0 0 26 42zM31 42a1 1 0 0 0-1 1v2a1 1 0 0 0 2 0V43A1 1 0 0 0 31 42zM36 42a1 1 0 0 0-1 1v2a1 1 0 0 0 2 0V43A1 1 0 0 0 36 42zM41 42a1 1 0 0 0-1 1v2a1 1 0 0 0 2 0V43A1 1 0 0 0 41 42zM16 42a1 1 0 0 0-1 1v2a1 1 0 0 0 2 0V43A1 1 0 0 0 16 42zM21 42a1 1 0 0 0-1 1v2a1 1 0 0 0 2 0V43A1 1 0 0 0 21 42zM54 30a4 4 0 1 0-4-4A4 4 0 0 0 54 30zm0-6.21A2.21 2.21 0 1 1 51.79 26 2.21 2.21 0 0 1 54 23.79zM54 32a3 3 0 1 0 3 3A3 3 0 0 0 54 32zm0 4.17A1.17 1.17 0 1 1 55.17 35 1.17 1.17 0 0 1 54 36.17zM57 50H49a1 1 0 0 0 0 2h8a1 1 0 0 0 0-2z"></path><path fill="#fff8f8" d="M15.75 24.5L16.99 26.76 19.25 28 16.99 29.24 15.75 31.5 14.51 29.24 12.25 28 14.51 26.76 15.75 24.5zM32.42 23.16L33.27 24.73 34.84 25.58 33.27 26.44 32.42 28 31.56 26.44 30 25.58 31.56 24.73 32.42 23.16zM31.65 36.7L32.23 37.77 33.3 38.35 32.23 38.94 31.65 40 31.07 38.94 30 38.35 31.07 37.77 31.65 36.7z"></path></svg>