<svg xmlns="http://www.w3.org/2000/svg" width="64" height="64" viewBox="0 0 64 64"><path fill="#cda1a7" d="M53,57H9c-1.105,0-2-0.895-2-2V7h48v48C55,56.105,54.105,57,53,57z"></path><path fill="#cda1a7" d="M29,57H9c-1.105,0-2-0.895-2-2V7h24v48C31,56.105,30.105,57,29,57z"></path><path fill="#ffeb9b" d="M55 7H7C5.895 7 5 6.105 5 5v0c0-1.105.895-2 2-2h48c1.105 0 2 .895 2 2v0C57 6.105 56.105 7 55 7zM14.219 61h-1.938c-.651 0-1.128-.611-.97-1.243L12 57h4l-.811 3.243C15.078 60.688 14.678 61 14.219 61zM49.719 61h-1.938c-.459 0-.859-.312-.97-.757L46 57h4l.689 2.757C50.847 60.389 50.37 61 49.719 61z"></path><path fill="#c4919a" d="M7 52H55V57H7z"></path><path fill="#deb4ba" d="M7 7H55V12H7z"></path><path fill="#8d6c9f" d="M58,5c0-1.654-1.346-3-3-3H7C5.346,2,4,3.346,4,5c0,1.302,0.839,2.402,2,2.816V55 c0,1.654,1.346,3,3,3h1.719l-0.379,1.516c-0.149,0.602-0.017,1.228,0.365,1.716S11.661,62,12.281,62h1.938 c0.92,0,1.718-0.623,1.94-1.516L16.781,58h28.438l0.622,2.484C46.063,61.377,46.861,62,47.781,62h1.938 c0.62,0,1.194-0.28,1.576-0.769s0.515-1.114,0.364-1.716L51.281,58H53c1.654,0,3-1.346,3-3V7.816C57.161,7.402,58,6.302,58,5z M14.22,59.999C14.22,60,14.219,60,14.22,59.999L12.28,60l0.501-2h1.938L14.22,59.999z M11.219,56H9c-0.552,0-1-0.448-1-1V8h22v48 H17.281H11.219z M49.722,60H47.78l-0.499-2h1.938L49.722,60z M54,55c0,0.552-0.448,1-1,1h-2.219h-6.062H32V8h22V55z M55,6H7 C6.448,6,6,5.552,6,5s0.448-1,1-1h48c0.552,0,1,0.448,1,1S55.552,6,55,6z"></path><path fill="#8d6c9f" d="M11 50c-.553 0-1 .447-1 1v2c0 .553.447 1 1 1s1-.447 1-1v-2C12 50.447 11.553 50 11 50zM16 50c-.553 0-1 .447-1 1v2c0 .553.447 1 1 1s1-.447 1-1v-2C17 50.447 16.553 50 16 50zM21 50c-.553 0-1 .447-1 1v2c0 .553.447 1 1 1s1-.447 1-1v-2C22 50.447 21.553 50 21 50zM26 50c-.553 0-1 .447-1 1v2c0 .553.447 1 1 1s1-.447 1-1v-2C27 50.447 26.553 50 26 50zM36 54c.553 0 1-.447 1-1v-2c0-.553-.447-1-1-1s-1 .447-1 1v2C35 53.553 35.447 54 36 54zM26 33v-6c0-.553-.447-1-1-1s-1 .447-1 1v6c0 .553.447 1 1 1S26 33.553 26 33zM37 34c.553 0 1-.447 1-1v-6c0-.553-.447-1-1-1s-1 .447-1 1v6C36 33.553 36.447 34 37 34zM41 54c.553 0 1-.447 1-1v-2c0-.553-.447-1-1-1s-1 .447-1 1v2C40 53.553 40.447 54 41 54zM46 54c.553 0 1-.447 1-1v-2c0-.553-.447-1-1-1s-1 .447-1 1v2C45 53.553 45.447 54 46 54zM51 54c.553 0 1-.447 1-1v-2c0-.553-.447-1-1-1s-1 .447-1 1v2C50 53.553 50.447 54 51 54z"></path></svg>