<svg xmlns="http://www.w3.org/2000/svg" width="64" height="64" viewBox="0 0 64 64"><g id="_x34_6_Washing_Machine_Laundry_Bathroom_Interior_Home_House"><path fill="#85cbf8" d="M7 3H57V59H7z"></path><path fill="#ed7899" d="M54.5,59h-45C8.1,59,7,57.9,7,56.5v0C7,55.1,8.1,54,9.5,54h45c1.4,0,2.5,1.1,2.5,2.5v0 C57,57.9,55.9,59,54.5,59z"></path><path fill="#ace3ff" d="M54,13H10c-1.7,0-3-1.3-3-3V6c0-1.7,1.3-3,3-3h44c1.7,0,3,1.3,3,3v4C57,11.7,55.7,13,54,13z"></path><path fill="#f9e3ae" d="M51 7H57V13H51z"></path><path fill="#f3f3f3" d="M31 17A16 16 0 1 0 31 49A16 16 0 1 0 31 17Z"></path><path fill="#bbdef9" d="M31,21c-4.4,0-8.3,2.4-10.4,5.9c1.5,1.6,2.4,3.7,2.4,6.1s-0.9,4.5-2.4,6.1C22.7,42.6,26.6,45,31,45 c6.6,0,12-5.4,12-12C43,26.4,37.6,21,31,21z"></path><path fill="#d2edff" d="M31 28A5 5 0 1 0 31 38A5 5 0 1 0 31 28Z"></path><path fill="#f3f3f3" d="M28 27A3 3 0 1 0 28 33 3 3 0 1 0 28 27zM34.5 35A1.5 1.5 0 1 0 34.5 38 1.5 1.5 0 1 0 34.5 35z"></path><path fill="#8d6c9f" d="M55,2H9C7.3,2,6,3.3,6,5v52c0,1.7,1.3,3,3,3h46c1.7,0,3-1.3,3-3V14V6V5C58,3.3,56.7,2,55,2z M56,12h-4V8h4 V12z M52,6c-1.1,0-2,0.9-2,2v4c0,1.1,0.9,2,2,2h4v43c0,0.6-0.4,1-1,1H9c-0.6,0-1-0.4-1-1V5c0-0.6,0.4-1,1-1h46c0.6,0,1,0.4,1,1v1 H52z"></path><path fill="#8d6c9f" d="M12 6A2 2 0 1 0 12 10 2 2 0 1 0 12 6zM18 6A2 2 0 1 0 18 10 2 2 0 1 0 18 6zM47 8h-2c-.6 0-1 .4-1 1s.4 1 1 1h2c.6 0 1-.4 1-1S47.6 8 47 8zM15 14c.6 0 1-.4 1-1s-.4-1-1-1h-4c-.6 0-1 .4-1 1s.4 1 1 1H15zM47 12H19c-.6 0-1 .4-1 1s.4 1 1 1h28c.6 0 1-.4 1-1S47.6 12 47 12zM46.2 40.7c.3-.5.5-1.1.7-1.7.2-.5-.1-1.1-.6-1.3-.5-.2-1.1.1-1.3.6-.2.5-.4 1-.7 1.5-.2.5-.1 1.1.4 1.3.1.1.3.1.5.1C45.7 41.2 46 41 46.2 40.7z"></path><path fill="#8d6c9f" d="M31,16c-9.4,0-17,7.6-17,17s7.6,17,17,17c4.7,0,9.2-2,12.4-5.4c0.4-0.4,0.4-1-0.1-1.4s-1-0.4-1.4,0 c-2.8,3-6.8,4.8-11,4.8c-8.3,0-15-6.7-15-15s6.7-15,15-15s15,6.7,15,15c0,0.4,0,0.7,0,1.1c0,0.6,0.4,1,0.9,1.1 c0.6,0,1-0.4,1.1-0.9c0-0.4,0-0.8,0-1.3C48,23.6,40.4,16,31,16z"></path><path fill="#8d6c9f" d="M19.6 39.3C21.9 43.4 26.3 46 31 46c7.2 0 13-5.8 13-13s-5.8-13-13-13c-4.7 0-9.1 2.6-11.4 6.7-.2.4-.1.9.2 1.2 1.4 1.3 2.2 3.1 2.2 5.1s-.8 3.7-2.2 5.1C19.5 38.4 19.4 38.9 19.6 39.3zM24 33c0-2.2-.8-4.3-2.3-5.9 2-3.1 5.5-5.1 9.3-5.1 6.1 0 11 4.9 11 11s-4.9 11-11 11c-3.8 0-7.2-1.9-9.3-5.1C23.2 37.3 24 35.2 24 33zM12 52c-.6 0-1 .4-1 1v2c0 .6.4 1 1 1s1-.4 1-1v-2C13 52.4 12.6 52 12 52zM17 52c-.6 0-1 .4-1 1v2c0 .6.4 1 1 1s1-.4 1-1v-2C18 52.4 17.6 52 17 52zM22 52c-.6 0-1 .4-1 1v2c0 .6.4 1 1 1s1-.4 1-1v-2C23 52.4 22.6 52 22 52zM27 52c-.6 0-1 .4-1 1v2c0 .6.4 1 1 1s1-.4 1-1v-2C28 52.4 27.6 52 27 52zM32 52c-.6 0-1 .4-1 1v2c0 .6.4 1 1 1s1-.4 1-1v-2C33 52.4 32.6 52 32 52zM37 52c-.6 0-1 .4-1 1v2c0 .6.4 1 1 1s1-.4 1-1v-2C38 52.4 37.6 52 37 52zM42 52c-.6 0-1 .4-1 1v2c0 .6.4 1 1 1s1-.4 1-1v-2C43 52.4 42.6 52 42 52zM47 52c-.6 0-1 .4-1 1v2c0 .6.4 1 1 1s1-.4 1-1v-2C48 52.4 47.6 52 47 52zM52 56c.6 0 1-.4 1-1v-2c0-.6-.4-1-1-1s-1 .4-1 1v2C51 55.6 51.4 56 52 56z"></path></g></svg>